<?xml version="1.0" encoding="utf-8"?>
<!-- Generator: Adobe Illustrator 27.1.1, SVG Export Plug-In . SVG Version: 6.00 Build 0)  -->
<svg version="1.1" id="Layer_1" xmlns="http://www.w3.org/2000/svg" xmlns:xlink="http://www.w3.org/1999/xlink" x="0px" y="0px"
	 viewBox="0 0 24 24" style="enable-background:new 0 0 24 24;" xml:space="preserve">
<style type="text/css">
	.st0{fill:#FF1F30;}
</style>
<path class="st0" d="M19.9,8.6c0-0.1-0.1-0.2-0.2-0.3l-6-6c-0.1-0.1-0.2-0.1-0.3-0.2c0,0-0.1,0-0.1,0c-0.1,0-0.2,0-0.3-0.1
	c0,0,0,0-0.1,0H6C4.9,2,4,2.9,4,4v16c0,1.1,0.9,2,2,2h12c1.1,0,2-0.9,2-2V9c0,0,0,0,0-0.1C20,8.8,20,8.8,19.9,8.6
	C19.9,8.6,19.9,8.6,19.9,8.6z M16.6,8H14V5.4L16.6,8z M6,20V4h6v5c0,0.6,0.4,1,1,1h5l0,10H6z"/>
<path class="st0" d="M8,12h8v2H8V12z M8,16h8v2H8V16z M8,8h2v2H8V8z"/>
</svg>
