<?xml version="1.0" encoding="utf-8"?>
<!-- Generator: Adobe Illustrator 27.1.1, SVG Export Plug-In . SVG Version: 6.00 Build 0)  -->
<svg version="1.1" id="Layer_1" xmlns="http://www.w3.org/2000/svg" xmlns:xlink="http://www.w3.org/1999/xlink" x="0px" y="0px"
	 viewBox="0 0 24 24" style="enable-background:new 0 0 24 24;" xml:space="preserve">
<style type="text/css">
	.st0{fill:#FF1F30;}
</style>
<path class="st0" d="M20,7h-1.2C18.9,6.5,19,6,19,5.5C19,3.6,17.4,2,15.5,2c-1.6,0-2.7,1.5-3.4,3.1C11.4,3.6,10.3,2,8.5,2
	C6.6,2,5,3.6,5,5.5C5,6.1,5.1,6.6,5.2,7H4C2.9,7,2,7.9,2,9v2c0,1.1,0.9,2,2,2v7c0,1.1,0.9,2,2,2h12c1.1,0,2-0.9,2-2v-7
	c1.1,0,2-0.9,2-2V9C22,7.9,21.1,7,20,7z M15.5,4C16.3,4,17,4.7,17,5.5C17,7,16.4,7,16,7h-2.5C14,5.4,14.8,4,15.5,4z M7,5.5
	C7,4.7,7.7,4,8.5,4c0.9,0,1.7,1.5,2.2,3H8C7.6,7,7,7,7,5.5z M4,9h7v2H4V9z M6,20v-7h5v7H6z M18,20h-5v-7h5V20z M13,11V9.1L13,9h7
	l0,2H13z"/>
</svg>
