<?xml version="1.0" encoding="utf-8"?>
<!-- Generator: Adobe Illustrator 27.1.1, SVG Export Plug-In . SVG Version: 6.00 Build 0)  -->
<svg version="1.1" id="Layer_1" xmlns="http://www.w3.org/2000/svg" xmlns:xlink="http://www.w3.org/1999/xlink" x="0px" y="0px"
	 viewBox="0 0 154 36" style="enable-background:new 0 0 154 36;" xml:space="preserve">
<style type="text/css">
	.st0{fill:#B4B7C9;}
</style>
<g>
	<g>
		<path class="st0" d="M96.8,20.4c1.5,1.4,3,2.8,4.7,4.5c-1.3,0-2.3,0-3.3,0c-0.4,0-0.7-0.3-0.9-0.5c-1.2-1.2-2.5-2.5-3.7-3.7
			c-0.5-0.5-3.4-0.9-3.9-0.5c-0.3,0.2-0.2,0.5-0.2,0.8c0,1.1,0,2.1,0,3.2c0,0.6-0.2,0.7-0.8,0.8c-1.7,0-1.7,0.1-1.7-1.6
			c0-1.5,0-3,0-4.5c0-0.8,0.2-1,1-1c3.1,0,6.2,0,9.3,0c0.5,0,1,0,1.4-0.4c0.3-0.3,0.5-0.9,0.4-1.4c0-0.2-0.1-0.5-0.3-0.6
			c-0.3-0.2-0.6-0.1-0.9-0.1c-0.3,0-0.7,0-1,0c-0.8,0-1.6,0-2.4,0c-1.6,0-3.3,0-4.9,0c-1.1,0-1.9-0.5-2.4-1.5C87,13.3,87,13,87.8,13
			c4.3,0,8.6,0,12.9,0c0.5,0,0.7,0.1,0.7,0.7c0,1.4,0,2.8,0,4.2c-0.1,1.3-1,2.1-2.2,2.1c-0.7,0-1.5,0-2.2,0
			C96.9,20.2,96.9,20.3,96.8,20.4z"/>
		<path class="st0" d="M113.4,23.2c-0.7,1.4-1.7,1.7-3,1.7c-1.9-0.1-3.9,0-5.8,0c-0.6,0-0.8-0.1-0.8-0.8c0-2.1,0-4.3,0-6.4
			c0-1.4,1-2.3,2.4-2.3c2.9,0,5.9,0,8.8,0c0.6,0,0.8,0.1,0.8,0.8c0,2.7,0,5.3,0,8c0,0.6-0.2,0.8-0.8,0.8
			C113.4,24.9,113.4,24.9,113.4,23.2z M109.8,22.4c1,0,2,0,3,0c0.5,0,0.6-0.1,0.6-0.6c0-1.1,0-2.3,0-3.4c0-0.4,0-0.6-0.5-0.6
			c-1.9,0-3.7,0-5.6,0c-0.7,0-1.1,0.5-1.1,1.2c0,1,0,1.9,0,2.9c0,0.5,0.2,0.6,0.6,0.6C107.9,22.4,108.8,22.4,109.8,22.4z"/>
		<path class="st0" d="M83.2,23.2c-0.7,1.4-1.7,1.7-3,1.7c-1.9-0.1-3.9,0-5.8,0c-0.6,0-0.8-0.1-0.8-0.8c0-2.1,0-4.3,0-6.4
			c0-1.4,1-2.3,2.4-2.3c2.9,0,5.9,0,8.8,0c0.6,0,0.8,0.1,0.8,0.8c0,2.7,0,5.3,0,8c0,0.6-0.2,0.8-0.8,0.8
			C83.2,24.9,83.2,24.9,83.2,23.2z M79.6,22.4c1,0,2,0,3,0c0.5,0,0.6-0.1,0.6-0.6c0-1.1,0-2.3,0-3.4c0-0.4,0-0.6-0.5-0.6
			c-1.9,0-3.7,0-5.6,0c-0.7,0-1.1,0.5-1.1,1.2c0,1,0,1.9,0,2.9c0,0.5,0.2,0.6,0.6,0.6C77.6,22.4,78.6,22.4,79.6,22.4z"/>
		<path class="st0" d="M129,15.4c1.7,0,3.4,0,5.1,0c0.7,0,1,0.1,1,0.9c-0.1,2,0,4.1,0,6.1c0,1.6-1,2.5-2.6,2.5c-2,0-4.1,0-6.1,0
			c-0.7,0-0.9,0.2-0.9,0.9c0,1.5-0.5,1.9-2.1,1.5c-0.4-0.1-0.4-0.3-0.4-0.5c0-1.3,0-2.5,0-3.8c0-0.7,0.4-0.6,0.8-0.6
			c2.4,0,4.8,0,7.2,0c0.4,0,1,0,1.3-0.4c0.3-0.4,0.3-1,0.4-1.5c0-0.5,0.1-1.1,0.1-1.7c0-0.3-0.2-0.7-0.4-0.9
			c-0.6-0.5-1.8-0.2-2.5-0.2c-0.7,0-1.3,0-2,0c-1.3,0-2.7,0-4,0c-0.7,0-1-0.1-0.9-0.8c0-0.3,0-0.6,0-0.9c-0.1-0.6,0.2-0.7,0.7-0.7
			C125.5,15.4,127.3,15.4,129,15.4z"/>
		<path class="st0" d="M54.4,16.5c1.4,0,2.9,0,4.3,0c0.8,0,0.9,0.2,0.9,0.9c0,1.8,0,3.5,0,5.3c0,1.3-0.8,2.1-2.1,2.1
			c-1.7,0-3.5,0-5.2,0c-0.8,0-1,0.2-1,1c0.1,1-1.1,1.7-2,1.2c-0.3-0.2-0.2-0.5-0.2-0.7c0-1,0-1.9,0-2.9c0-0.6,0.2-0.7,0.8-0.7
			c2.1,0,4.2,0,6.2,0c1,0,1.4-0.4,1.4-1.4c0.1-2.7,0.1-2.7-2.6-2.7c-1.6,0-3.3-0.1-4.9,0c-0.9,0-0.9-0.4-0.9-1.1
			c0-0.7-0.1-1.2,0.9-1.1C51.5,16.6,52.9,16.5,54.4,16.5z"/>
		<path class="st0" d="M61.4,19.7c0-1.5,0-3,0-4.5c0-0.8,0.6-0.7,1.2-0.7c0.6,0,1-0.2,1,0.6c0,1.4,0.6,1.5,1.6,1.4
			c1.5-0.1,3,0,4.5,0c1.5,0,2.3,0.8,2.3,2.3c0,1.8,0,3.6,0,5.4c0,1-1.1,0.7-1.1,0.7s-1,0.2-1-0.7c0.1-1.2,0-2.5,0-3.8
			c0-1.5-0.3-1.8-1.7-1.8c-1.3,0-2.5,0-3.8,0c-0.6,0-0.8,0.2-0.7,0.7c0,1.4,0,2.9,0,4.3c0,0.8,0,1.2-1.1,1.2c-0.9,0-1.2-0.3-1.1-1.2
			C61.5,22.4,61.4,21,61.4,19.7z"/>
		<path class="st0" d="M136.5,19.7c0-1.5,0-3,0-4.5c0-0.8,0.6-0.7,1.2-0.7c0.6,0,1-0.2,1,0.6c0,1.4,0.6,1.5,1.6,1.4
			c1.5-0.1,3,0,4.5,0c1.5,0,2.3,0.8,2.3,2.3c0,1.8,0,3.6,0,5.4c0,1-1.1,0.7-1.1,0.7s-1,0.2-1-0.7c0.1-1.2,0-2.5,0-3.8
			c0-1.5-0.3-1.8-1.7-1.8c-1.3,0-2.5,0-3.8,0c-0.6,0-0.8,0.2-0.7,0.7c0,1.4,0,2.9,0,4.3c0,0.8,0,1.2-1.1,1.2c-0.9,0-1.2-0.3-1.1-1.2
			C136.5,22.4,136.5,21,136.5,19.7z"/>
		<path class="st0" d="M36.7,18.6c1.8,0,3.6,0,5.3,0c0.6,0,0.9,0.1,0.9,0.8c-0.1,1.5-0.1,3.1,0,4.6c0,1-0.7,0.7-1.2,0.8
			c-0.6,0-1,0-0.9-0.8c0.1-0.9,0-1.8,0-2.7c0-0.6-0.1-0.8-0.7-0.8c-2.3,0-4.6,0-6.9,0c-0.6,0-0.8,0.2-0.8,0.8c0,0.9,0,1.8,0,2.8
			c0,1-0.7,0.6-1.2,0.6c-0.5,0.1-1,0.1-0.9-0.7c0.1-1.6,0-3.2,0-4.9c0-0.6,0.3-0.7,0.8-0.7C33,18.6,34.9,18.6,36.7,18.6z"/>
		<path class="st0" d="M120.8,19c0,1.7,0,3.4,0,5.1c0,0.6-0.3,0.8-0.3,0.8l-1.5,0c0,0-0.6-0.1-0.6-0.7c-0.1-3.6,0-7.2,0-10.7
			c0-0.4,0.7-0.6,0.7-0.6l1,0c0,0,0.8,0.2,0.7,0.7C120.8,15.4,120.8,17.2,120.8,19z"/>
		<path class="st0" d="M36.6,14.5c1.8,0,3.6,0,5.5,0c1,0,1,0.4,0.6,1c-0.4,0.6-1,1-1.7,1c-2.9,0-5.7,0-8.6,0c-0.6,0-1.1-0.2-1.5-0.7
			c-0.3-0.3-0.6-0.8-0.5-1.2c0.2-0.5,0.7-0.2,1.1-0.2C33.2,14.4,34.9,14.5,36.6,14.5z"/>
		<path class="st0" d="M47.3,19.7c0,1.5,0,3,0,4.6c0,0.2,0,0.3-0.1,0.4c-0.1,0.1-0.3,0.1-0.5,0.1c-0.3,0-0.7,0-1,0
			c-0.1,0-0.2,0-0.3-0.1c-0.2-0.1-0.2-0.4-0.2-0.6c0-2,0-3.9,0-5.9c0-1,0-2,0-3c0-0.4-0.1-0.6,0.3-0.8c0.3-0.2,1-0.1,1.4-0.1
			c0.1,0,0.3,0,0.4,0.1c0.1,0.1,0.2,0.4,0.2,0.5C47.3,16.7,47.3,18.2,47.3,19.7z"/>
	</g>
	<path class="st0" d="M23.9,8.7V15l1.5,2.9l-1.5,3.4c0,0-4.6,3.4-4.6,6.4h-1.7V14C17.6,14,23.2,6.4,23.9,8.7z"/>
	<path class="st0" d="M8.5,8.7V15L7,17.8l1.5,3.4c0,0,4.6,3.4,4.6,6.4h1.7V14C14.8,14,9.3,6.4,8.5,8.7z"/>
</g>
</svg>
