<?xml version="1.0" encoding="utf-8"?>
<!-- Generator: Adobe Illustrator 27.1.1, SVG Export Plug-In . SVG Version: 6.00 Build 0)  -->
<svg version="1.1" id="Layer_1" xmlns="http://www.w3.org/2000/svg" xmlns:xlink="http://www.w3.org/1999/xlink" x="0px" y="0px"
	 viewBox="0 0 154 36" style="enable-background:new 0 0 154 36;" xml:space="preserve">
<style type="text/css">
	.st0{fill:#B4B7C9;}
	.st1{fill-rule:evenodd;clip-rule:evenodd;fill:#B4B7C9;}
</style>
<g id="Graboost">
	<g id="Rocket">
		<path id="Left_Compartment" class="st0" d="M13.9,15.5L13.9,15.5c-0.3,0.3-0.6,0.6-0.8,0.8c-0.2,0.2-0.5,0.5-0.7,0.8
			c-0.4,0.5-0.4,1.3,0.1,1.7c0.2,0.2,0.5,0.3,0.8,0.3c0.4,0,0.7-0.2,0.9-0.4c0.2-0.2,0.4-0.4,0.6-0.7c0.3-0.3,0.5-0.5,0.8-0.8
			c0.5-0.5,0.5-1.2,0-1.7C15.3,14.9,14.5,14.9,13.9,15.5C14,15.4,14,15.4,13.9,15.5L13.9,15.5z"/>
		<path id="Booster" class="st0" d="M12,26.7c-0.8,0.5-1.7,0.9-2.5,1.2c-0.1,0-0.2,0-0.2-0.1c-0.1-0.1-0.1-0.2-0.1-0.2v-0.1
			c0.3-0.9,0.7-1.7,1.2-2.4c0.3-0.6,0.1-1.3-0.5-1.7c-0.5-0.3-1.2-0.1-1.6,0.4c-0.6,0.9-1.1,1.8-1.5,2.8v0.1
			c-0.5,1.4,0.2,2.9,1.6,3.4c0.3,0.1,0.6,0.2,0.9,0.2c0.3,0,0.6-0.1,0.9-0.1c1-0.4,2-0.9,3-1.4c0.6-0.3,0.8-1,0.5-1.6
			c-0.3-0.6-1-0.8-1.6-0.5C12,26.6,12,26.7,12,26.7z"/>
		<path id="Right_Compartment" class="st0" d="M21.8,21.4c-0.5-0.5-1.2-0.5-1.7,0c0,0,0,0,0,0c-0.8,0.8-1.2,1.1-1.6,1.5
			c-0.5,0.4-0.6,1.2-0.1,1.7c0.2,0.3,0.6,0.4,0.9,0.4c0.3,0,0.6-0.1,0.8-0.3c0.4-0.4,0.8-0.8,1.7-1.6C22.2,22.7,22.2,21.9,21.8,21.4
			L21.8,21.4z"/>
		<path id="Rocket_Frame" class="st0" d="M30.5,6.6c-0.8-0.8-2-1.1-3.1-0.8c-2,0.6-5.2,2-9.2,5.5c-0.6,0.5-1.4,0.7-2.1,0.6
			c-1.4-0.2-2.8-0.1-4.2,0.3c-1.5,0.4-2.9,1.1-4,2.1c-0.7,0.6-1.1,1.5-1.1,2.4c0,0.9,0.3,1.9,1,2.5l10.2,10.1c0.6,0.6,1.5,1,2.4,1
			h0.1c0.9,0,1.8-0.4,2.4-1.1c1-1.2,1.7-2.5,2.1-4.1c0.4-1.4,0.4-2.8,0.3-4.2c-0.1-0.8,0.1-1.5,0.6-2.1c3.5-3.9,4.8-7.2,5.4-9.2
			C31.6,8.6,31.3,7.4,30.5,6.6z M22.8,21.3c0.2,1.9-0.2,4.6-1.8,6.3c-0.2,0.2-0.4,0.3-0.7,0.3c-0.3,0-0.6-0.1-0.8-0.3L9.4,17.5
			c-0.2-0.2-0.3-0.5-0.3-0.7c0-0.3,0.1-0.5,0.3-0.7c1.5-1.2,3.4-1.9,5.3-1.8c0.3,0,0.7,0,1,0.1c1.5,0.2,2.9-0.3,4-1.2
			c3.7-3.2,6.5-4.5,8.3-5c0.3-0.1,0.5,0,0.7,0.2l0,0C28.9,8.5,29,8.8,28.9,9c-0.5,1.8-1.7,4.6-4.9,8.2
			C23.1,18.4,22.7,19.9,22.8,21.3z"/>
		<path id="Middle_Window" class="st0" d="M20.7,15.1c-0.8,0-1.5,0.6-1.5,1.5c0,0.8,0.6,1.5,1.5,1.5s1.5-0.6,1.5-1.5c0,0,0,0,0,0
			C22.1,15.7,21.5,15.1,20.7,15.1z"/>
		<path id="Front_Window" class="st0" d="M25.1,13.6c0-0.4-0.1-0.8-0.4-1c-0.3-0.3-0.6-0.4-1-0.4l0,0c-0.8,0-1.5,0.7-1.5,1.5l0,0
			c0,0.4,0.1,0.7,0.4,1c0.3,0.3,0.6,0.4,1,0.4l0,0C24.4,15,25,14.4,25.1,13.6z"/>
	</g>
	<g id="Logo_Text">
		<path id="G" class="st0" d="M53.7,17.7h-5.4c-0.7,0-1.3,0.5-1.3,1.1c0,0.7,0.5,1.3,1.1,1.3c0.1,0,0.1,0,0.2,0h3.9v0.3
			c0,3-2.3,5-5.4,5c-3.7,0-6-2.9-6-7.6s2.2-7.3,6-7.3c2.2-0.1,4.1,1.2,5,3.2c0.2,0.7,0.8,1.1,1.5,1.1c0.7,0,1.3-0.5,1.4-1.2
			c0-0.1,0-0.1,0-0.2c0-0.4-0.1-0.8-0.2-1.1c-1.1-2.6-4-4.4-7.7-4.4c-5.6,0-9.1,3.9-9.1,10c0,6.3,3.5,10.2,9.1,10.2
			c5.3,0,8.4-3.2,8.4-8.4v-0.5c0.1-0.8-0.5-1.5-1.3-1.6C53.8,17.6,53.7,17.6,53.7,17.7z"/>
		<path id="r_00000013898404095584472760000016144565459660344253_" class="st0" d="M63.8,13.3c-1.5,0.1-2.8,1.2-3.1,2.7h-0.1v-1.2
			c0-0.8-0.6-1.4-1.4-1.4s-1.4,0.6-1.4,1.4l0,0v11.8c-0.1,0.8,0.6,1.5,1.4,1.6c0.8,0.1,1.5-0.6,1.6-1.4c0-0.1,0-0.1,0-0.2v-7.3
			c0-1.8,0.8-3.1,2.8-3.1c0.5,0,1-0.1,1.3-0.4c0.3-0.3,0.5-0.6,0.4-1c0-0.4-0.1-0.8-0.4-1C64.6,13.4,64.2,13.2,63.8,13.3z"/>
		<path id="a" class="st0" d="M72.5,13.3c-2.6,0-4.7,1-5.5,2.6c-0.2,0.3-0.3,0.6-0.3,1c0,0.7,0.5,1.2,1.2,1.2c0,0,0.1,0,0.1,0
			c0.5,0,0.9-0.2,1.2-0.6c0.6-1.2,1.8-1.9,3.2-1.8c1.8,0,2.9,1,2.9,2.5v1.1l-3.9,0.2c-3.4,0.2-5.3,1.7-5.3,4.2c0,2.5,2,4.3,4.8,4.3
			c1.9,0,3.6-1,4.5-2.6h0.1v1.2c0,0.7,0.5,1.4,1.3,1.4c0,0,0.1,0,0.1,0c0.8,0,1.4-0.6,1.4-1.3c0-0.1,0-0.1,0-0.2V18
			C78.2,15.1,76,13.3,72.5,13.3z M75.3,22.4c0,1.9-1.6,3.3-3.7,3.3c-1.6,0-2.6-0.8-2.6-2.1c0-1.2,1-2,2.7-2.1l3.5-0.2V22.4z"/>
		<path id="b" class="st0" d="M88.6,13.3c-1.9-0.1-3.6,1-4.5,2.7h-0.1V9.5c0.1-0.8-0.6-1.5-1.4-1.6c-0.8-0.1-1.5,0.6-1.6,1.4
			c0,0.1,0,0.1,0,0.2v17.1c-0.1,0.7,0.5,1.4,1.2,1.5c0.1,0,0.1,0,0.2,0c0.8,0,1.4-0.5,1.5-1.3c0-0.1,0-0.1,0-0.2v-1.2H84
			c0.9,1.7,2.7,2.7,4.6,2.7c3.6,0,6-2.9,6-7.4S92.2,13.3,88.6,13.3z M87.8,25.6c-2.2,0-3.8-1.9-3.8-4.9s1.6-4.9,3.8-4.9
			c2.3,0,3.7,1.9,3.7,4.9S90.1,25.6,87.8,25.6z"/>
		<path id="o" class="st0" d="M103,13.3c-4.1,0-6.8,2.8-6.8,7.4s2.7,7.4,6.8,7.4c4.1,0,6.7-2.8,6.7-7.4S107,13.3,103,13.3z
			 M103,25.7c-2.3,0-3.8-1.8-3.8-5s1.5-5,3.8-5s3.8,1.8,3.8,5S105.3,25.7,103,25.7z"/>
		<path id="o-2" class="st0" d="M118.1,13.3c-4.1,0-6.8,2.8-6.8,7.4s2.7,7.4,6.8,7.4c4.1,0,6.8-2.8,6.8-7.4S122.2,13.3,118.1,13.3z
			 M118.1,25.7c-2.3,0-3.8-1.8-3.8-5s1.5-5,3.8-5c2.3,0,3.8,1.8,3.8,5S120.4,25.7,118.1,25.7z"/>
		<path id="s" class="st0" d="M134.2,19.8l-2.2-0.5c-1.5-0.3-2.2-1-2.2-1.9c0-1.1,1.1-1.9,2.7-1.9c1.2-0.1,2.4,0.6,2.9,1.7
			c0.2,0.4,0.7,0.7,1.2,0.6c0.6,0.1,1.1-0.4,1.1-0.9c0-0.1,0-0.1,0-0.2c0-0.1,0-0.3-0.1-0.4c-0.4-1.7-2.5-3-5.1-3
			c-3.4,0-5.6,1.7-5.6,4.3c0,2,1.4,3.4,4.1,4.1l2.2,0.5c1.5,0.4,2.1,0.9,2.1,1.8c0,1.2-1.1,1.9-2.8,1.9s-2.5-0.5-3.3-1.7
			c-0.3-0.5-0.7-0.8-1.3-0.8c-0.6-0.1-1.2,0.4-1.3,1c0,0.1,0,0.1,0,0.2c0,0.2,0,0.4,0.1,0.6c0.7,1.7,2.7,2.9,5.5,2.9
			c3.5,0,5.9-1.8,5.9-4.4C138.3,21.5,137.2,20.5,134.2,19.8z"/>
		<path id="t" class="st0" d="M146.1,25.5h-0.2c-1.1-0.1-1.5-0.6-1.5-1.7v-7.9h1.7c0.6,0.1,1.2-0.4,1.2-1c0,0,0-0.1,0-0.1
			c0.1-0.6-0.4-1.2-1-1.2c-0.1,0-0.2,0-0.2,0h-1.7v-2.1c0.1-0.8-0.6-1.5-1.4-1.6c-0.8-0.1-1.5,0.6-1.6,1.4c0,0.1,0,0.1,0,0.2v2.1h-1
			c-0.6,0-1.2,0.4-1.2,1.1c0,0.6,0.4,1.2,1.1,1.2c0.1,0,0.1,0,0.2,0h1v8.6c0,2.4,1.2,3.5,3.6,3.5h0.2c1.4,0,2.1-0.5,2.1-1.3
			C147.3,25.9,146.9,25.6,146.1,25.5z"/>
	</g>
</g>
</svg>
