<?xml version="1.0" encoding="utf-8"?>
<!-- Generator: Adobe Illustrator 27.1.1, SVG Export Plug-In . SVG Version: 6.00 Build 0)  -->
<svg version="1.1" id="Layer_1" xmlns="http://www.w3.org/2000/svg" xmlns:xlink="http://www.w3.org/1999/xlink" x="0px" y="0px"
	 viewBox="0 0 154 36" style="enable-background:new 0 0 154 36;" xml:space="preserve">
<style type="text/css">
	.st0{fill:#B4B7C9;}
	.st1{fill-rule:evenodd;clip-rule:evenodd;fill:#B4B7C9;}
</style>
<g>
	<path id="k" class="st0" d="M43.3,26.6l-5-7.2c-0.1-0.1-0.1-0.1-0.2-0.1h-1.8c-0.2,0-0.3,0.1-0.3,0.3v6.9c0,0.2-0.1,0.3-0.3,0.3h-3
		c-0.2,0-0.3-0.1-0.3-0.3c0,0,0,0,0,0V3.3c0-0.2,0.1-0.3,0.3-0.3h3C35.9,3,36,3.1,36,3.3v12.4c0,0.2,0.1,0.3,0.3,0.3h1.8
		c0.1,0,0.2,0,0.2-0.1l4.6-6.5c0.1-0.1,0.1-0.1,0.2-0.1h3.6c0.2,0,0.3,0.1,0.3,0.3c0,0.1,0,0.1-0.1,0.2l-5.5,7.7
		c-0.1,0.1-0.1,0.2,0,0.3l6.1,8.5c0.1,0.1,0.1,0.3-0.1,0.4c0,0-0.1,0.1-0.2,0.1h-3.7C43.5,26.7,43.4,26.7,43.3,26.6z"/>
	<path class="st0" d="M65.6,16.8c-0.1-0.8-0.3-1.6-0.6-2.3c-0.1-0.2-0.2-0.5-0.3-0.7c-0.1-0.2-0.2-0.4-0.3-0.5s-0.2-0.3-0.3-0.5
		c-0.8-1.2-1.8-2.1-3.1-2.8c-0.2-0.1-0.4-0.2-0.5-0.3c-0.3-0.1-0.6-0.3-0.9-0.4c-0.7-0.3-1.5-0.4-2.3-0.5c-0.3,0-0.7-0.1-1-0.1
		c-1,0-2,0.1-3,0.4c-0.1,0-0.2,0.1-0.2,0.2c-0.3,0.9-0.4,1.8-0.4,2.7c0,0.4,0,0.8,0.1,1.2c0.1,0.8,0.3,1.6,0.6,2.3
		c0.5,1.2,1.2,2.2,2,3.1c0.9,0.9,2,1.6,3.2,2c0.1,0,0.2,0,0.3-0.1c0.2-0.2,0.4-0.5,0.6-0.7c0.3-0.6,0.5-1.3,0.5-2c0-0.1,0-0.2,0-0.3
		c0-0.1-0.1-0.2-0.2-0.3c-0.7-0.3-1.3-0.7-1.8-1.2c-0.5-0.5-0.8-1-1.1-1.6c-0.1-0.1-0.1-0.2-0.1-0.4c0,0,0-0.1-0.1-0.1
		c0-0.1-0.1-0.2-0.1-0.3c-0.1-0.3-0.1-0.6-0.2-0.8c0-0.1,0-0.2,0-0.3l0-0.2c0-0.2,0.1-0.3,0.3-0.3c0,0,0,0,0,0
		c0.6,0,1.2,0.1,1.7,0.4c1.5,0.6,2.6,1.7,3.2,3.2c0.2,0.7,0.4,1.4,0.4,2.1c0,0,0,0.1,0,0.1c0,0.4,0,0.8-0.1,1.2
		c0,0.3-0.1,0.5-0.2,0.7c-0.1,0.2-0.2,0.5-0.3,0.7c-0.1,0.1-0.1,0.2-0.2,0.3c-0.1,0.1-0.1,0.2-0.2,0.3c-0.1,0.1-0.1,0.2-0.2,0.3
		c-0.1,0.2-0.3,0.4-0.5,0.5c-0.2,0.2-0.4,0.3-0.5,0.5c-0.2,0.1-0.4,0.3-0.6,0.4c0,0-0.1,0-0.1,0.1c-0.2,0.1-0.4,0.2-0.6,0.3
		c-0.2,0.1-0.5,0.2-0.7,0.2c-0.3,0.1-0.5,0.1-0.8,0.1c-0.3,0-0.5,0-0.8,0c-1.7,0-3-0.5-4.1-1.6c-0.1-0.1-0.3-0.3-0.4-0.4
		c-0.1-0.1-0.2-0.3-0.3-0.4c-0.2-0.3-0.4-0.6-0.5-1c-0.1-0.2-0.1-0.3-0.2-0.5c-0.1-0.3-0.1-0.6-0.2-0.8c0-0.1,0-0.2,0-0.3
		c0-0.2,0-0.4,0-0.6c0-0.8,0.2-1.7,0.5-2.5c0-0.1,0-0.1,0-0.2c-0.3-1-0.4-2.1-0.4-3.1c0-0.4,0-0.7,0-1.1c0-0.2-0.1-0.3-0.3-0.3
		c-0.1,0-0.1,0-0.2,0.1c-0.7,0.5-1.3,1.2-1.8,1.9c-0.1,0.2-0.2,0.3-0.3,0.5s-0.2,0.4-0.3,0.5C47.3,15.2,47,16.6,47,18
		c0,2.6,0.9,4.8,2.7,6.5c1.8,1.7,4,2.6,6.7,2.6c2.7,0,4.9-0.9,6.7-2.6c0.4-0.4,0.8-0.8,1.1-1.3c0.5-0.7,0.9-1.5,1.1-2.4
		c0.3-0.9,0.4-1.9,0.4-2.9C65.7,17.6,65.7,17.2,65.6,16.8z"/>
	<path id="l_00000166643439055338485210000011099040849277409173_" class="st0" d="M67.9,26.4V3.3C67.9,3.1,68,3,68.2,3l0,0h3
		c0.2,0,0.3,0.1,0.3,0.3v0v23.1c0,0.2-0.1,0.3-0.3,0.3h-3C68,26.7,67.9,26.6,67.9,26.4z"/>
	<path id="l-2" class="st0" d="M75,26.4V3.3C75,3.1,75.1,3,75.3,3l0,0h3c0.2,0,0.3,0.1,0.3,0.3v0v23.1c0,0.2-0.1,0.3-0.3,0.3h-3
		C75.1,26.7,75,26.6,75,26.4z"/>
	<path id="a_00000133515847454071645030000001114594577853077414_" class="st0" d="M97,9.3h2.3c0.2,0,0.3,0.1,0.3,0.3v0v16.9
		c0,0.2-0.1,0.3-0.3,0.3h-2.4c-0.1,0-0.3-0.1-0.3-0.2l-0.2-1.4c0-0.2-0.2-0.3-0.3-0.2c-0.1,0-0.1,0-0.2,0.1
		c-1.6,1.5-3.6,2.2-5.9,2.2c-2.6,0-4.8-0.9-6.5-2.6c-1.7-1.7-2.6-3.9-2.6-6.5c0-2.6,0.9-4.8,2.6-6.5c1.7-1.7,3.9-2.6,6.5-2.6
		c2.4,0,4.4,0.7,6,2.2c0.1,0.1,0.3,0.1,0.4,0c0,0,0.1-0.1,0.1-0.1l0.3-1.4C96.7,9.4,96.8,9.3,97,9.3z M86.1,22.1
		c1.1,1.1,2.5,1.6,4.1,1.6c1.7,0,3-0.5,4.1-1.6c1.1-1.1,1.6-2.5,1.6-4.1c0-1.6-0.5-3-1.6-4.1c-1.1-1.1-2.4-1.6-4.1-1.6
		c-1,0-2,0.2-2.9,0.7c-0.9,0.5-1.6,1.2-2,2C84.7,16,84.4,17,84.4,18C84.4,19.6,85,21,86.1,22.1z"/>
	<path id="p_00000060743133362423559660000010032309490831118725_" class="st0" d="M112.4,8.9c1.6,0,3.2,0.4,4.7,1.2
		c1.4,0.8,2.5,1.9,3.2,3.3c0.8,1.4,1.2,3.1,1.2,4.7c0,2.6-0.9,4.8-2.6,6.5c-1.7,1.7-3.9,2.6-6.5,2.6c-2,0-3.8-0.6-5.3-1.7
		c-0.1-0.1-0.3-0.1-0.4,0.1c0,0.1-0.1,0.1-0.1,0.2v7.1c0,0.2-0.1,0.3-0.3,0.3l0,0h-3c-0.2,0-0.3-0.1-0.3-0.3c0,0,0,0,0,0V9.6
		c0-0.2,0.1-0.3,0.3-0.3l0,0h1.9c0.1,0,0.2,0.1,0.3,0.2L106,11c0,0.2,0.2,0.2,0.4,0.2c0,0,0.1,0,0.1-0.1
		C108.1,9.6,110,8.9,112.4,8.9z M108,22.1c1.1,1.1,2.4,1.6,4.1,1.6c1.7,0,3-0.5,4.1-1.6c1.1-1.1,1.6-2.5,1.6-4.1s-0.5-3-1.6-4.1
		c-1.1-1.1-2.4-1.6-4.1-1.6c-1,0-2,0.2-2.9,0.7c-0.9,0.5-1.6,1.2-2.1,2c-0.5,0.9-0.7,1.9-0.7,2.9C106.4,19.6,106.9,21,108,22.1z"/>
</g>
</svg>
