<?xml version="1.0" encoding="utf-8"?>
<!-- Generator: Adobe Illustrator 27.1.1, SVG Export Plug-In . SVG Version: 6.00 Build 0)  -->
<svg version="1.1" id="Layer_1" xmlns="http://www.w3.org/2000/svg" xmlns:xlink="http://www.w3.org/1999/xlink" x="0px" y="0px"
	 viewBox="0 0 154 36" style="enable-background:new 0 0 154 36;" xml:space="preserve">
<style type="text/css">
	.st0{fill:#B4B7C9;}
	.st1{fill-rule:evenodd;clip-rule:evenodd;fill:#B4B7C9;}
</style>
<g id="Horizontal_En">
	<path class="st0" d="M61.6,26.2c0.2,0,0.5,0,0.7,0.2c0.2,0.1,0.2,0.3,0.2,0.5c0,0.2-0.1,0.4-0.2,0.5c-0.1,0.1-0.3,0.2-0.5,0.3l0,0
		c0.1,0,0.2,0.1,0.3,0.2c0.1,0.1,0.1,0.2,0.1,0.4c0,0.3-0.1,0.5-0.3,0.7c-0.2,0.2-0.5,0.3-0.9,0.3h-1l0.6-3L61.6,26.2z M60.7,28.8
		h0.5c0.2,0,0.3,0,0.5-0.1c0.1-0.1,0.2-0.2,0.2-0.4c0-0.1,0-0.2-0.1-0.3c-0.1-0.1-0.2-0.1-0.4-0.1h-0.4L60.7,28.8z M61,27.4h0.4
		c0.2,0,0.3,0,0.4-0.1c0.1-0.1,0.2-0.2,0.2-0.4c0-0.2-0.1-0.4-0.5-0.4h-0.4L61,27.4z"/>
	<path class="st0" d="M62.7,26.9h0.5l0.1,1.1c0,0.1,0,0.2,0,0.4c0,0.2,0,0.3,0,0.4l0,0c0.1-0.3,0.2-0.5,0.3-0.6l0.6-1.2h0.5
		l-1.4,2.6c-0.1,0.2-0.2,0.4-0.4,0.5c-0.1,0.1-0.3,0.2-0.5,0.2c-0.1,0-0.2,0-0.3,0v-0.4c0.1,0,0.2,0,0.3,0c0.1,0,0.2,0,0.3-0.1
		c0.1-0.1,0.2-0.2,0.3-0.3l0.1-0.2L62.7,26.9z"/>
	<path class="st0" d="M67,29.2l-0.2-2.5l0,0c0,0.2-0.1,0.5-0.1,0.7l-0.4,1.8h-0.4l0.6-3h0.7l0.2,2.3l0,0l1.2-2.3h0.7l-0.6,3h-0.5
		l0.4-1.8c0.1-0.3,0.1-0.5,0.2-0.7l0,0l-1.3,2.5H67z"/>
	<path class="st0" d="M70,29.2c-0.2,0-0.3-0.1-0.4-0.2c-0.1-0.2-0.2-0.4-0.2-0.6c0-0.3,0-0.5,0.1-0.8c0.1-0.2,0.2-0.4,0.4-0.6
		c0.2-0.1,0.3-0.2,0.5-0.2c0.1,0,0.2,0,0.3,0.1c0.1,0.1,0.2,0.2,0.2,0.3h0l0.1-0.3h0.4l-0.5,2.3h-0.4l0-0.4l0,0
		C70.6,29.1,70.3,29.2,70,29.2z M70.2,28.8c0.1,0,0.2-0.1,0.3-0.2c0.1-0.1,0.2-0.3,0.3-0.4c0.1-0.2,0.1-0.4,0.1-0.6
		c0-0.1,0-0.2-0.1-0.3c-0.1-0.1-0.2-0.1-0.2-0.1c-0.1,0-0.2,0.1-0.3,0.2c-0.1,0.1-0.2,0.3-0.2,0.4c-0.1,0.2-0.1,0.4-0.1,0.6
		c0,0.1,0,0.2,0.1,0.3C70.1,28.8,70.1,28.8,70.2,28.8z"/>
	<path class="st0" d="M73.2,28.5c0,0.2-0.1,0.4-0.2,0.5c-0.2,0.1-0.4,0.2-0.7,0.2c-0.2,0-0.5,0-0.7-0.1v-0.4
		c0.2,0.1,0.4,0.2,0.6,0.2c0.1,0,0.2,0,0.3-0.1c0.1,0,0.1-0.1,0.1-0.2c0-0.1,0-0.1-0.1-0.2c-0.1-0.1-0.2-0.1-0.3-0.2
		c-0.1-0.1-0.3-0.2-0.4-0.3c-0.1-0.1-0.1-0.2-0.1-0.3c0-0.2,0.1-0.4,0.2-0.5c0.2-0.1,0.4-0.2,0.6-0.2c0.2,0,0.5,0.1,0.7,0.2
		l-0.2,0.4c-0.2-0.1-0.4-0.1-0.5-0.2c-0.1,0-0.2,0-0.2,0.1c-0.1,0-0.1,0.1-0.1,0.2c0,0.1,0,0.1,0.1,0.2c0.1,0.1,0.2,0.1,0.3,0.2
		c0.1,0.1,0.2,0.1,0.3,0.2c0.1,0.1,0.1,0.1,0.1,0.2C73.2,28.3,73.2,28.4,73.2,28.5z"/>
	<path class="st0" d="M75,29.2l0.3-1.4c0-0.1,0-0.2,0-0.3c0-0.1-0.1-0.3-0.2-0.3c0,0,0,0-0.1,0c-0.2,0-0.3,0.1-0.4,0.3
		c-0.1,0.2-0.2,0.4-0.3,0.7l-0.2,1h-0.5l0.7-3.2h0.5l-0.1,0.5c0,0.2-0.1,0.4-0.1,0.6l0,0.2l0,0c0.1-0.1,0.2-0.2,0.3-0.3
		c0.1-0.1,0.2-0.1,0.4-0.1c0.2,0,0.3,0,0.4,0.2c0.1,0.1,0.2,0.3,0.1,0.4c0,0.1,0,0.2,0,0.4l-0.3,1.3L75,29.2z"/>
	<path class="st0" d="M76.8,29.2c-0.2,0-0.3-0.1-0.5-0.2c-0.1-0.2-0.2-0.4-0.2-0.6c0-0.3,0-0.5,0.1-0.8c0.1-0.2,0.2-0.4,0.4-0.6
		c0.2-0.1,0.3-0.2,0.5-0.2c0.2,0,0.5,0.1,0.6,0.4h0l0.1-0.3h0.4l-0.5,2.3h-0.4l0-0.4l0,0C77.4,29.1,77.1,29.2,76.8,29.2z M77,28.8
		c0.1,0,0.2-0.1,0.3-0.2c0.1-0.1,0.2-0.3,0.3-0.4c0.1-0.2,0.1-0.4,0.1-0.6c0-0.1,0-0.2-0.1-0.3c-0.1-0.1-0.2-0.1-0.3-0.1
		c-0.1,0-0.2,0.1-0.3,0.2c-0.1,0.1-0.2,0.3-0.2,0.4c-0.1,0.2-0.1,0.4-0.1,0.6c0,0.1,0,0.2,0.1,0.3C76.8,28.8,76.9,28.8,77,28.8z"/>
	<path class="st0" d="M79.8,29.2l0.3-1.4c0-0.1,0-0.2,0-0.3c0-0.2-0.1-0.3-0.3-0.3c-0.2,0-0.3,0.1-0.4,0.3c-0.1,0.2-0.2,0.4-0.3,0.7
		l-0.2,1h-0.5l0.7-3.2h0.5l-0.1,0.5c0,0.2-0.1,0.4-0.1,0.6l0,0.2l0,0c0.1-0.1,0.2-0.2,0.3-0.3c0.1-0.1,0.2-0.1,0.4-0.1
		c0.2,0,0.3,0,0.4,0.2c0.1,0.1,0.2,0.3,0.1,0.4c0,0.1,0,0.2,0,0.4l-0.3,1.3L79.8,29.2z"/>
	<path class="st0" d="M81.9,29.2c-0.4,0-0.8-0.3-0.9-0.7c0-0.1,0-0.1,0-0.2c0-0.3,0.1-0.5,0.2-0.8c0.1-0.2,0.2-0.4,0.4-0.5
		c0.2-0.1,0.4-0.2,0.6-0.2c0.2,0,0.4,0,0.5,0.1c0.1,0.1,0.2,0.3,0.2,0.4c0,0.2-0.1,0.5-0.3,0.6c-0.3,0.2-0.6,0.2-1,0.2h-0.1v0.1
		c0,0.1,0,0.3,0.1,0.4c0.1,0.1,0.2,0.1,0.3,0.1c0.1,0,0.2,0,0.3,0c0.1,0,0.2-0.1,0.3-0.1v0.4c-0.1,0.1-0.2,0.1-0.4,0.1
		C82.2,29.2,82,29.2,81.9,29.2z M82.2,27.2c-0.1,0-0.3,0.1-0.4,0.2c-0.1,0.1-0.2,0.3-0.2,0.5h0.1c0.2,0,0.4,0,0.6-0.1
		c0.1,0,0.2-0.2,0.2-0.3c0-0.1,0-0.1-0.1-0.2C82.4,27.3,82.3,27.2,82.2,27.2L82.2,27.2z"/>
	<path class="st0" d="M84.1,29.2c-0.4,0-0.8-0.3-0.9-0.7c0-0.1,0-0.1,0-0.2c0-0.3,0.1-0.5,0.2-0.8c0.1-0.2,0.2-0.4,0.4-0.5
		c0.2-0.1,0.4-0.2,0.6-0.2c0.2,0,0.4,0,0.5,0.1c0.1,0.1,0.2,0.3,0.2,0.4c0,0.2-0.1,0.5-0.3,0.6c-0.3,0.2-0.6,0.2-1,0.2h-0.1v0.1v0.1
		c0,0.1,0,0.3,0.1,0.4c0.1,0.1,0.2,0.1,0.3,0.1c0.1,0,0.2,0,0.3,0c0.1,0,0.2-0.1,0.3-0.1v0.4c-0.1,0.1-0.2,0.1-0.4,0.1
		C84.3,29.2,84.2,29.2,84.1,29.2z M84.4,27.2c-0.1,0-0.3,0.1-0.4,0.2c-0.1,0.1-0.2,0.3-0.2,0.5h0.1c0.2,0,0.4,0,0.6-0.1
		c0.1,0,0.2-0.2,0.2-0.3c0-0.1,0-0.1-0.1-0.2C84.5,27.3,84.5,27.2,84.4,27.2L84.4,27.2z"/>
	<path class="st0" d="M86.9,26.9c0.1,0,0.1,0,0.2,0L87,27.4c-0.1,0-0.1,0-0.2,0c-0.2,0-0.3,0.1-0.5,0.2c-0.1,0.2-0.2,0.4-0.3,0.6
		l-0.2,1h-0.5l0.5-2.3h0.4l0,0.4h0c0.1-0.1,0.2-0.3,0.3-0.4C86.6,26.9,86.7,26.9,86.9,26.9z"/>
	<path class="st0" d="M90.7,29.2h-0.5l-0.1-1.7v-0.4v-0.2l0,0c-0.1,0.2-0.1,0.4-0.2,0.6l-0.8,1.7h-0.5l-0.1-3h0.5l0,1.7
		c0,0.2,0,0.4,0,0.7l0,0c0.1-0.3,0.2-0.5,0.3-0.7l0.8-1.7h0.5l0.1,1.7v0.3v0.4l0,0c0-0.1,0.1-0.3,0.1-0.4s0.1-0.3,0.1-0.3l0.7-1.7
		H92L90.7,29.2z"/>
	<path class="st0" d="M92.5,29.2c-0.2,0-0.3-0.1-0.5-0.2c-0.1-0.2-0.2-0.4-0.2-0.6c0-0.3,0-0.5,0.1-0.8c0.1-0.2,0.2-0.4,0.4-0.6
		c0.2-0.1,0.3-0.2,0.5-0.2c0.1,0,0.2,0,0.3,0.1c0.1,0.1,0.2,0.2,0.2,0.3h0l0.1-0.3H94l-0.5,2.3h-0.4l0-0.4l0,0
		C93.1,29.1,92.8,29.2,92.5,29.2z M92.7,28.8c0.1,0,0.2-0.1,0.3-0.2c0.1-0.1,0.2-0.3,0.3-0.4c0.1-0.2,0.1-0.4,0.1-0.6
		c0-0.1,0-0.2-0.1-0.3c-0.1-0.1-0.2-0.1-0.3-0.1c-0.1,0-0.2,0.1-0.3,0.2c-0.1,0.1-0.2,0.3-0.2,0.4c-0.1,0.2-0.1,0.4-0.1,0.6
		c0,0.1,0,0.2,0.1,0.3C92.5,28.8,92.6,28.8,92.7,28.8z"/>
	<path class="st0" d="M96.5,29.2l-0.2-2.5l0,0c0,0.2-0.1,0.5-0.1,0.7l-0.4,1.8h-0.4l0.6-3h0.7l0.2,2.3l0,0l1.2-2.3h0.7l-0.6,3h-0.5
		l0.4-1.8c0-0.3,0.1-0.5,0.2-0.7l0,0l-1.3,2.5H96.5z"/>
	<path class="st0" d="M99.6,29.2c-0.2,0-0.3-0.1-0.5-0.2c-0.1-0.2-0.2-0.4-0.2-0.6c0-0.3,0-0.5,0.1-0.8c0.1-0.2,0.2-0.4,0.4-0.6
		c0.2-0.1,0.3-0.2,0.5-0.2c0.2,0,0.5,0.1,0.6,0.4h0l0.1-0.3h0.4l-0.5,2.3h-0.4l0-0.4l0,0C100.1,29.1,99.9,29.2,99.6,29.2z
		 M99.8,28.8c0.1,0,0.2-0.1,0.3-0.2c0.1-0.1,0.2-0.3,0.3-0.4c0.1-0.2,0.1-0.4,0.1-0.6c0-0.1,0-0.2-0.1-0.3c-0.1-0.1-0.2-0.1-0.3-0.1
		c-0.1,0-0.2,0.1-0.3,0.2c-0.1,0.1-0.2,0.3-0.2,0.4c-0.1,0.2-0.1,0.4-0.1,0.6c0,0.1,0,0.2,0.1,0.3C99.6,28.8,99.7,28.8,99.8,28.8z"
		/>
	<path class="st0" d="M102.6,29.2l0.3-1.4c0-0.1,0-0.2,0-0.3c0-0.1-0.1-0.2-0.2-0.3c0,0,0,0-0.1,0c-0.1,0-0.2,0-0.3,0.1
		c-0.1,0.1-0.2,0.2-0.3,0.3c-0.1,0.2-0.1,0.3-0.2,0.5l-0.2,1h-0.5l0.5-2.3h0.4l0,0.4l0,0c0.1-0.1,0.2-0.3,0.4-0.4
		c0.1-0.1,0.3-0.1,0.4-0.1c0.2,0,0.3,0,0.4,0.2c0.1,0.1,0.2,0.3,0.2,0.4c0,0.1,0,0.2,0,0.4l-0.3,1.3L102.6,29.2z"/>
	<path class="st0" d="M104.5,29.2c-0.2,0-0.3-0.1-0.5-0.2c-0.1-0.2-0.2-0.4-0.2-0.6c0-0.3,0-0.5,0.1-0.8c0.1-0.2,0.2-0.4,0.4-0.6
		c0.2-0.1,0.3-0.2,0.5-0.2c0.1,0,0.2,0,0.3,0.1c0.1,0.1,0.2,0.2,0.2,0.3h0l0.1-0.3h0.4l-0.5,2.3h-0.4l0-0.4l0,0
		C105,29.1,104.8,29.2,104.5,29.2z M104.6,28.8c0.1,0,0.2-0.1,0.3-0.2c0.1-0.1,0.2-0.3,0.3-0.4c0.1-0.2,0.1-0.4,0.1-0.6
		c0-0.1,0-0.2-0.1-0.3c-0.1-0.1-0.2-0.1-0.3-0.1c-0.1,0-0.2,0.1-0.3,0.2c-0.1,0.1-0.2,0.3-0.2,0.4c-0.1,0.2-0.1,0.4-0.1,0.6
		c0,0.1,0,0.2,0.1,0.3C104.5,28.8,104.5,28.8,104.6,28.8z"/>
	<path class="st0" d="M107.6,28.5c0,0.2-0.1,0.4-0.2,0.5c-0.2,0.1-0.4,0.2-0.7,0.2c-0.2,0-0.5,0-0.7-0.1v-0.4
		c0.2,0.1,0.4,0.2,0.6,0.2c0.1,0,0.2,0,0.3-0.1c0.1,0,0.1-0.1,0.1-0.2c0-0.1,0-0.1-0.1-0.2c-0.1-0.1-0.2-0.1-0.3-0.2
		c-0.1-0.1-0.3-0.2-0.4-0.3c-0.1-0.1-0.1-0.2-0.1-0.3c0-0.2,0.1-0.4,0.2-0.5c0.2-0.1,0.4-0.2,0.6-0.2c0.2,0,0.5,0.1,0.7,0.2
		l-0.2,0.4c-0.2-0.1-0.3-0.1-0.5-0.2c-0.1,0-0.2,0-0.2,0.1c-0.1,0-0.1,0.1-0.1,0.2c0,0.1,0,0.1,0.1,0.2c0.1,0.1,0.2,0.1,0.3,0.2
		c0.1,0.1,0.2,0.1,0.3,0.2c0.1,0.1,0.1,0.1,0.1,0.2C107.6,28.3,107.7,28.4,107.6,28.5z"/>
	<path class="st0" d="M109.5,28.5c0,0.2-0.1,0.4-0.2,0.5c-0.2,0.1-0.4,0.2-0.7,0.2c-0.2,0-0.5,0-0.7-0.1v-0.4
		c0.2,0.1,0.4,0.2,0.6,0.2c0.1,0,0.2,0,0.3-0.1c0.1,0,0.1-0.1,0.1-0.2c0-0.1,0-0.1-0.1-0.2c-0.1-0.1-0.2-0.1-0.3-0.2
		c-0.1-0.1-0.3-0.2-0.4-0.3c-0.1-0.1-0.1-0.2-0.1-0.3c0-0.2,0.1-0.4,0.2-0.5c0.2-0.1,0.4-0.2,0.6-0.2c0.2,0,0.5,0.1,0.7,0.2
		l-0.2,0.4c-0.2-0.1-0.3-0.1-0.5-0.2c-0.1,0-0.2,0-0.2,0.1c-0.1,0-0.1,0.1-0.1,0.2c0,0.1,0,0.1,0.1,0.2c0.1,0.1,0.2,0.1,0.3,0.2
		c0.1,0.1,0.2,0.1,0.3,0.2c0.1,0.1,0.1,0.1,0.1,0.2C109.5,28.3,109.5,28.4,109.5,28.5z"/>
	<path class="st0" d="M110.6,29.2c-0.2,0-0.3-0.1-0.5-0.2c-0.1-0.2-0.2-0.4-0.2-0.6c0-0.3,0-0.5,0.1-0.8c0.1-0.2,0.2-0.4,0.4-0.6
		c0.2-0.1,0.3-0.2,0.5-0.2c0.1,0,0.2,0,0.3,0.1c0.1,0.1,0.2,0.2,0.2,0.3h0l0.1-0.3h0.4l-0.5,2.3h-0.4l0-0.4l0,0
		C111.2,29.1,110.9,29.2,110.6,29.2z M110.8,28.8c0.1,0,0.2-0.1,0.3-0.2c0.1-0.1,0.2-0.3,0.3-0.4c0.1-0.2,0.1-0.4,0.1-0.6
		c0-0.1,0-0.2-0.1-0.3c-0.1-0.1-0.2-0.1-0.3-0.1c-0.1,0-0.2,0.1-0.3,0.2c-0.1,0.1-0.2,0.3-0.2,0.4c-0.1,0.2-0.1,0.4-0.1,0.6
		c0,0.1,0,0.2,0.1,0.3C110.6,28.8,110.7,28.8,110.8,28.8L110.8,28.8z"/>
	<path class="st0" d="M113.2,28.8c0.1,0,0.2,0,0.3-0.1v0.4c-0.1,0-0.1,0-0.2,0.1c-0.1,0-0.2,0-0.2,0c-0.4,0-0.6-0.2-0.6-0.5
		c0-0.1,0-0.2,0-0.3l0.2-1.2h-0.3l0-0.2l0.4-0.2l0.3-0.5h0.3l-0.1,0.5h0.6l-0.1,0.4h-0.6l-0.2,1.2c0,0.1,0,0.1,0,0.2
		c0,0.1,0,0.1,0,0.1C113.1,28.8,113.1,28.8,113.2,28.8z"/>
	<path class="st0" d="M115.9,29.2h-0.5l0.5-2.6h-0.8l0.1-0.4h2l-0.1,0.4h-0.8L115.9,29.2z"/>
	<path class="st0" d="M118.1,29.2c-0.4,0-0.8-0.3-0.9-0.7c0-0.1,0-0.1,0-0.2c0-0.3,0.1-0.5,0.2-0.8c0.1-0.2,0.2-0.4,0.4-0.5
		c0.2-0.1,0.4-0.2,0.6-0.2c0.2,0,0.4,0,0.5,0.1c0.1,0.1,0.2,0.3,0.2,0.4c0,0.2-0.1,0.5-0.3,0.6c-0.3,0.2-0.6,0.2-1,0.2h-0.1v0.1
		c0,0.1,0,0.3,0.1,0.4c0.1,0.1,0.2,0.1,0.3,0.1c0.1,0,0.2,0,0.3,0c0.1,0,0.2-0.1,0.3-0.1V29c-0.1,0.1-0.2,0.1-0.4,0.1
		C118.3,29.2,118.2,29.2,118.1,29.2z M118.4,27.2c-0.1,0-0.3,0.1-0.4,0.2c-0.1,0.1-0.2,0.3-0.2,0.5h0.1c0.2,0,0.4,0,0.6-0.1
		c0.1,0,0.2-0.2,0.2-0.3c0-0.1,0-0.1-0.1-0.2C118.5,27.3,118.4,27.2,118.4,27.2L118.4,27.2z"/>
	<path class="st0" d="M120.2,29.2c-0.2,0-0.5-0.1-0.6-0.2c-0.2-0.2-0.2-0.4-0.2-0.6c0-0.3,0-0.5,0.1-0.8c0.1-0.2,0.2-0.4,0.4-0.5
		c0.2-0.1,0.4-0.2,0.6-0.2c0.2,0,0.4,0,0.6,0.1l-0.1,0.4c-0.1-0.1-0.3-0.1-0.4-0.1c-0.2,0-0.4,0.1-0.5,0.3c-0.1,0.2-0.2,0.5-0.2,0.8
		c0,0.1,0,0.2,0.1,0.3c0.1,0.1,0.2,0.1,0.3,0.1c0.1,0,0.2,0,0.3,0c0.1,0,0.2-0.1,0.3-0.1v0.4C120.7,29.2,120.4,29.2,120.2,29.2z"/>
	<path class="st0" d="M122.6,29.2l0.3-1.4c0-0.1,0-0.2,0-0.3c0-0.2-0.1-0.3-0.3-0.3c-0.2,0-0.3,0.1-0.4,0.3
		c-0.1,0.2-0.2,0.4-0.3,0.7l-0.2,1h-0.5l0.7-3.2h0.5l-0.1,0.5c0,0.2-0.1,0.4-0.1,0.6l0,0.2h0c0.1-0.1,0.2-0.2,0.3-0.3
		c0.1-0.1,0.2-0.1,0.4-0.1c0.2,0,0.3,0,0.4,0.2c0.1,0.1,0.2,0.3,0.1,0.4c0,0.1,0,0.2,0,0.4l-0.3,1.3L122.6,29.2z"/>
	<path class="st0" d="M123.7,29c0-0.1,0-0.2,0.1-0.3c0.1-0.1,0.2-0.1,0.3-0.1c0.1,0,0.1,0,0.2,0.1c0,0.1,0.1,0.1,0.1,0.2
		c0,0.1,0,0.2-0.1,0.3c-0.1,0.1-0.2,0.1-0.3,0.1c-0.1,0-0.1,0-0.2-0.1C123.7,29.1,123.7,29.1,123.7,29z"/>
	<path class="st0" d="M127.7,26.6c-0.2,0-0.4,0.1-0.6,0.2c-0.2,0.1-0.3,0.3-0.4,0.5c-0.1,0.2-0.1,0.5-0.1,0.8c0,0.2,0,0.4,0.2,0.6
		c0.1,0.1,0.3,0.2,0.5,0.2c0.2,0,0.5-0.1,0.7-0.1v0.4c-0.2,0.1-0.5,0.1-0.8,0.1c-0.3,0-0.6-0.1-0.8-0.3c-0.2-0.2-0.3-0.5-0.3-0.9
		c0-0.3,0.1-0.7,0.2-1c0.1-0.3,0.3-0.5,0.6-0.7c0.2-0.2,0.5-0.2,0.8-0.2c0.3,0,0.5,0.1,0.8,0.2l-0.2,0.4c-0.1,0-0.2-0.1-0.3-0.1
		C127.9,26.6,127.8,26.6,127.7,26.6z"/>
	<path class="st0" d="M130.5,27.8c0,0.3,0,0.5-0.1,0.8c-0.1,0.2-0.2,0.4-0.4,0.5c-0.2,0.1-0.4,0.2-0.6,0.2c-0.2,0-0.5-0.1-0.6-0.2
		c-0.2-0.2-0.3-0.4-0.2-0.6c0-0.3,0-0.5,0.1-0.7c0.1-0.2,0.2-0.4,0.4-0.5c0.2-0.1,0.4-0.2,0.6-0.2c0.2,0,0.5,0.1,0.6,0.2
		C130.4,27.3,130.5,27.5,130.5,27.8z M130,27.8c0-0.1,0-0.2-0.1-0.3c-0.1-0.1-0.2-0.1-0.3-0.1c-0.1,0-0.2,0.1-0.3,0.1
		c-0.1,0.1-0.2,0.2-0.2,0.4c-0.1,0.2-0.1,0.4-0.1,0.5c0,0.1,0,0.2,0.1,0.3c0.1,0.1,0.2,0.1,0.3,0.1c0.1,0,0.2-0.1,0.3-0.1
		c0.1-0.1,0.2-0.2,0.2-0.4C130,28.1,130,27.9,130,27.8z"/>
	<path class="st0" d="M130.8,29c0-0.1,0-0.2,0.1-0.3c0.1-0.1,0.2-0.1,0.3-0.1c0.1,0,0.1,0,0.2,0.1c0,0.1,0.1,0.1,0.1,0.2
		c0,0.1,0,0.2-0.1,0.3c-0.1,0.1-0.2,0.1-0.3,0.1c-0.1,0-0.1,0-0.2-0.1C130.8,29.1,130.8,29.1,130.8,29z"/>
	<path class="st0" d="M62.1,14.3v2.7h3.4c0.3,0,0.5,0.1,0.7,0.3c0.2,0.2,0.3,0.4,0.3,0.7c0,0.2-0.1,0.5-0.3,0.6
		c-0.2,0.2-0.4,0.3-0.7,0.3h-3.4v3.6c0,0.3-0.1,0.5-0.3,0.7c-0.2,0.2-0.4,0.3-0.7,0.3c-0.3,0-0.5-0.1-0.7-0.3
		c-0.2-0.2-0.3-0.4-0.3-0.7v-9c0-0.5,0.4-0.9,0.9-1c0,0,0,0,0,0h5.1c0.3,0,0.5,0.1,0.7,0.3c0.2,0.2,0.3,0.4,0.3,0.7
		c0,0.2-0.1,0.5-0.3,0.6c-0.2,0.2-0.4,0.3-0.7,0.3L62.1,14.3z"/>
	<path class="st0" d="M77.2,21.9c0.2,0.2,0.3,0.4,0.3,0.7c0,0.2-0.1,0.5-0.3,0.6c-0.2,0.2-0.4,0.3-0.7,0.3h-5.1
		c-0.5,0-0.9-0.4-1-0.9c0,0,0,0,0,0v-9c0-0.3,0.1-0.5,0.3-0.7c0.2-0.2,0.5-0.3,0.7-0.3c0.2,0,0.5,0.1,0.7,0.3
		c0.2,0.2,0.3,0.4,0.3,0.7v8.2h4.1C76.7,21.6,77,21.7,77.2,21.9z"/>
	<path class="st0" d="M82.5,23.2c-0.2,0.2-0.4,0.3-0.7,0.3c-0.3,0-0.5-0.1-0.7-0.3c-0.2-0.2-0.3-0.4-0.3-0.7v-9
		c0-0.3,0.1-0.5,0.3-0.7c0.2-0.2,0.5-0.3,0.7-0.3c0.2,0,0.5,0.1,0.7,0.3c0.2,0.2,0.3,0.4,0.3,0.7v9C82.8,22.8,82.7,23,82.5,23.2z"/>
	<path class="st0" d="M93.8,13.9c0,0.2-0.1,0.5-0.2,0.6c-0.1,0.2-0.4,0.3-0.6,0.3c-0.2,0-0.4-0.1-0.5-0.1c-0.5-0.2-1.1-0.4-1.7-0.4
		c-0.7,0-1.3,0.1-1.9,0.5c-0.5,0.3-1,0.8-1.3,1.3c-0.3,0.6-0.4,1.3-0.4,1.9c0,1.2,0.3,2.2,1,2.8c1.2,1,2.8,1.2,4.3,0.6
		c0.2-0.1,0.3-0.1,0.5-0.1c0.3,0,0.5,0.1,0.7,0.3c0.1,0.2,0.2,0.4,0.2,0.6c0,0.2,0,0.3-0.1,0.5c-0.1,0.1-0.2,0.2-0.4,0.3
		c-0.8,0.4-1.7,0.6-2.6,0.6c-1,0-1.9-0.2-2.8-0.7c-0.9-0.4-1.6-1.1-2-1.9c-0.5-0.9-0.8-2-0.8-3.1c0-1,0.2-2,0.7-2.9
		c0.5-0.8,1.2-1.5,2-2c0.9-0.5,1.9-0.7,2.9-0.7c0.9,0,1.8,0.2,2.6,0.6C93.6,13.2,93.8,13.5,93.8,13.9z"/>
	<path class="st0" d="M105.9,22.3c0.1,0.1,0.1,0.3,0.1,0.4c0,0.2-0.1,0.4-0.2,0.5c-0.2,0.2-0.5,0.3-0.7,0.3c-0.2,0-0.5-0.1-0.7-0.2
		c-0.7-0.4-1.1-1.3-1.1-2.6c0-0.3-0.1-0.7-0.4-0.9c-0.3-0.2-0.7-0.4-1.1-0.3H99v3c0,0.2-0.1,0.5-0.2,0.7c-0.1,0.2-0.4,0.3-0.6,0.3
		c-0.3,0-0.6-0.1-0.8-0.3C97.1,23,97,22.8,97,22.5v-9c0-0.5,0.4-0.9,0.9-1c0,0,0,0,0,0h4.5c0.5,0,1.1,0.1,1.5,0.4
		c0.5,0.3,0.9,0.7,1.1,1.2c0.3,0.5,0.4,1.1,0.4,1.7c0,0.5-0.1,1.1-0.4,1.5c-0.3,0.5-0.6,0.9-1.1,1.2c0.6,0.4,1,1.1,1.1,1.8
		c0,0.2,0,0.3,0,0.5c0,0.2,0.1,0.5,0.1,0.7c0,0.1,0.1,0.3,0.3,0.3C105.7,22,105.8,22.1,105.9,22.3z M102.9,17.6
		c0.2-0.2,0.3-0.4,0.4-0.7c0.1-0.3,0.2-0.6,0.2-1c0-0.3-0.1-0.6-0.2-0.8c-0.1-0.2-0.2-0.4-0.4-0.6c-0.2-0.1-0.3-0.2-0.5-0.2H99v3.5
		h3.4C102.6,17.9,102.8,17.8,102.9,17.6z"/>
	<path class="st0" d="M118.5,20.8c-0.4,0.8-1.1,1.5-1.9,2c-1.7,1-3.8,1-5.5,0c-0.8-0.5-1.4-1.2-1.9-2c-0.9-1.8-0.9-3.9,0-5.7
		c0.4-0.8,1.1-1.5,1.9-2c1.7-1,3.8-1,5.5,0c0.8,0.5,1.5,1.2,1.9,2C119.5,16.9,119.5,19.1,118.5,20.8L118.5,20.8z M116.8,16.1
		c-0.3-0.6-0.7-1-1.2-1.4c-1-0.7-2.4-0.7-3.4,0c-0.5,0.3-0.9,0.8-1.2,1.3c-0.6,1.2-0.6,2.6,0,3.8c0.3,0.5,0.7,1,1.2,1.4
		c1,0.7,2.4,0.7,3.4,0c0.5-0.3,0.9-0.8,1.2-1.4C117.3,18.7,117.3,17.3,116.8,16.1L116.8,16.1z"/>
	<path class="st0" d="M131.2,12.8c0.2,0.2,0.2,0.4,0.2,0.6v9.1c0,0.5-0.4,0.9-0.9,1c0,0,0,0,0,0c-0.1,0-0.3,0-0.4-0.1
		c-0.1,0-0.2-0.1-0.3-0.2l-5.7-7.3v6.7c0,0.2-0.1,0.5-0.2,0.6c-0.2,0.2-0.4,0.3-0.6,0.3c-0.2,0-0.5-0.1-0.6-0.3
		c-0.2-0.2-0.2-0.4-0.2-0.6v-9.1c0-0.5,0.4-0.9,0.9-1c0,0,0,0,0.1,0c0.2,0,0.3,0,0.5,0.1c0.1,0.1,0.2,0.1,0.3,0.2l5.7,7.3v-6.7
		c0-0.2,0.1-0.5,0.2-0.6c0.2-0.2,0.4-0.3,0.6-0.2C130.8,12.5,131,12.6,131.2,12.8z"/>
	<path class="st1" d="M48.2,28.6c5.9-5.9,5.8-15.4,0-21.2S32.8,1.5,27,7.4c-2.7,2.7-4.2,6.3-4.4,10.1l0,0V30c-0.1,1.6,0.7,3.2,3.3,3
		h11.2c0.3,0,0.6,0,0.9,0h0C41.9,32.9,45.5,31.3,48.2,28.6L48.2,28.6z M39.1,18.9c0.3-0.3,0.4-0.7,0.5-1.1h6.2c0,0.1,0,0.2,0.2,0.4
		c0.4,0.3,0.9,0.3,1.2,0c0.3-0.3,0.3-0.9,0-1.2c-0.4-0.3-0.9-0.3-1.2,0c-0.1,0.1-0.2,0.3-0.2,0.4h-6.2c0-0.4-0.2-0.8-0.4-1.1
		l3.6-3.6c0.7,0.5,1.6,0.4,2.2-0.2s0.4-1.6-0.2-2.2C44,9.9,43,10,42.5,10.7c-0.4,0.6-0.5,1.3,0,1.9l-3.6,3.6c-0.3-0.2-0.6-0.4-1-0.4
		V9.4c0.2,0,0.2,0,0.4-0.2c0.3-0.4,0.3-0.9,0-1.2c-0.3-0.3-0.9-0.3-1.2,0c0,0,0,0,0,0c-0.3,0.4-0.3,0.9,0,1.2
		c0.2,0.2,0.3,0.2,0.4,0.2v6.3c-0.4,0-0.8,0.2-1.1,0.5l-3.5-3.5c0.6-0.7,0.5-1.7-0.2-2.3C32,9.8,31,9.9,30.4,10.6
		c-0.6,0.7-0.5,1.7,0.2,2.3c0.6,0.5,1.4,0.5,2,0.1l3.5,3.5c-0.2,0.3-0.4,0.7-0.4,1h-6.1c0-0.2-0.1-0.3-0.2-0.4
		c-0.4-0.3-0.9-0.3-1.2,0c-0.3,0.3-0.3,0.9,0,1.2c0,0,0,0,0,0c0.4,0.3,0.9,0.3,1.2,0c0.2-0.2,0.2-0.3,0.2-0.4h6.1
		c0,0.4,0.2,0.7,0.4,1L33,22c-0.9-0.8-2.3-0.6-3,0.3s-0.6,2.3,0.3,3c0.9,0.8,2.3,0.6,3-0.3c0.7-0.8,0.7-2,0-2.7l3.1-3.1
		c0.3,0.3,0.7,0.4,1.1,0.4v6.3c-0.2,0-0.3,0.1-0.4,0.2c-0.3,0.4-0.3,0.9,0,1.2c0.3,0.3,0.9,0.3,1.2,0c0,0,0,0,0,0
		c0.3-0.4,0.3-0.9,0-1.2c-0.2-0.2-0.3-0.2-0.4-0.2v-6.3c0.4,0,0.7-0.2,1-0.4l2.6,2.6c-1,1.2-0.9,3,0.3,4c1.2,1,3,0.9,4-0.3
		s0.9-3-0.3-4c-1.1-0.9-2.7-0.9-3.7,0.1L39.1,18.9L39.1,18.9z"/>
</g>
</svg>
