<?xml version="1.0" encoding="utf-8"?>
<!-- Generator: Adobe Illustrator 27.1.1, SVG Export Plug-In . SVG Version: 6.00 Build 0)  -->
<svg version="1.1" id="Layer_1" xmlns="http://www.w3.org/2000/svg" xmlns:xlink="http://www.w3.org/1999/xlink" x="0px" y="0px"
	 viewBox="0 0 154 36" style="enable-background:new 0 0 154 36;" xml:space="preserve">
<style type="text/css">
	.st0{fill:#B4B7C9;}
	.st1{fill-rule:evenodd;clip-rule:evenodd;fill:#B4B7C9;}
</style>
<g>
	<path class="st0" d="M31,18.7c-0.8-0.7-1.8-1.1-2.9-1.2v-0.2c0.9-0.1,1.7-0.4,2.3-1c0.6-0.6,1-1.4,1.3-2.2c0.3-0.9,0.4-1.8,0.4-2.7
		c0-1.1-0.1-2.1-0.4-3.2c-0.3-0.9-0.8-1.6-1.4-2.2c-0.9-0.7-1.9-1.1-2.9-1.3c-1.6-0.3-3.3-0.5-4.9-0.4c-1.6,0-3.3,0.1-4.9,0.4
		c-1.1,0.2-2.1,0.6-3,1.3c-0.7,0.6-1.2,1.3-1.5,2.2c-0.3,1-0.4,2.1-0.4,3.2c0,0.9,0.1,1.9,0.4,2.7c0.2,0.8,0.7,1.6,1.3,2.2
		c0.6,0.6,1.5,1,2.3,1v0.2c-1.1,0-2.1,0.4-2.9,1.2c-0.7,0.7-1.2,1.6-1.4,2.6c-0.3,1.1-0.4,2.2-0.4,3.3c-0.1,1.4,0.2,2.9,0.9,4.1
		c0.7,1.1,1.8,1.9,3.1,2.2c2.1,0.5,4.2,0.8,6.4,0.7c2.2,0.1,4.3-0.2,6.4-0.7c1.3-0.3,2.4-1.1,3.1-2.2c0.6-1.3,0.9-2.7,0.8-4.1
		c0-1.1-0.1-2.2-0.4-3.3C32.2,20.3,31.7,19.4,31,18.7z M19.4,10.2c0.2-0.4,0.5-0.8,1-1C21,9.1,21.7,9,22.4,9c0.7,0,1.4,0.1,2.1,0.3
		c0.4,0.2,0.8,0.5,1,1c0.2,0.7,0.3,1.3,0.2,2c0,0.6-0.1,1.2-0.2,1.8c-0.1,0.4-0.5,0.7-0.9,0.9c-0.7,0.2-1.4,0.3-2.1,0.2
		c-0.7,0-1.4-0.1-2.1-0.2c-0.5-0.1-0.8-0.4-1-0.9c-0.2-0.6-0.3-1.2-0.3-1.8C19.1,11.6,19.2,10.9,19.4,10.2L19.4,10.2z M25.7,25.2
		c-0.2,0.5-0.6,0.9-1,1c-0.7,0.2-1.5,0.3-2.3,0.3c-0.8,0-1.5-0.1-2.3-0.3c-0.5-0.1-0.9-0.5-1.1-1c-0.2-0.6-0.3-1.3-0.3-2
		c0-0.6,0-1.2,0.1-1.8c0.1-0.4,0.3-0.8,0.6-1.1c0.3-0.3,0.7-0.5,1.1-0.5c0.6-0.1,1.3-0.2,1.9-0.1c0.6,0,1.2,0,1.8,0.1
		c0.8,0.1,1.5,0.8,1.6,1.6C26,22,26,22.6,26,23.2C26,23.9,25.9,24.6,25.7,25.2L25.7,25.2z"/>
	<path class="st0" d="M56.7,20.6c-0.4-0.5-0.9-0.9-1.5-1.2c-0.5-0.2-1-0.4-1.5-0.5v-0.2c1.1-0.1,2.2-0.5,3.1-1.1
		c0.8-0.6,1.3-1.3,1.6-2.2c0.3-1,0.5-2,0.5-3c0-2.1-0.4-3.7-1.1-4.8c-0.8-1.2-2-2.1-3.4-2.4c-2-0.5-4-0.8-6-0.7c-1.7,0-3.1,0-4.3,0
		s-2.3,0-3.2,0.1c-1,0.1-2,0.1-3.2,0.3v26.3h7v-10l3.3,0c0.6,0,1.2,0.1,1.7,0.4c0.5,0.4,0.8,1,0.8,1.6l1.9,7.9h7.5L57.7,23
		C57.6,22.1,57.2,21.3,56.7,20.6z M51.4,14.8c-0.2,0.5-0.6,0.8-1.1,1c-0.7,0.2-1.4,0.3-2.1,0.3h-3.5V9.6h3.5c0.7,0,1.4,0.1,2.1,0.3
		c0.5,0.2,0.8,0.5,1.1,0.9c0.2,0.6,0.3,1.3,0.3,1.9C51.7,13.4,51.6,14.1,51.4,14.8L51.4,14.8z"/>
	<path class="st0" d="M78.9,12.6c-1.9-0.7-3.9-1.1-6-1c-2-0.1-4.1,0.3-6,1c-1.5,0.6-2.6,1.7-3.2,3.2c-0.7,1.9-1.1,3.9-1,5.9
		c-0.1,2,0.3,4,1,5.8c0.6,1.4,1.8,2.5,3.2,3.1c1.9,0.7,3.9,1,6,1c2,0.1,4.1-0.3,6-1c1.4-0.6,2.6-1.7,3.2-3.1c0.7-1.8,1.1-3.8,1-5.8
		c0.1-2-0.3-4-1-5.9C81.5,14.3,80.3,13.2,78.9,12.6z M75.6,24.9c-0.1,0.6-0.4,1.1-0.9,1.5c-0.6,0.3-1.2,0.4-1.8,0.4
		c-0.6,0-1.3-0.1-1.8-0.4c-0.5-0.4-0.8-0.9-0.9-1.5c-0.2-1.1-0.3-2.1-0.3-3.2c0-1.1,0.1-2.2,0.3-3.2c0.1-0.6,0.4-1.1,0.9-1.5
		c0.5-0.3,1.2-0.5,1.8-0.4c0.6,0,1.3,0.1,1.8,0.4c0.5,0.4,0.8,0.9,0.9,1.5c0.2,1.1,0.3,2.2,0.2,3.2C75.9,22.7,75.8,23.8,75.6,24.9
		L75.6,24.9z"/>
	<path class="st0" d="M96.2,26.2c-0.5,0-1.1-0.1-1.5-0.4c-0.4-0.3-0.6-0.8-0.5-1.2V4.4h-6.9v22c-0.1,1.5,0.5,2.9,1.6,3.9
		c1.3,1,2.8,1.4,4.4,1.3c0.5,0,1,0,1.7-0.1c0.7-0.1,1.3-0.2,1.9-0.3c0.5-0.1,1-0.2,1.4-0.5l-0.8-4.5L96.2,26.2z"/>
	<path class="st0" d="M118.8,22.1c1-0.8,1.5-2.1,1.4-3.8c0-2.2-0.7-3.8-2.2-5c-1.5-1.1-3.9-1.7-7.3-1.7c-2-0.1-4.1,0.3-6,1
		c-1.5,0.6-2.6,1.7-3.3,3.2c-0.8,1.9-1.1,3.9-1,5.9c-0.1,1.9,0.3,3.8,1,5.5c0.7,1.4,1.8,2.6,3.3,3.2c1.9,0.8,4,1.1,6.1,1.1
		c1,0,2.1-0.1,3.1-0.1c1-0.1,2-0.3,3-0.5c0.9-0.2,1.8-0.5,2.7-0.9l-0.6-4.2c-1.5,0.1-2.9,0.3-4.2,0.3c-1.3,0.1-2.4,0.1-3.2,0.1
		c-0.8,0-1.7-0.1-2.4-0.5c-0.6-0.3-1-0.9-1.2-1.6c-0.1-0.3-0.1-0.6-0.2-0.8h5.6C116.1,23.3,117.9,22.9,118.8,22.1z M111.6,19.9h-3.8
		c0-0.7,0.1-1.3,0.2-1.9c0.1-0.6,0.5-1.1,1-1.4c0.6-0.3,1.3-0.4,2-0.3c0.7-0.1,1.4,0.1,2,0.4c0.4,0.4,0.7,0.9,0.6,1.5
		c0.1,0.5-0.1,1-0.4,1.4C112.8,19.8,112.2,19.9,111.6,19.9z"/>
	<path class="st0" d="M140.8,21.7c-1-1-2.3-1.6-3.7-1.9l-4.7-1.1c-0.9-0.3-1.5-0.4-1.8-0.6c-0.3-0.1-0.5-0.4-0.5-0.8
		c0-0.2,0.1-0.5,0.2-0.6c0.3-0.1,0.6-0.2,0.9-0.2c0.5,0,1.1,0,2.1,0h3.6h3.8l0.5-4.1c-0.9-0.2-1.9-0.3-2.8-0.4
		c-1.1-0.1-2.2-0.2-3.3-0.3c-1.1-0.1-2.2-0.1-3.2-0.1c-1.7-0.1-3.4,0.2-5,0.6c-1.1,0.3-2,1-2.7,1.9c-0.6,0.9-0.8,2-0.8,3.1
		c0,0.9,0.1,1.8,0.4,2.6c0.3,0.8,0.8,1.5,1.4,1.9c0.9,0.7,1.9,1.1,3,1.4l4.5,1.2c1,0.3,1.6,0.4,2,0.6c0.4,0.1,0.6,0.4,0.6,0.8
		c0,0.3-0.1,0.5-0.3,0.7c-0.4,0.2-0.8,0.3-1.3,0.3c-0.6,0-1.6,0.1-2.8,0.1h-2.6c-0.9,0-1.7,0-2.4,0h-1.7l-0.4,4.2
		c1.8,0.3,3.6,0.5,5.5,0.6c1.7,0.1,3,0.1,3.8,0.1c1.7,0,3.5-0.1,5.1-0.5c1.2-0.2,2.2-0.9,2.9-1.8c0.7-1.1,1-2.4,0.9-3.7
		C142,23.8,141.6,22.6,140.8,21.7z"/>
</g>
</svg>
