<?xml version="1.0" encoding="utf-8"?>
<!-- Generator: Adobe Illustrator 27.1.1, SVG Export Plug-In . SVG Version: 6.00 Build 0)  -->
<svg version="1.1" id="Layer_1" xmlns="http://www.w3.org/2000/svg" xmlns:xlink="http://www.w3.org/1999/xlink" x="0px" y="0px"
	 viewBox="0 0 154 36" style="enable-background:new 0 0 154 36;" xml:space="preserve">
<style type="text/css">
	.st0{fill:#B4B7C9;}
	.st1{fill-rule:evenodd;clip-rule:evenodd;fill:#B4B7C9;}
</style>
<g>
	<g>
		<path class="st0" d="M133.6,33.3c-4.3,3.6-9.8-2.6-5.9-6.6l6.1-6.2c1.5-1.5,2.2-3.5,2.2-5.4s-0.7-3.9-2.2-5.4c-3-3-7.8-3-10.8,0
			l-6.2,6.2c-4,4-10.2-1.6-6.7-5.9c0.6-0.7,1.4-1.3,2.4-1.5l9-2.4l6.6-1.8c2.9-0.8,5.6-0.1,7.7,1.5c0.3,0.2,0.5,0.4,0.8,0.7l0,0
			c0.1,0.1,0.2,0.2,0.2,0.2l0,0c0.1,0.1,0.2,0.2,0.2,0.2l0,0c0.2,0.3,0.5,0.5,0.7,0.8c1.5,2.1,2.2,4.9,1.5,7.7l-1.8,6.6l-2.4,8.8
			C134.9,31.9,134.4,32.7,133.6,33.3L133.6,33.3z"/>
		<path class="st0" d="M137,22.7c-2.3,2.3-5.4,3.5-8.5,3.3l5.4-5.4c1.5-1.5,2.2-3.5,2.2-5.4s-0.7-3.9-2.2-5.4c-3-3-7.8-3-10.8,0
			l-5.4,5.4c-0.1-3.1,1-6.2,3.3-8.5c0.2-0.2,0.4-0.4,0.6-0.6l6.6-1.8c2.9-0.8,5.6-0.1,7.7,1.5c0.3,0.2,0.5,0.4,0.8,0.7l0,0
			c0.1,0.1,0.2,0.2,0.2,0.2l0,0c0.1,0.1,0.2,0.2,0.2,0.2l0,0c0.2,0.3,0.5,0.5,0.7,0.8c1.5,2.1,2.2,4.9,1.5,7.7l-1.8,6.6
			C137.4,22.3,137.2,22.5,137,22.7L137,22.7z"/>
		<path class="st0" d="M140.7,10.4c0.1-2-0.6-4-2.1-5.5c-0.4-0.4-0.8-0.7-1.2-1c-1.3-0.8-2.8-1.2-4.2-1.1l5.4-1.2
			c1.7-0.4,3.2,0.8,3.4,2.4c0,0.3,0,0.7,0,1L140.7,10.4L140.7,10.4z"/>
		<path class="st0" d="M131.8,18.5l-6,6c-0.5,0.5-1.1,0.9-1.7,1.1c-1.7,0.6-3.6,0.3-5-1.1c-0.9-0.9-1.4-2.1-1.4-3.4
			c0-1.2,0.5-2.4,1.4-3.4l6-6c1.8-1.9,4.8-1.9,6.7,0c0.1,0.1,0.2,0.2,0.2,0.2C133.6,13.9,133.6,16.7,131.8,18.5L131.8,18.5z"/>
		<path class="st0" d="M137,17.5l-3.1,3.1c1.5-1.5,2.2-3.5,2.2-5.4s-0.7-3.9-2.2-5.4c-3-3-7.8-3-10.8,0l3.1-3.1
			c2.6-2.7,6.8-3,9.7-0.9c0.4,0.3,0.7,0.6,1.1,0.9c0.3,0.3,0.6,0.7,0.9,1.1C139.9,10.7,139.6,14.8,137,17.5L137,17.5z"/>
		<path class="st0" d="M131.8,18.5l-6,6c-0.5,0.5-1.1,0.9-1.7,1.1c-2.4-3.4-2.1-8.1,0.9-11.1c1.9-1.9,4.5-2.8,7-2.5
			C133.6,13.9,133.6,16.7,131.8,18.5z"/>
		<path class="st0" d="M140.7,10.4c0.1-2-0.6-4-2.1-5.5c-0.4-0.4-0.8-0.7-1.2-1c1.4-0.7,3.1-0.7,4.6,0.1c0,0.3,0,0.7,0,1L140.7,10.4
			L140.7,10.4z"/>
	</g>
	<g>
		<path class="st0" d="M65.3,13.9c-0.9-0.6-2-1-3.2-1.1l4.4-5h-3.1l-5,5.5v2.9c0.9-0.3,1.8-0.5,2.6-0.5c1.1,0,2,0.3,2.6,0.8
			c0.7,0.6,1,1.3,1,2.1v0.1c0,1.1-0.6,1.7-1.7,1.7h-7.4c-0.6,0-1.1-0.1-1.3-0.4c-0.3-0.3-0.4-0.7-0.4-1.4v-6.1l0,0V7.8l-3.1,1.6v9
			c0,0.8-0.2,1.3-0.5,1.7s-0.9,0.5-1.6,0.5h-5.2c-0.7,0-1.3-0.2-1.6-0.5c-0.3-0.3-0.5-0.9-0.5-1.7v-5.7l-3.1,1.6v4.5
			c0,0.6-0.1,1.1-0.4,1.4c-0.3,0.3-0.7,0.4-1.3,0.4h-1.7c-0.6,0-1.1-0.1-1.3-0.4c-0.3-0.3-0.4-0.7-0.4-1.4v-5.5L30.3,15v3.8
			c0,0.6-0.1,1.1-0.4,1.4c-0.3,0.3-0.7,0.4-1.3,0.4h-1.6c-0.6,0-1.1-0.1-1.3-0.4s-0.4-0.7-0.4-1.4V14l-3.1,1.6V22
			c0,1-0.3,1.8-0.9,2.4s-1.5,0.9-2.6,0.9s-1.9-0.4-2.6-1.1c-0.7-0.8-1.1-1.8-1.1-3c0-1.2,0.3-2.4,1-3.5l-2.9,0.6
			c-0.6,1-0.9,2.1-0.9,3.4c0,1.6,0.5,3,1.4,4.2c1.2,1.5,2.9,2.3,5.1,2.3c1.6,0,3-0.4,4.2-1.2c1.3-0.9,2.1-2.1,2.4-3.7
			c0.5,0.1,1,0.2,1.5,0.2h2.3c1.2,0,2.1-0.3,2.9-0.9c0.8,0.6,1.8,0.9,3,0.9h2.3c1.3,0,2.3-0.4,3-1.1c0.9,0.7,2,1.1,3.3,1.1h5.5
			c1.3,0,2.4-0.4,3.3-1.1c0.8,0.7,1.8,1.1,3.1,1.1h8c1.3,0,2.3-0.3,3.1-1c0.9-0.8,1.4-2,1.4-3.4v-0.3C67.8,16.6,67,15,65.3,13.9
			L65.3,13.9z"/>
		<path class="st0" d="M88,25.7c-1.1,0-1.6,0.5-1.6,1.6c0,0.5,0.1,0.9,0.4,1.2c0.3,0.3,0.7,0.4,1.2,0.4c1.1,0,1.6-0.5,1.6-1.6
			c0-0.5-0.1-0.9-0.4-1.2C88.9,25.9,88.5,25.7,88,25.7L88,25.7z"/>
		<path class="st0" d="M84.3,25.7c-1.1,0-1.6,0.5-1.6,1.6c0,0.5,0.1,0.9,0.4,1.2c0.3,0.3,0.7,0.4,1.2,0.4c1.1,0,1.6-0.5,1.6-1.6
			c0-0.5-0.1-0.9-0.4-1.2C85.2,25.9,84.8,25.7,84.3,25.7L84.3,25.7z"/>
		<path class="st0" d="M99.4,10.3c1.1,0,1.6-0.5,1.6-1.6c0-0.5-0.1-0.9-0.4-1.2c-0.3-0.3-0.7-0.4-1.2-0.4c-0.5,0-0.9,0.1-1.2,0.4
			c-0.3,0.3-0.4,0.7-0.4,1.1c0,0.5,0.1,0.9,0.4,1.2C98.5,10.1,98.9,10.3,99.4,10.3z"/>
		<path class="st0" d="M97.9,18.8c0,0.6-0.1,1.1-0.4,1.4c-0.3,0.3-0.7,0.4-1.3,0.4h-2.9c-0.6,0-1.1-0.1-1.3-0.4
			c-0.3-0.3-0.4-0.7-0.4-1.4v-6.1l-3.1,1.6v4.5c0,0.6-0.1,1.1-0.4,1.4c-0.3,0.3-0.7,0.4-1.3,0.4h-6.6v-3.8c0-1.3-0.4-2.3-1.1-3.1
			c-0.8-0.9-1.9-1.4-3.4-1.4c-1.4,0-2.6,0.5-3.4,1.4c-1,1-1.5,2.4-1.5,4.2c0,1.4,0.4,2.5,1.1,3.5c0.9,1.1,2.2,1.8,3.9,2
			c0.1,0,0.4,0,0.6,0.1c0.3,0,0.5,0,0.6,0c-0.1,0.5-0.3,1-0.9,1.3c-0.5,0.4-1.1,0.6-1.8,0.6c-0.9,0-1.8-0.2-2.6-0.8v2.7
			c1,0.6,2,0.8,3,0.8c1.3,0,2.4-0.4,3.4-1.1c1.2-0.9,1.8-2,2-3.5H87c1.2,0,2.2-0.3,3-0.9c0.8,0.6,1.8,0.9,3,0.9h3.5
			c1.3,0,2.3-0.4,3.1-1.1c0.9-0.8,1.4-2,1.4-3.5v-6.3l-3.1,1.6L97.9,18.8L97.9,18.8z M77.1,20.6c-0.5,0-0.9-0.1-1.1-0.1
			c-1.4-0.2-2.1-1.1-2.1-2.6c0-1.8,0.6-2.7,1.9-2.7c0.9,0,1.4,0.5,1.4,1.6L77.1,20.6L77.1,20.6z"/>
	</g>
</g>
</svg>
