<?xml version="1.0" encoding="utf-8"?>
<!-- Generator: Adobe Illustrator 27.1.1, SVG Export Plug-In . SVG Version: 6.00 Build 0)  -->
<svg version="1.1" id="Layer_1" xmlns="http://www.w3.org/2000/svg" xmlns:xlink="http://www.w3.org/1999/xlink" x="0px" y="0px"
	 viewBox="0 0 154 36" style="enable-background:new 0 0 154 36;" xml:space="preserve">
<style type="text/css">
	.st0{fill:#B4B7C9;}
	.st1{fill-rule:evenodd;clip-rule:evenodd;fill:#B4B7C9;}
</style>
<g>
	<g id="icon">
		<path class="st0" d="M17.5,28.1H12l4-6.8c-2.3-1.2-3.7-3.6-3.7-6.2c0-4.5,3.7-7.2,7.7-7.2h8.2v20.3h-4.9v-5.8h-2.4L17.5,28.1z
			 M23.3,12.4H20c-1.6,0-2.8,1-2.8,2.7s1.2,2.6,2.8,2.6h3.3L23.3,12.4z"/>
		<path class="st0" d="M34.7,28.1h-4.9V13.9h4.9L34.7,28.1z M30,10.1c0-1.3,1-2.3,2.3-2.3c1.3,0,2.3,1,2.3,2.3c0,1.3-1,2.3-2.3,2.3
			c0,0,0,0,0,0C31,12.4,30,11.4,30,10.1C30,10.1,30,10.1,30,10.1L30,10.1z"/>
		<circle class="st0" cx="38.8" cy="25.9" r="2.3"/>
	</g>
	<rect id="separator" x="46.3" y="7.8" class="st0" width="1.1" height="20.3"/>
	<g id="ripplerinc">
		<path id="_" class="st0" d="M107.8,17.4l-1.1,2.7h-1.3l0.7-2.7H107.8z"/>
		<path id="r" class="st0" d="M50.3,15.6h-1.6v3.3h-2.4V8h4.4c2.1,0,4.1,1.4,4.1,3.8c0,1.4-0.8,2.8-2.1,3.4l2.3,3.7h-2.7L50.3,15.6z
			 M48.7,13.5h2c1,0,1.7-0.6,1.7-1.6s-0.8-1.6-1.7-1.6h-2V13.5z"/>
		<path id="i" class="st0" d="M56.5,8h2.4v10.9h-2.4V8z"/>
		<path id="p" class="st0" d="M68.6,11.8c0,2.4-2,3.8-4.2,3.8h-1.9v3.3h-2.4V8h4.3C66.6,8,68.6,9.4,68.6,11.8z M66.2,11.8
			c0-1-0.8-1.6-1.8-1.6h-1.9v3.3h1.9C65.4,13.4,66.2,12.9,66.2,11.8z"/>
		<path id="p-2" class="st0" d="M78.1,11.8c0,2.4-2,3.8-4.2,3.8H72v3.3h-2.4V8H74C76.1,8,78.1,9.4,78.1,11.8z M75.8,11.8
			c0-1-0.8-1.6-1.8-1.6H72v3.3H74C75,13.4,75.8,12.9,75.8,11.8z"/>
		<path id="l" class="st0" d="M86.5,16.7v2.2h-7V8h2.4v8.7H86.5z"/>
		<path id="e" class="st0" d="M89.9,10.2v2.1h3.3v2.2h-3.3v2.2H94v2.2h-6.5V8H94v2.2H89.9z"/>
		<path id="r-2" class="st0" d="M99.3,15.6h-1.6v3.3h-2.4V8h4.4c2.1,0,4.1,1.4,4.1,3.8c0,1.4-0.8,2.8-2.1,3.4l2.3,3.7h-2.7
			L99.3,15.6z M97.7,13.5h2c1,0,1.7-0.6,1.7-1.6s-0.8-1.6-1.7-1.6h-2V13.5z"/>
		<path id="i-2" class="st0" d="M114.2,8h2.4v10.9h-2.4V8z"/>
		<path id="n" class="st0" d="M128,8v10.9h-2.4l-5.2-7v7H118V8h2.4l5.2,7V8H128z"/>
		<path id="c" class="st0" d="M135.1,10c-1.9,0-3.5,1.4-3.5,3.4s1.6,3.4,3.5,3.4c1.1,0,2.2-0.4,3-1.2V18c-0.4,0.3-1.5,1.1-3.3,1.1
			c-3.1,0-5.6-2.5-5.6-5.6c0-3.1,2.5-5.6,5.6-5.6l0,0c1.8,0,2.9,0.7,3.3,1.1v2.3C137.3,10.4,136.2,10,135.1,10z"/>
		<path id="_." class="st0" d="M139.7,17.9c0-0.6,0.5-1.2,1.1-1.2c0.6,0,1.2,0.5,1.2,1.1c0,0.6-0.5,1.2-1.1,1.2c0,0,0,0,0,0
			C140.2,19.1,139.7,18.6,139.7,17.9C139.7,17.9,139.7,17.9,139.7,17.9z"/>
	</g>
	<g id="slogan">
		<path class="st0" d="M49.2,23.1c-1.2,0-2.1,1-2.1,2.1s1,2.1,2.1,2.1c0.6,0,1.1-0.2,1.6-0.6v0.9c-0.5,0.4-1,0.6-1.6,0.6
			c-1.6,0-2.8-1.3-2.8-2.9s1.2-2.9,2.8-2.9c0.6,0,1.2,0.2,1.6,0.6v0.9C50.3,23.3,49.8,23,49.2,23.1z"/>
		<path class="st0" d="M53.5,26.2h-1.1v1.9h-0.8v-5.7h2.1c1.1,0,1.9,0.9,1.9,2c0,0.8-0.5,1.4-1.2,1.7l1.2,2h-0.9L53.5,26.2z
			 M52.4,25.4h1.2c0.6,0,1.1-0.6,1.1-1.2c0-0.6-0.5-1.1-1.1-1.1h-1.2V25.4z"/>
		<path class="st0" d="M57.3,23.1v1.6H59v0.8h-1.8v1.7h2.3v0.8h-3.1v-5.7h3.1v0.8L57.3,23.1z"/>
		<path class="st0" d="M63.6,26.7h-2.3l-0.5,1.3H60l2-5.7h0.9l2,5.7h-0.9L63.6,26.7z M63.3,25.9l-0.9-2.5l-0.9,2.5H63.3z"/>
		<path class="st0" d="M68.3,23.1H67v4.9h-0.8v-4.9h-1.4v-0.8h3.5V23.1z"/>
		<path class="st0" d="M69,22.3h0.8v5.7H69V22.3z"/>
		<path class="st0" d="M75.3,22.3l-1.9,5.7h-1l-1.9-5.7h0.9l1.6,4.7l1.6-4.7L75.3,22.3z"/>
		<path class="st0" d="M76.7,23.1v1.6h1.8v0.8h-1.8v1.7H79v0.8h-3.1v-5.7H79v0.8L76.7,23.1z"/>
		<path class="st0" d="M86.5,25.2c0,1.6-1.1,2.9-2.7,2.9h-1.9v-5.7h1.9C85.4,22.3,86.5,23.6,86.5,25.2z M85.7,25.2
			c0-1.3-0.8-2.1-1.9-2.1h-1v4.1h1C84.9,27.3,85.7,26.5,85.7,25.2L85.7,25.2z"/>
		<path class="st0" d="M87.2,22.3H88v5.7h-0.8V22.3z"/>
		<path class="st0" d="M94.4,24.9c0,2-1.1,3.2-2.8,3.2c-1.6,0-2.8-1.3-2.8-2.9c0-1.6,1.2-2.9,2.9-2.9c0.9,0,1.7,0.4,2.2,1.2
			l-0.6,0.5c-0.3-0.6-1-0.9-1.6-0.9c-1.1,0-2,0.9-2,2.1c0,0,0,0.1,0,0.1c0,1.2,0.8,2.1,2,2.1c1,0,1.8-0.7,1.9-1.6h-2.1v-0.8
			L94.4,24.9z"/>
		<path class="st0" d="M95,22.3h0.8v5.7H95V22.3z"/>
		<path class="st0" d="M100,23.1h-1.4v4.9h-0.8v-4.9h-1.4v-0.8h3.5V23.1z"/>
		<path class="st0" d="M103.3,26.7h-2.3l-0.5,1.3h-0.8l2-5.7h0.9l2,5.7h-0.9L103.3,26.7z M103,25.9l-0.9-2.5l-0.9,2.5L103,25.9z"/>
		<path class="st0" d="M108.4,27.3v0.8h-3.1v-5.7h0.8v4.9H108.4z"/>
		<path class="st0" d="M115.2,26.7h-2.3l-0.5,1.3h-0.9l2-5.7h0.9l2,5.7h-0.9L115.2,26.7z M114.9,25.9l-0.9-2.5l-0.9,2.5H114.9z"/>
		<path class="st0" d="M122.2,24.9c0,2-1.1,3.2-2.8,3.2c-1.6,0-2.8-1.3-2.8-2.9c0-1.6,1.2-2.9,2.9-2.9c0.9,0,1.7,0.4,2.2,1.2
			l-0.6,0.5c-0.3-0.6-1-0.9-1.6-0.9c-1.1,0-2,0.9-2,2.1c0,0,0,0.1,0,0.1c0,1.2,0.8,2.1,2,2.1c1,0,1.8-0.7,1.9-1.6h-2.1v-0.8
			L122.2,24.9z"/>
		<path class="st0" d="M123.7,23.1v1.6h1.8v0.8h-1.8v1.7h2.3v0.8h-3.1v-5.7h3.1v0.8L123.7,23.1z"/>
		<path class="st0" d="M131.4,22.3v5.7h-0.8l-3-4.3v4.3h-0.8v-5.7h0.8l3,4.3v-4.3H131.4z"/>
		<path class="st0" d="M135.1,23.1c-1.2,0-2.1,1-2.1,2.1s1,2.1,2.1,2.1c0.6,0,1.1-0.2,1.6-0.6v0.9c-0.5,0.4-1,0.6-1.6,0.6
			c-1.6,0-2.8-1.3-2.8-2.9s1.2-2.9,2.8-2.9c0.6,0,1.2,0.2,1.6,0.6v0.9C136.2,23.3,135.7,23,135.1,23.1z"/>
		<path class="st0" d="M142,22.3l-2,3.4v2.3h-0.8v-2.3l-2-3.4h0.9l1.5,2.5l1.5-2.5L142,22.3z"/>
	</g>
</g>
</svg>
