<?xml version="1.0" encoding="utf-8"?>
<!-- Generator: Adobe Illustrator 27.2.0, SVG Export Plug-In . SVG Version: 6.00 Build 0)  -->
<svg version="1.1" id="Layer_1" xmlns:v="https://vecta.io/nano"
	 xmlns="http://www.w3.org/2000/svg" xmlns:xlink="http://www.w3.org/1999/xlink" x="0px" y="0px" viewBox="0 0 48 48"
	 style="enable-background:new 0 0 48 48;" xml:space="preserve">
<style type="text/css">
	.st0{clip-path:url(#SVGID_00000141436187245649319180000004888879099154158504_);}
	.st1{fill:#FF1F30;}
</style>
<g>
	<defs>
		<rect id="SVGID_1_" width="48" height="48"/>
	</defs>
	<clipPath id="SVGID_00000042716785948107872940000016805946067453953972_">
		<use xlink:href="#SVGID_1_"  style="overflow:visible;"/>
	</clipPath>
	<g style="clip-path:url(#SVGID_00000042716785948107872940000016805946067453953972_);">
		<path class="st1" d="M1.9,18.8c1,0,1.9-0.8,1.9-1.9S2.9,15,1.9,15S0,15.8,0,16.9S0.8,18.8,1.9,18.8z"/>
		<path class="st1" d="M46.1,18.8c1,0,1.9-0.8,1.9-1.9S47.2,15,46.1,15s-1.9,0.8-1.9,1.9S45.1,18.8,46.1,18.8z"/>
		<path class="st1" d="M2.4,26.3c0.9,0.4,2.1,0,2.5-0.9s0-2.1-0.9-2.5s-2.1,0-2.5,0.9S1.5,25.8,2.4,26.3z"/>
		<path class="st1" d="M43.1,8.4c-0.4,0.9,0,2.1,0.9,2.5s2.1,0,2.5-0.9s0-2.1-0.9-2.5S43.5,7.4,43.1,8.4z"/>
		<path class="st1" d="M45.6,26.3c0.9-0.4,1.3-1.6,0.9-2.5s-1.6-1.3-2.5-0.9s-1.3,1.6-0.9,2.5S44.6,26.7,45.6,26.3z"/>
		<path class="st1" d="M4.9,8.4C4.5,7.4,3.4,7,2.4,7.5S1.1,9,1.5,10s1.6,1.3,2.5,0.9S5.4,9.3,4.9,8.4z"/>
		<path class="st1" d="M25.9,42.4c0,1-0.8,1.9-1.9,1.9c-1,0-1.9-0.8-1.9-1.9c0-1-0.8-1.9-1.9-1.9s-1.9,0.8-1.9,1.9
			c0,3.1,2.5,5.6,5.6,5.6s5.6-2.5,5.6-5.6c0-1-0.8-1.9-1.9-1.9S25.9,41.3,25.9,42.4z"/>
		<path class="st1" d="M24,0C14.7,0,7.1,7.6,7.1,16.9c0,4.8,2,9.2,5.4,12.3c1.5,1.4,1.9,2.6,2,3.6c0.4,2.7,2.8,4.7,5.5,4.7h7.8
			c2.8,0,5.2-2,5.5-4.7c0.1-1,0.5-2.2,2-3.6c2.5-2.3,4.2-5.2,5-8.5c0.3-1.2,0.4-2.5,0.4-3.8C40.9,7.6,33.3,0,24,0z M36.8,19.8
			c-0.6,2.5-1.9,4.8-3.9,6.6c-1.9,1.7-2.9,3.6-3.2,5.9c-0.1,0.8-0.9,1.5-1.8,1.5h-7.8c-0.9,0-1.7-0.6-1.8-1.5
			c-0.3-2.3-1.3-4.1-3.2-5.8c-2.7-2.5-4.2-5.9-4.2-9.5c0-7.2,5.9-13.1,13.1-13.1s13.1,5.9,13.1,13.1C37.1,17.9,37,18.9,36.8,19.8z"
			/>
		<path class="st1" d="M26.4,15.5L24,18l-2.4-2.4c-0.7-0.7-1.9-0.7-2.7,0s-0.7,1.9,0,2.7l3.2,3.2v3c0,1,0.8,1.9,1.9,1.9
			s1.9-0.8,1.9-1.9v-3l3.2-3.2c0.7-0.7,0.7-1.9,0-2.7S27.2,14.8,26.4,15.5z"/>
	</g>
</g>
</svg>
