<?xml version="1.0" encoding="utf-8"?>
<!-- Generator: Adobe Illustrator 27.2.0, SVG Export Plug-In . SVG Version: 6.00 Build 0)  -->
<svg version="1.1" id="Layer_1" xmlns:v="https://vecta.io/nano"
	 xmlns="http://www.w3.org/2000/svg" xmlns:xlink="http://www.w3.org/1999/xlink" x="0px" y="0px" viewBox="0 0 48 48"
	 style="enable-background:new 0 0 48 48;" xml:space="preserve">
<style type="text/css">
	.st0{clip-path:url(#SVGID_00000164497505931832681260000007812607378272005262_);}
	.st1{fill:#FF1F30;}
</style>
<g>
	<defs>
		<rect id="SVGID_1_" width="48" height="48"/>
	</defs>
	<clipPath id="SVGID_00000151501107616404705750000000877740151452588705_">
		<use xlink:href="#SVGID_1_"  style="overflow:visible;"/>
	</clipPath>
	<g style="clip-path:url(#SVGID_00000151501107616404705750000000877740151452588705_);">
		<path class="st1" d="M7.5,11.2c-4.1,0-7.5,3.4-7.5,7.5v1.9c0,1,0.8,1.9,1.9,1.9h11.2c1,0,1.9-0.8,1.9-1.9v-1.9
			C15,14.6,11.6,11.3,7.5,11.2z M3.8,18.8c0-2.1,1.7-3.8,3.8-3.8s3.8,1.7,3.8,3.8H3.8z"/>
		<path class="st1" d="M13.1,5.6c0-3.1-2.5-5.6-5.6-5.6S1.9,2.5,1.9,5.6s2.5,5.6,5.6,5.6S13.1,8.7,13.1,5.6z M7.5,7.5
			c-1,0-1.9-0.8-1.9-1.9c0-1,0.8-1.9,1.9-1.9c1,0,1.9,0.8,1.9,1.9C9.4,6.7,8.5,7.5,7.5,7.5z"/>
		<path class="st1" d="M40.5,11.2c-4.1,0-7.5,3.4-7.5,7.5v1.9c0,1,0.8,1.9,1.9,1.9h11.2c1,0,1.9-0.8,1.9-1.9v-1.9
			C48,14.6,44.6,11.3,40.5,11.2z M36.8,18.8c0-2.1,1.7-3.8,3.8-3.8s3.8,1.7,3.8,3.8H36.8z"/>
		<path class="st1" d="M46.1,5.6c0-3.1-2.5-5.6-5.6-5.6s-5.6,2.5-5.6,5.6s2.5,5.6,5.6,5.6S46.1,8.7,46.1,5.6z M40.5,7.5
			c-1,0-1.9-0.8-1.9-1.9c0-1,0.8-1.9,1.9-1.9c1,0,1.9,0.8,1.9,1.9C42.4,6.7,41.5,7.5,40.5,7.5z"/>
		<path class="st1" d="M24,36.8c-4.1,0-7.5,3.4-7.5,7.5v1.9c0,1,0.8,1.9,1.9,1.9h11.2c1,0,1.9-0.8,1.9-1.9v-1.9
			C31.5,40.1,28.1,36.8,24,36.8z M20.2,44.2c0-2.1,1.7-3.8,3.8-3.8s3.8,1.7,3.8,3.8H20.2z"/>
		<path class="st1" d="M29.6,31.1c0-3.1-2.5-5.6-5.6-5.6s-5.6,2.5-5.6,5.6s2.5,5.6,5.6,5.6S29.6,34.2,29.6,31.1z M24,33
			c-1,0-1.9-0.8-1.9-1.9c0-1,0.8-1.9,1.9-1.9c1,0,1.9,0.8,1.9,1.9C25.9,32.2,25,33,24,33z"/>
		<path class="st1" d="M10,33.4c-0.6-0.9-1.1-1.9-1.6-2.9c-0.4-1-0.8-2.1-1-3.2c-0.2-1-1.2-1.7-2.2-1.5s-1.7,1.2-1.5,2.2
			C4.1,29.5,4.5,30.8,5,32c0.5,1.2,1.2,2.4,1.9,3.5c0.7,1.1,1.6,2.1,2.5,3.1c0.7,0.7,1.9,0.7,2.7,0s0.7-1.9,0-2.7
			C11.3,35.2,10.6,34.3,10,33.4L10,33.4z"/>
		<path class="st1" d="M42.7,25.9c-1-0.2-2,0.4-2.2,1.5c-0.2,1.1-0.6,2.1-1,3.2c-0.4,1-0.9,2-1.6,2.9c-0.6,0.9-1.3,1.7-2.1,2.5
			c-0.7,0.7-0.7,1.9,0,2.7s1.9,0.7,2.7,0c0.9-0.9,1.8-2,2.5-3.1c0.7-1.1,1.4-2.3,1.9-3.5c0.5-1.2,0.9-2.5,1.2-3.9
			C44.4,27.1,43.8,26.2,42.7,25.9L42.7,25.9z"/>
		<path class="st1" d="M32,5c-2.5-1.1-5.3-1.6-8-1.6c-2.8,0-5.5,0.5-8,1.6c-1,0.4-1.4,1.5-1,2.5s1.5,1.4,2.5,1
			c2.1-0.9,4.3-1.3,6.6-1.3s4.5,0.4,6.6,1.3c1,0.4,2.1,0,2.5-1S33,5.4,32,5z"/>
	</g>
</g>
</svg>
