<svg id="Layer_1" data-name="Layer 1" xmlns="http://www.w3.org/2000/svg" viewBox="0 0 512 512"><defs><style>.cls-1{fill:none;}.cls-2{fill:#fff;}</style></defs><rect class="cls-1" width="512" height="512"/><path class="cls-2" d="M132.26,352.68H87.35V250.91H64V211.84H87.35v-7q0-22.15,14.15-35.87t36.3-13.7q26.82,0,40.53,14l-16.62,25.66q-5.25-5.53-14-5.54a15.61,15.61,0,0,0-11.08,4.08q-4.37,4.08-4.37,11.37v7h28.58v39.07H132.26Z"/><path class="cls-2" d="M192,348a26.76,26.76,0,1,1,8.17-19.25A26.33,26.33,0,0,1,192,348Z"/><path class="cls-2" d="M273.24,352.68H225.42L170,211.84h47.24L249,301.07l32.08-89.23h47.53Z"/><path class="cls-2" d="M390.29,356.18q-33.24,0-55.11-20.56t-21.87-53.51q0-32.66,21.87-53.21t55.11-20.56q21,0,35.72,7.58t22,18.37l-29.16,27.12q-9-13.41-26.54-13.41-14.29,0-23.62,9.18t-9.33,24.93q0,15.75,9.33,25.08t23.62,9.33q16.91,0,26.54-13.7L448,330.23q-7.3,10.78-22,18.37T390.29,356.18Z"/></svg>