<svg id="Layer_1" data-name="Layer 1" xmlns="http://www.w3.org/2000/svg" viewBox="0 0 402.52 66.14"><defs><style>.cls-1{fill:#efefef;}</style></defs><path class="cls-1" d="M196.2,189.92H181.42v-33.5h-7.68V143.55h7.68v-2.3a15.73,15.73,0,0,1,4.65-11.81,16.47,16.47,0,0,1,12-4.51q8.82,0,13.34,4.61L205.9,138a6.07,6.07,0,0,0-4.61-1.82,5.17,5.17,0,0,0-3.65,1.34,4.89,4.89,0,0,0-1.44,3.75v2.3h9.41v12.87H196.2Z" transform="translate(-173.74 -124.93)"/><path class="cls-1" d="M257.83,189.92H243.05v-5.57q-6,6.72-16,6.72-7.68,0-11.47-3.89t-3.8-10.6v-33h14.79v27q0,7.49,7.68,7.49a10.83,10.83,0,0,0,8.83-4.52V143.55h14.78Z" transform="translate(-173.74 -124.93)"/><path class="cls-1" d="M314.76,189.92H300V163.14q0-7.68-7.59-7.68a11.17,11.17,0,0,0-9,4.51v29.95H268.59V143.55h14.78v5.67q5.85-6.83,16-6.82,7.68,0,11.52,4t3.84,10.71Z" transform="translate(-173.74 -124.93)"/><path class="cls-1" d="M371.4,189.92H356.71v-5.38A17.51,17.51,0,0,1,343,191.07a18.91,18.91,0,0,1-14.73-6.48q-5.81-6.48-5.81-17.9,0-11.15,5.81-17.71A18.77,18.77,0,0,1,343,142.4,16.92,16.92,0,0,1,356.71,149V125.89H371.4ZM347.78,178a11.59,11.59,0,0,0,5-1.2,10.86,10.86,0,0,0,4-3V159.58a10.54,10.54,0,0,0-4-3,12,12,0,0,0-5-1.15,9.53,9.53,0,0,0-7.34,3.07,13.16,13.16,0,0,0,.05,16.37A9.49,9.49,0,0,0,347.78,178Z" transform="translate(-173.74 -124.93)"/><path class="cls-1" d="M397,189.92H382.25V143.55H397v5.67a19.69,19.69,0,0,1,6.43-4.9,18,18,0,0,1,8.07-2v14.21a17.17,17.17,0,0,0-3.65-.38,17.91,17.91,0,0,0-6.29,1.2,9.79,9.79,0,0,0-4.56,3Z" transform="translate(-173.74 -124.93)"/><path class="cls-1" d="M436,191.07a39.08,39.08,0,0,1-12.15-1.92,26.46,26.46,0,0,1-9.55-5.18l6.15-10.18a24.39,24.39,0,0,0,7.53,4.27,24.64,24.64,0,0,0,8.79,1.88c4.15,0,6.24-1.19,6.24-3.56,0-1.08-.93-1.9-2.79-2.44a52.9,52.9,0,0,0-6.72-1.44,55.37,55.37,0,0,1-7.92-1.88,14.37,14.37,0,0,1-6.77-4.51,12.58,12.58,0,0,1-2.78-8.45,13.62,13.62,0,0,1,5.28-10.84q5.28-4.42,14.59-4.42a32.14,32.14,0,0,1,19.39,6.14l-5.66,9.8a18.24,18.24,0,0,0-5.95-3.6,20.5,20.5,0,0,0-7.68-1.49,8.28,8.28,0,0,0-4.23,1,2.78,2.78,0,0,0-1.63,2.4q0,1.44,2.79,2.16t6.72,1.44a57.79,57.79,0,0,1,7.92,2.06,14.69,14.69,0,0,1,6.76,4.75,14.16,14.16,0,0,1-2.88,19.78Q445.81,191.08,436,191.07Z" transform="translate(-173.74 -124.93)"/><path class="cls-1" d="M478.54,188.38a8.83,8.83,0,1,1,2.68-6.33A8.7,8.7,0,0,1,478.54,188.38Z" transform="translate(-173.74 -124.93)"/><path class="cls-1" d="M512.33,189.92H496.58l-18.24-46.37h15.55l10.47,29.38,10.56-29.38h15.65Z" transform="translate(-173.74 -124.93)"/><path class="cls-1" d="M557.25,191.07q-10.93,0-18.14-6.77t-7.2-17.61q0-10.75,7.2-17.52t18.14-6.77A25.35,25.35,0,0,1,569,144.9a19,19,0,0,1,7.25,6l-9.6,8.93a9.85,9.85,0,0,0-8.73-4.41,10.61,10.61,0,0,0-7.78,3,11,11,0,0,0-3.07,8.21,11.13,11.13,0,0,0,3.07,8.25,10.54,10.54,0,0,0,7.78,3.08,10.09,10.09,0,0,0,8.73-4.52l9.6,9a19,19,0,0,1-7.25,6.05A25.48,25.48,0,0,1,557.25,191.07Z" transform="translate(-173.74 -124.93)"/></svg>