<svg id="Layer_1" data-name="Layer 1" xmlns="http://www.w3.org/2000/svg" viewBox="0 0 1300 900"><defs><style>.cls-1{fill:#ff1f30;}.cls-2{fill:#121226;}</style></defs><path class="cls-1" d="M495,470,483.19,458.1l-11.26,11.26,13.42,13.42a13.72,13.72,0,0,0,19.38,0l13.21-13.2-11.27-11.26Zm32.78-29.64-23.08-23.09a13.73,13.73,0,0,0-19.39,0l-23.09,23.09a13.72,13.72,0,0,0,0,19.38l1.48,1.48L495,430.05l31.09,31.34,1.69-1.7A13.71,13.71,0,0,0,527.82,440.31Z"/><path class="cls-2" d="M555.94,471.67V443.46h-7.21v-8.89h7.21v-3.78a10,10,0,0,1,3-7.74q3-2.76,8.5-2.76h7.07v8.89h-5.67a2.74,2.74,0,0,0-2,.66,2.64,2.64,0,0,0-.66,1.93v2.8H576v8.89h-9.87v28.21Z"/><path class="cls-2" d="M592.69,472.72a14.63,14.63,0,0,1-7.18-1.65,11,11,0,0,1-4.55-4.72,16,16,0,0,1-1.57-7.35V434.57h10.15v22.12a7.25,7.25,0,0,0,1.57,5.07,6.18,6.18,0,0,0,4.8,1.72,6.78,6.78,0,0,0,3.43-.84,5.48,5.48,0,0,0,2.24-2.38,8,8,0,0,0,.77-3.57V434.57h10.22v37.1h-9.73v-3.29h-.14a11.4,11.4,0,0,1-4.27,3.15A14,14,0,0,1,592.69,472.72Z"/><path class="cls-2" d="M619.5,471.67v-37.1h9.73v3.29h.14a10.65,10.65,0,0,1,4.27-3.15,14.41,14.41,0,0,1,5.81-1.19,14,14,0,0,1,7.14,1.78,12.59,12.59,0,0,1,4.83,5.08,16.09,16.09,0,0,1,1.75,7.63v23.66H643v-22a6.86,6.86,0,0,0-1.75-5,6.62,6.62,0,0,0-4.9-1.75,7.41,7.41,0,0,0-3.57.8,5.75,5.75,0,0,0-2.31,2.35,7.5,7.5,0,0,0-.84,3.64v22Z"/><path class="cls-2" d="M666.26,470.13a17,17,0,0,1-5.92-7,22.94,22.94,0,0,1-2.13-10A23.21,23.21,0,0,1,660.34,443a17,17,0,0,1,5.92-7,15,15,0,0,1,8.54-2.52,15.71,15.71,0,0,1,5.25.84,12.79,12.79,0,0,1,4.2,2.45h.14V420.57h10.08v51.1h-9.38v-3.36H685a10.72,10.72,0,0,1-4.27,3.15,14.61,14.61,0,0,1-5.88,1.19A15,15,0,0,1,666.26,470.13Zm14.42-7.7a7,7,0,0,0,2.73-2.77,8.09,8.09,0,0,0,1-4v-5.25a7.91,7.91,0,0,0-1-4,7.34,7.34,0,0,0-2.77-2.73,7.92,7.92,0,0,0-3.95-1,8.07,8.07,0,0,0-4.52,1.22,7.73,7.73,0,0,0-2.83,3.57,14.3,14.3,0,0,0-1,5.57,14,14,0,0,0,1,5.53,7.67,7.67,0,0,0,2.83,3.53,8.14,8.14,0,0,0,4.59,1.23A8,8,0,0,0,680.68,462.43Z"/><path class="cls-2" d="M701.47,471.67v-37.1h9.59v3.36h.14a7.4,7.4,0,0,1,3.18-3,10.29,10.29,0,0,1,4.73-1.05,17.33,17.33,0,0,1,4.83.63l-1.75,9.59c-.66-.14-1.33-.27-2-.39a12.78,12.78,0,0,0-2-.17,6,6,0,0,0-5,2.1q-1.68,2.1-1.68,6.23v19.81Z"/><path class="cls-2" d="M741.44,472.79a23.38,23.38,0,0,1-8.75-1.51,14.13,14.13,0,0,1-6.06-4.41,16.51,16.51,0,0,1-3.11-7.1l9-2.45a9.58,9.58,0,0,0,3,5.46,9.3,9.3,0,0,0,6,1.68,8.88,8.88,0,0,0,2.55-.35,3.52,3.52,0,0,0,1.75-1.05,2.4,2.4,0,0,0,.6-1.61,2.45,2.45,0,0,0-.7-1.72,8.22,8.22,0,0,0-2.56-1.54c-1.23-.53-3.11-1.2-5.63-2a29.68,29.68,0,0,1-6.9-2.91,11.18,11.18,0,0,1-3.92-3.71,9.54,9.54,0,0,1-1.22-4.93A9.3,9.3,0,0,1,727.3,439a13.05,13.05,0,0,1,5.18-4.06,17.33,17.33,0,0,1,7.28-1.5,18.44,18.44,0,0,1,7.14,1.4,16.08,16.08,0,0,1,5.7,3.92,13.19,13.19,0,0,1,3.19,5.67l-9,2.59a7.46,7.46,0,0,0-2.7-3.92,7.26,7.26,0,0,0-4.37-1.33,7.09,7.09,0,0,0-2.28.35,2.88,2.88,0,0,0-1.5,1.05,2.52,2.52,0,0,0-.49,1.47,1.57,1.57,0,0,0,.49,1.22,7.18,7.18,0,0,0,2,1.09c1,.42,2.63,1,5,1.82a37.49,37.49,0,0,1,7.66,3.29,13.7,13.7,0,0,1,4.41,4,9.95,9.95,0,0,1-.45,11.2,13,13,0,0,1-5.43,4.06A19.41,19.41,0,0,1,741.44,472.79Z"/><path class="cls-2" d="M764.12,471.67v-8.12h8.33v8.12Z"/><path class="cls-2" d="M786.8,471.67l-15.68-37.1H777l12.11,29.61h.14l12.11-29.61h5.88l-15.68,37.1Z"/><path class="cls-2" d="M825.58,472.72a16.57,16.57,0,0,1-9-2.45,16.23,16.23,0,0,1-6.09-6.93,25.15,25.15,0,0,1,0-20.44,16.23,16.23,0,0,1,6.09-6.93,16.57,16.57,0,0,1,9-2.45,17.72,17.72,0,0,1,7.66,1.64,14.42,14.42,0,0,1,5.64,4.69,17.27,17.27,0,0,1,2.87,7.18l-5.32,1.12a11.61,11.61,0,0,0-3.64-7,11.36,11.36,0,0,0-13.3-.7,11.84,11.84,0,0,0-4.13,5.11,20.17,20.17,0,0,0,0,15.12,11.84,11.84,0,0,0,4.13,5.11,11.36,11.36,0,0,0,13.3-.7,11.61,11.61,0,0,0,3.64-7l5.32,1.12a17.22,17.22,0,0,1-2.87,7.17,14.33,14.33,0,0,1-5.64,4.69A17.58,17.58,0,0,1,825.58,472.72Z"/></svg>