<?xml version="1.0" encoding="utf-8"?>
<!-- Generator: Adobe Illustrator 26.0.1, SVG Export Plug-In . SVG Version: 6.00 Build 0)  -->
<svg version="1.1" id="Layer_1" xmlns="http://www.w3.org/2000/svg" xmlns:xlink="http://www.w3.org/1999/xlink" x="0px" y="0px"
	 viewBox="0 0 89 32" style="enable-background:new 0 0 89 32;" xml:space="preserve">
<style type="text/css">
	.st0{display:none;}
	.st1{display:inline;fill:#FF1F30;}
	.st2{display:inline;fill:#FFFFFF;}
	.st3{display:inline;}
	.st4{fill:#FFFFFF;}
	.st5{fill:#FF1F30;}
</style>
<g class="st0">
	<path class="st1" d="M11,2.6c2.8-1.6,6.2-1.6,9,0l4.9,2.8c2.8,1.6,4.5,4.6,4.5,7.8v5.6c0,3.2-1.7,6.2-4.5,7.8L20,29.4
		c-2.8,1.6-6.2,1.6-9,0l-4.9-2.8C3.4,25,1.6,22,1.6,18.8v-5.6C1.6,10,3.4,7,6.1,5.4L11,2.6z"/>
	<path class="st2" d="M19.1,12.7h-0.6c0-2-1.6-3.6-3.6-3.6h-3c-2,0-3.6,1.6-3.6,3.6v3c0,2,1.6,3.6,3.6,3.6h0.6c0,2,1.6,3.6,3.6,3.6
		h3c2,0,3.6-1.6,3.6-3.6v-3C22.7,14.3,21.1,12.7,19.1,12.7z M11.9,18.1c-1.3,0-2.4-1.1-2.4-2.4v-3c0-1.3,1.1-2.4,2.4-2.4h3
		c1.3,0,2.4,1.1,2.4,2.4h-1.2c-2,0-3.6,1.6-3.6,3.6v1.8H11.9z M21.5,19.3c0,1.3-1.1,2.4-2.4,2.4h-3c-1.3,0-2.4-1.1-2.4-2.4h1.2
		c2,0,3.6-1.6,3.6-3.6v-1.8h0.6c1.3,0,2.4,1.1,2.4,2.4V19.3z"/>
	<g class="st3">
		<path class="st4" d="M41.4,21.6h-2.6v-5.9h-1.4v-2.3h1.4V13c0-0.9,0.3-1.5,0.8-2.1c0.5-0.5,1.2-0.8,2.1-0.8c1,0,1.8,0.3,2.3,0.8
			l-1,1.5c-0.2-0.2-0.5-0.3-0.8-0.3s-0.5,0.1-0.6,0.2c-0.2,0.2-0.3,0.4-0.3,0.7v0.4H43v2.3h-1.7L41.4,21.6L41.4,21.6z"/>
		<path class="st4" d="M52.3,21.6h-2.6v-1c-0.7,0.8-1.6,1.2-2.8,1.2c-0.9,0-1.6-0.2-2-0.7s-0.7-1.1-0.7-1.9v-5.8h2.6v4.8
			c0,0.9,0.5,1.3,1.4,1.3c0.6,0,1.1-0.3,1.6-0.8v-5.3h2.6L52.3,21.6L52.3,21.6z"/>
		<path class="st4" d="M62.3,21.6h-2.6v-4.7c0-0.9-0.4-1.4-1.3-1.4c-0.6,0-1.2,0.3-1.6,0.8v5.3h-2.6v-8.2h2.6v1
			c0.7-0.8,1.6-1.2,2.8-1.2c0.9,0,1.6,0.2,2,0.7s0.7,1.1,0.7,1.9C62.3,15.8,62.3,21.6,62.3,21.6z"/>
		<path class="st4" d="M72.3,21.6h-2.6v-0.9c-0.7,0.8-1.5,1.1-2.4,1.1c-1,0-1.9-0.4-2.6-1.1c-0.7-0.8-1-1.8-1-3.2
			c0-1.3,0.3-2.3,1-3.1s1.5-1.2,2.6-1.2c1,0,1.8,0.4,2.4,1.2v-4.1h2.6V21.6z M68.1,19.5c0.3,0,0.6-0.1,0.9-0.2s0.5-0.3,0.7-0.5v-2.5
			c-0.2-0.2-0.4-0.4-0.7-0.5c-0.3-0.1-0.6-0.2-0.9-0.2c-0.5,0-1,0.2-1.3,0.5c-0.3,0.4-0.5,0.8-0.5,1.4s0.2,1.1,0.5,1.4
			C67.2,19.3,67.6,19.5,68.1,19.5z"/>
		<path class="st4" d="M76.8,21.6h-2.6v-8.2h2.6v1c0.3-0.3,0.7-0.6,1.1-0.9c0.5-0.2,0.9-0.4,1.4-0.4v2.5c-0.2,0-0.4-0.1-0.6-0.1
			c-0.4,0-0.7,0.1-1.1,0.2c-0.4,0.1-0.6,0.3-0.8,0.5V21.6z"/>
		<path class="st4" d="M83.6,21.8c-0.7,0-1.4-0.1-2.1-0.3c-0.7-0.2-1.3-0.5-1.7-0.9l1.1-1.8c0.3,0.3,0.8,0.5,1.3,0.8
			c0.6,0.2,1.1,0.3,1.5,0.3c0.7,0,1.1-0.2,1.1-0.6c0-0.2-0.2-0.3-0.5-0.4s-0.7-0.2-1.2-0.3c-0.5-0.1-0.9-0.2-1.4-0.3
			c-0.5-0.1-0.9-0.4-1.2-0.8C80.2,17.1,80,16.6,80,16c0-0.8,0.3-1.4,0.9-1.9s1.5-0.8,2.6-0.8c1.3,0,2.4,0.4,3.4,1.1l-1,1.7
			c-0.3-0.2-0.6-0.5-1-0.6c-0.4-0.2-0.9-0.3-1.4-0.3c-0.3,0-0.6,0.1-0.7,0.2c-0.2,0.1-0.3,0.3-0.3,0.4c0,0.2,0.2,0.3,0.5,0.4
			s0.7,0.2,1.2,0.3c0.5,0.1,0.9,0.2,1.4,0.4c0.5,0.2,0.9,0.4,1.2,0.8c0.3,0.4,0.5,0.9,0.5,1.5c0,0.8-0.3,1.5-1,2
			C85.7,21.6,84.8,21.8,83.6,21.8z"/>
	</g>
</g>
<g>
	<path class="st5" d="M9.9,21l-2.7-2.7l-2.5,2.5l3,3c1.2,1.2,3.1,1.2,4.3,0l3-3l-2.5-2.5L9.9,21z M17.3,14.3l-5.2-5.2
		C10.9,8,8.9,8,7.7,9.1l-5.2,5.2c-1.2,1.2-1.2,3.1,0,4.3L2.9,19l7-7l7,7l0.4-0.4C18.5,17.5,18.5,15.5,17.3,14.3"/>
	<path class="st4" d="M23.6,21.4V15H22v-2h1.6v-0.8c0-0.7,0.2-1.3,0.7-1.7c0.4-0.4,1.1-0.6,1.9-0.6h1.6v2h-1.3c-0.2,0-0.3,0-0.4,0.1
		c-0.1,0.1-0.1,0.2-0.1,0.4V13h2.2v2h-2.2v6.3H23.6z"/>
	<path class="st4" d="M31.8,21.6c-0.6,0-1.2-0.1-1.6-0.4c-0.4-0.2-0.8-0.6-1-1.1c-0.2-0.5-0.4-1-0.4-1.6V13h2.3v5
		c0,0.5,0.1,0.9,0.4,1.1c0.2,0.3,0.6,0.4,1.1,0.4c0.3,0,0.5-0.1,0.8-0.2c0.2-0.1,0.4-0.3,0.5-0.5c0.1-0.2,0.2-0.5,0.2-0.8v-5h2.3
		v8.3h-2.2v-0.7h0c-0.2,0.3-0.6,0.5-1,0.7C32.7,21.5,32.3,21.6,31.8,21.6"/>
	<path class="st4" d="M37.8,21.4V13H40v0.7h0c0.2-0.3,0.5-0.5,1-0.7c0.4-0.2,0.8-0.3,1.3-0.3c0.6,0,1.1,0.1,1.6,0.4
		c0.5,0.3,0.8,0.6,1.1,1.1c0.3,0.5,0.4,1.1,0.4,1.7v5.3h-2.3v-4.9c0-0.5-0.1-0.9-0.4-1.1c-0.3-0.3-0.6-0.4-1.1-0.4
		c-0.3,0-0.6,0.1-0.8,0.2c-0.2,0.1-0.4,0.3-0.5,0.5c-0.1,0.2-0.2,0.5-0.2,0.8v4.9H37.8z"/>
	<path class="st4" d="M48.3,21c-0.6-0.4-1-0.9-1.3-1.6c-0.3-0.7-0.5-1.4-0.5-2.3c0-0.8,0.2-1.6,0.5-2.3c0.3-0.7,0.8-1.2,1.3-1.6
		c0.6-0.4,1.2-0.6,1.9-0.6c0.4,0,0.8,0.1,1.2,0.2c0.4,0.1,0.7,0.3,0.9,0.5h0V9.9h2.3v11.5h-2.1v-0.8h0c-0.2,0.3-0.5,0.5-1,0.7
		c-0.4,0.2-0.8,0.3-1.3,0.3C49.5,21.6,48.9,21.4,48.3,21 M51.5,19.3c0.3-0.1,0.5-0.4,0.6-0.6c0.1-0.3,0.2-0.6,0.2-0.9v-1.2
		c0-0.3-0.1-0.6-0.2-0.9c-0.1-0.3-0.4-0.5-0.6-0.6c-0.3-0.2-0.6-0.2-0.9-0.2c-0.4,0-0.7,0.1-1,0.3c-0.3,0.2-0.5,0.5-0.6,0.8
		c-0.1,0.4-0.2,0.8-0.2,1.2c0,0.5,0.1,0.9,0.2,1.2c0.1,0.3,0.4,0.6,0.6,0.8c0.3,0.2,0.6,0.3,1,0.3C51,19.5,51.3,19.4,51.5,19.3"/>
	<path class="st4" d="M56.2,21.4V13h2.2v0.8h0c0.2-0.3,0.4-0.5,0.7-0.7c0.3-0.2,0.7-0.2,1.1-0.2c0.4,0,0.8,0,1.1,0.1l-0.4,2.2
		c-0.1,0-0.3-0.1-0.5-0.1c-0.2,0-0.3,0-0.4,0c-0.5,0-0.9,0.2-1.1,0.5s-0.4,0.8-0.4,1.4v4.4H56.2z"/>
	<path class="st4" d="M65.2,21.6c-0.7,0-1.4-0.1-2-0.3c-0.6-0.2-1-0.6-1.4-1c-0.3-0.4-0.6-1-0.7-1.6l2-0.5c0.1,0.6,0.4,1,0.7,1.2
		c0.3,0.3,0.8,0.4,1.3,0.4c0.2,0,0.4,0,0.6-0.1c0.2-0.1,0.3-0.1,0.4-0.2c0.1-0.1,0.1-0.2,0.1-0.4c0-0.1-0.1-0.3-0.2-0.4
		c-0.1-0.1-0.3-0.2-0.6-0.3c-0.3-0.1-0.7-0.3-1.3-0.4c-0.6-0.2-1.1-0.4-1.5-0.7c-0.4-0.2-0.7-0.5-0.9-0.8c-0.2-0.3-0.3-0.7-0.3-1.1
		c0-0.5,0.1-0.9,0.4-1.3c0.3-0.4,0.7-0.7,1.2-0.9c0.5-0.2,1-0.3,1.6-0.3c0.6,0,1.1,0.1,1.6,0.3c0.5,0.2,0.9,0.5,1.3,0.9
		c0.4,0.4,0.6,0.8,0.7,1.3l-2,0.6c-0.1-0.4-0.3-0.7-0.6-0.9c-0.3-0.2-0.6-0.3-1-0.3c-0.2,0-0.4,0-0.5,0.1c-0.2,0.1-0.3,0.1-0.3,0.2
		c-0.1,0.1-0.1,0.2-0.1,0.3c0,0.1,0,0.2,0.1,0.3c0.1,0.1,0.2,0.1,0.4,0.2c0.2,0.1,0.6,0.2,1.1,0.4c0.7,0.2,1.3,0.5,1.7,0.7
		c0.4,0.3,0.8,0.6,1,0.9c0.2,0.3,0.3,0.7,0.3,1.2c0,0.5-0.1,0.9-0.4,1.3c-0.3,0.4-0.7,0.7-1.2,0.9C66.4,21.5,65.8,21.6,65.2,21.6"/>
	<rect x="70.3" y="19.5" class="st4" width="1.9" height="1.8"/>
	<polygon class="st4" points="75.3,21.4 71.8,13 73.1,13 75.9,19.7 75.9,19.7 78.6,13 79.9,13 76.4,21.4 	"/>
	<path class="st4" d="M84,21.6c-0.8,0-1.4-0.2-2-0.5c-0.6-0.4-1-0.9-1.4-1.6c-0.3-0.7-0.5-1.4-0.5-2.3c0-0.9,0.2-1.6,0.5-2.3
		c0.3-0.7,0.8-1.2,1.4-1.6c0.6-0.4,1.3-0.5,2-0.5c0.6,0,1.2,0.1,1.7,0.4c0.5,0.2,0.9,0.6,1.3,1.1c0.3,0.5,0.5,1,0.6,1.6l-1.2,0.3
		c-0.1-0.7-0.4-1.2-0.8-1.6c-0.4-0.4-1-0.6-1.6-0.6c-0.5,0-1,0.1-1.4,0.4c-0.4,0.3-0.7,0.7-0.9,1.1c-0.2,0.5-0.3,1.1-0.3,1.7
		c0,0.6,0.1,1.2,0.3,1.7c0.2,0.5,0.5,0.9,0.9,1.1c0.4,0.3,0.9,0.4,1.4,0.4c0.6,0,1.2-0.2,1.6-0.6c0.4-0.4,0.7-0.9,0.8-1.6l1.2,0.3
		c-0.1,0.6-0.3,1.2-0.6,1.6c-0.3,0.5-0.7,0.8-1.3,1.1C85.2,21.5,84.7,21.6,84,21.6"/>
</g>
</svg>
