<?xml version="1.0" encoding="utf-8"?>
<!-- Generator: Adobe Illustrator 27.1.1, SVG Export Plug-In . SVG Version: 6.00 Build 0)  -->
<svg version="1.1" id="Layer_1" xmlns="http://www.w3.org/2000/svg" xmlns:xlink="http://www.w3.org/1999/xlink" x="0px" y="0px"
	 viewBox="0 0 383.5 73.5" style="enable-background:new 0 0 383.5 73.5;" xml:space="preserve">
<style type="text/css">
	.st0{fill:#FF1F30;}
	.st1{fill:#FFFFFF;}
</style>
<path class="st0" d="M36.8,56.7L25,44.8L13.7,56.1l13.4,13.4c5.4,5.3,14,5.3,19.4,0l13.2-13.2L48.5,45.1L36.8,56.7z M69.6,27.1
	L46.5,4c-5.4-5.3-14-5.3-19.4,0L4,27.1c-5.3,5.4-5.3,14,0,19.4L5.5,48l31.3-31.2l31.1,31.3l1.7-1.7C74.9,41.1,74.9,32.4,69.6,27.1
	L69.6,27.1z"/>
<path class="st1" d="M97.7,58.4V30.2h-7.2v-8.9h7.2v-3.8c-0.2-2.9,0.9-5.7,3-7.7c2-1.8,4.8-2.8,8.5-2.8h7.1v8.9h-5.7
	c-0.7-0.1-1.4,0.2-2,0.7c-0.5,0.5-0.7,1.2-0.7,1.9v2.8h9.8v8.9h-9.9v28.2L97.7,58.4z"/>
<path class="st1" d="M134.5,59.5c-2.5,0.1-5-0.5-7.2-1.6c-2-1.1-3.5-2.7-4.5-4.7c-1.1-2.3-1.6-4.8-1.6-7.4V21.3h10.2v22.1
	c-0.1,1.8,0.4,3.6,1.6,5.1c1.3,1.2,3,1.9,4.8,1.7c1.2,0,2.4-0.3,3.4-0.8c1-0.5,1.8-1.4,2.2-2.4c0.5-1.1,0.8-2.3,0.8-3.6V21.3h10.2
	v37.1h-9.7v-3.3h-0.1c-1.2,1.4-2.6,2.5-4.3,3.1C138.4,59.1,136.5,59.5,134.5,59.5z"/>
<path class="st1" d="M161.3,58.4V21.3h9.7v3.3h0.1c1.1-1.4,2.6-2.5,4.3-3.1c1.8-0.8,3.8-1.2,5.8-1.2c2.5-0.1,5,0.6,7.1,1.8
	c2.1,1.2,3.7,3,4.8,5.1c1.2,2.4,1.8,5,1.8,7.6v23.7h-10.2v-22c0.1-1.8-0.5-3.6-1.8-5c-1.3-1.2-3.1-1.9-4.9-1.8
	c-1.2,0-2.5,0.2-3.6,0.8c-1,0.5-1.8,1.4-2.3,2.4c-0.6,1.1-0.9,2.4-0.8,3.6v22L161.3,58.4z"/>
<path class="st1" d="M208,56.9c-2.6-1.7-4.6-4.2-5.9-7c-1.5-3.1-2.2-6.5-2.1-10c-0.1-3.5,0.7-7,2.1-10.1c1.3-2.8,3.3-5.3,5.9-7
	c2.5-1.7,5.5-2.6,8.5-2.5c1.8,0,3.6,0.3,5.2,0.8c1.5,0.5,3,1.4,4.2,2.5h0.1V7.3h10.1v51.1h-9.4V55h-0.1c-1.1,1.4-2.6,2.5-4.3,3.1
	c-1.9,0.8-3.9,1.2-5.9,1.2C213.6,59.4,210.6,58.6,208,56.9z M222.5,49.2c1.2-0.6,2.1-1.6,2.7-2.8c0.7-1.2,1-2.6,1-4v-5.2
	c0-1.4-0.3-2.8-1-4c-0.7-1.1-1.6-2.1-2.8-2.7c-1.2-0.7-2.6-1-4-1c-1.6,0-3.2,0.4-4.5,1.2c-1.3,0.9-2.3,2.1-2.8,3.6
	c-0.7,1.8-1,3.7-1,5.6c0,1.9,0.3,3.8,1,5.5c0.6,1.4,1.6,2.7,2.8,3.5c1.4,0.9,3,1.3,4.6,1.2C219.9,50.1,221.3,49.8,222.5,49.2z"/>
<path class="st1" d="M243.3,58.4V21.3h9.6v3.4h0.1c0.7-1.3,1.8-2.3,3.2-3c1.5-0.7,3.1-1.1,4.7-1c1.6,0,3.3,0.2,4.8,0.6l-1.8,9.6
	c-0.7-0.1-1.3-0.3-2-0.4c-0.7-0.1-1.3-0.2-2-0.2c-1.9-0.1-3.8,0.6-5,2.1c-1.1,1.4-1.7,3.5-1.7,6.2v19.8L243.3,58.4z"/>
<path class="st1" d="M283.2,59.5c-3,0.1-6-0.5-8.8-1.5c-2.4-0.9-4.5-2.4-6.1-4.4c-1.6-2.1-2.7-4.5-3.1-7.1l9-2.5
	c0.4,2.1,1.4,4,3,5.5c1.7,1.2,3.9,1.8,6,1.7c0.9,0,1.7-0.1,2.5-0.4c0.7-0.2,1.3-0.5,1.8-1c0.4-0.4,0.6-1,0.6-1.6
	c0-0.6-0.2-1.3-0.7-1.7c-0.8-0.7-1.6-1.2-2.6-1.5c-1.2-0.5-3.1-1.2-5.6-2c-2.4-0.7-4.7-1.7-6.9-2.9c-1.6-0.9-2.9-2.2-3.9-3.7
	c-0.8-1.5-1.3-3.2-1.2-4.9c0-2,0.6-4,1.8-5.6c1.4-1.8,3.1-3.2,5.2-4.1c2.3-1,4.8-1.5,7.3-1.5c2.4,0,4.9,0.5,7.1,1.4
	c2.2,0.9,4.1,2.2,5.7,3.9c1.5,1.6,2.6,3.5,3.2,5.7l-9,2.6c-0.4-1.6-1.4-2.9-2.7-3.9c-1.3-0.9-2.8-1.4-4.4-1.3
	c-0.8,0-1.5,0.1-2.3,0.4c-0.6,0.2-1.1,0.5-1.5,1c-0.3,0.4-0.5,0.9-0.5,1.5c0,0.5,0.2,0.9,0.5,1.2c0.6,0.5,1.3,0.8,2,1.1
	c1,0.4,2.6,1,5,1.8c2.7,0.8,5.2,1.9,7.7,3.3c1.7,1,3.3,2.4,4.4,4c2.2,3.5,2,7.9-0.5,11.2c-1.4,1.8-3.3,3.2-5.4,4.1
	C288.5,59.1,285.9,59.6,283.2,59.5z"/>
<path class="st1" d="M305.9,58.4v-8.1h8.3v8.1H305.9z"/>
<path class="st1" d="M328.6,58.4l-15.7-37.1h5.9l12.1,29.6h0.1l12.1-29.6h5.9l-15.7,37.1H328.6z"/>
<path class="st1" d="M367.4,59.5c-3.2,0.1-6.3-0.8-9-2.5c-2.7-1.7-4.8-4.1-6.1-6.9c-2.9-6.5-2.9-13.9,0-20.4
	c1.3-2.9,3.4-5.3,6.1-6.9c2.7-1.7,5.8-2.5,9-2.5c2.6,0,5.3,0.5,7.7,1.6c2.3,1.1,4.2,2.7,5.6,4.7c1.5,2.1,2.5,4.6,2.9,7.2l-5.3,1.1
	c-0.4-2.7-1.6-5.2-3.6-7c-3.8-3.1-9.2-3.4-13.3-0.7c-1.8,1.3-3.3,3.1-4.1,5.1c-2,4.8-2,10.3,0,15.1c0.9,2.1,2.3,3.8,4.1,5.1
	c4.1,2.7,9.5,2.4,13.3-0.7c2-1.8,3.3-4.3,3.6-7l5.3,1.1c-0.4,2.6-1.4,5-2.9,7.2c-1.4,2-3.4,3.6-5.6,4.7
	C372.6,58.9,370,59.5,367.4,59.5z"/>
</svg>
