<?xml version="1.0" encoding="utf-8"?>
<!-- Generator: Adobe Illustrator 27.2.0, SVG Export Plug-In . SVG Version: 6.00 Build 0)  -->
<svg version="1.1" id="Layer_1" xmlns:v="https://vecta.io/nano"
	 xmlns="http://www.w3.org/2000/svg" xmlns:xlink="http://www.w3.org/1999/xlink" x="0px" y="0px" viewBox="0 0 78 78"
	 style="enable-background:new 0 0 78 78;" xml:space="preserve">
<style type="text/css">
	.st0{clip-path:url(#SVGID_00000017502045741490623750000007963619192903665547_);}
	.st1{fill:#FFBA08;}
	.st2{opacity:0.3;fill:#EF4444;enable-background:new    ;}
	.st3{fill:url(#SVGID_00000079456885221568449480000007401539255795551878_);}
	.st4{fill:url(#SVGID_00000072238177488210494730000002873678913066796473_);}
</style>
<g>
	<defs>
		<rect id="SVGID_1_" width="78" height="78"/>
	</defs>
	<clipPath id="SVGID_00000162349707706979825790000010857896732024662970_">
		<use xlink:href="#SVGID_1_"  style="overflow:visible;"/>
	</clipPath>
	<g style="clip-path:url(#SVGID_00000162349707706979825790000010857896732024662970_);">
		<path class="st1" d="M47.2,65c0,7.2-5.8,13-13,13s-13-5.8-13-13s5.8-13,13-13S47.2,57.8,47.2,65z"/>
		<path class="st2" d="M47.2,65c0,7.2-5.8,13-13,13s-13-5.8-13-13s5.8-13,13-13S47.2,57.8,47.2,65z"/>
		
			<linearGradient id="SVGID_00000021091069025656185780000018097758884252511625_" gradientUnits="userSpaceOnUse" x1="1.249" y1="19.358" x2="63.249" y2="54.358" gradientTransform="matrix(1 0 0 -1 0 80)">
			<stop  offset="0" style="stop-color:#FFBA08"/>
			<stop  offset="1" style="stop-color:#FFDB7E"/>
		</linearGradient>
		<path style="fill:url(#SVGID_00000021091069025656185780000018097758884252511625_);" d="M57,38.7c-11-1.6-19.5-11-19.5-22.5
			c0-3.1,0.7-6.3,1.9-9.1c-1.7-0.4-3.4-0.6-5.2-0.6c-12.5,0-22.8,10.2-22.8,22.8v9.1c0,6.4-2.8,12.5-7.8,16.7c-1.3,1.1-2,2.7-2,4.3
			c0,3.1,2.6,5.7,5.7,5.7H61c3.1,0,5.7-2.6,5.7-5.7c0-1.7-0.7-3.2-2-4.3C59.9,50.9,57.1,45,57,38.7L57,38.7z"/>
		
			<linearGradient id="SVGID_00000037681547001646327010000003974113588494518699_" gradientUnits="userSpaceOnUse" x1="49.2763" y1="39.4594" x2="66.7763" y2="78.4594" gradientTransform="matrix(1 0 0 -1 0 80)">
			<stop  offset="0" style="stop-color:#FF1F30"/>
			<stop  offset="1" style="stop-color:#E31B2C"/>
		</linearGradient>
		<path style="fill:url(#SVGID_00000037681547001646327010000003974113588494518699_);" d="M76.4,16.2c0,9-7.3,16.2-16.2,16.2
			s-16.2-7.3-16.2-16.2S51.2,0,60.2,0S76.4,7.3,76.4,16.2z"/>
	</g>
</g>
</svg>
