<?xml version="1.0" standalone="no"?>
<!DOCTYPE svg PUBLIC "-//W3C//DTD SVG 20010904//EN"
 "http://www.w3.org/TR/2001/REC-SVG-20010904/DTD/svg10.dtd">
<svg version="1.0" xmlns="http://www.w3.org/2000/svg"
 width="1107.000000pt" height="1107.000000pt" viewBox="0 0 1107.000000 1107.000000"
 preserveAspectRatio="xMidYMid meet">
<metadata>
Created by potrace 1.14, written by Peter Selinger 2001-2017
</metadata>
<g transform="translate(0.000000,1107.000000) scale(0.100000,-0.100000)"
fill="#000000" stroke="none">
<path d="M5457 11063 c-1 0 -38 -4 -82 -7 -398 -29 -749 -161 -1095 -414 -48
-35 -722 -701 -1903 -1881 -1535 -1533 -1900 -1904 -1985 -2016 -145 -191
-307 -556 -346 -778 -3 -15 -10 -54 -16 -86 -6 -32 -13 -78 -16 -102 -10 -68
-12 -415 -4 -462 4 -23 11 -64 14 -92 3 -27 8 -57 10 -65 1 -8 6 -33 10 -55
25 -128 94 -331 157 -460 121 -249 222 -387 464 -633 l160 -163 547 543 c300
299 1050 1045 1667 1658 2118 2107 2484 2470 2492 2470 6 0 515 -508 1184
-1185 169 -170 720 -726 1225 -1235 505 -509 1060 -1069 1235 -1245 174 -176
477 -481 673 -678 l357 -358 176 178 c96 98 200 210 231 248 150 190 268 406
343 630 26 78 52 171 59 215 2 8 7 33 11 55 12 61 13 66 20 130 3 33 8 75 11
94 14 104 1 413 -21 491 -2 8 -7 35 -10 59 -4 23 -11 55 -16 70 -6 14 -10 27
-9 29 8 14 -50 198 -102 320 -75 178 -188 364 -311 512 -93 111 -3649 3667
-3747 3746 -96 78 -254 182 -361 237 -168 87 -396 167 -549 192 -19 3 -59 10
-88 15 -77 14 -376 32 -385 23z"/>
<path d="M2900 3465 l-845 -845 1060 -1058 c1036 -1034 1128 -1122 1300 -1234
252 -164 571 -277 880 -314 104 -12 391 -11 487 3 199 27 375 73 533 138 11 5
22 9 25 9 23 5 212 105 281 149 190 119 247 173 1304 1228 l1050 1049 -847
847 -848 848 -875 -875 -875 -875 -888 888 c-488 488 -889 887 -892 887 -3 0
-385 -380 -850 -845z"/>
</g>
</svg>
