<?xml version="1.0" standalone="no"?>
<!DOCTYPE svg PUBLIC "-//W3C//DTD SVG 20010904//EN"
 "http://www.w3.org/TR/2001/REC-SVG-20010904/DTD/svg10.dtd">
<svg version="1.0" xmlns="http://www.w3.org/2000/svg"
 width="1536.000000pt" height="1536.000000pt" viewBox="0 0 1536.000000 1536.000000"
 preserveAspectRatio="xMidYMid meet">
<metadata>
Created by potrace 1.14, written by Peter Selinger 2001-2017
</metadata>
<g transform="translate(0.000000,1536.000000) scale(0.100000,-0.100000)"
fill="#000000" stroke="none">
<path d="M4067 10704 c-1 -1 -40 -4 -87 -7 -270 -19 -526 -104 -731 -240 -309
-207 -522 -520 -593 -872 -25 -126 -27 -148 -32 -360 -3 -110 -7 -204 -8 -210
-2 -6 -126 -10 -347 -10 l-344 0 -3 -588 -2 -587 232 1 c128 0 286 0 351 0
l117 -1 0 -1527 0 -1528 667 2 c368 1 671 2 676 2 4 1 7 687 7 1526 l0 1525
113 1 c61 0 254 1 427 2 l315 2 0 585 0 585 -425 0 -425 0 1 170 c0 163 2 173
29 239 35 85 115 170 199 211 186 91 458 55 610 -80 36 -32 40 -33 52 -17 7 9
14 21 14 25 0 4 5 13 11 20 6 7 48 69 92 139 45 70 146 227 225 349 166 255
163 218 27 324 -133 102 -241 161 -405 217 -151 51 -298 79 -500 94 -70 5
-260 11 -263 8z"/>
<path d="M11489 9106 c-2 -2 -38 -6 -79 -10 -219 -18 -506 -90 -715 -179 -380
-162 -744 -468 -967 -812 -128 -199 -241 -480 -283 -705 -30 -166 -48 -347
-48 -495 0 -64 13 -297 18 -323 2 -10 6 -43 10 -73 4 -30 11 -74 17 -99 5 -25
12 -56 14 -70 22 -119 127 -414 175 -490 5 -8 13 -25 19 -37 17 -39 92 -155
164 -253 80 -109 239 -276 341 -358 39 -31 72 -60 75 -63 21 -26 256 -170 363
-223 109 -53 309 -130 393 -151 258 -65 446 -88 719 -89 159 0 318 8 373 19
11 2 43 6 73 10 30 3 104 18 164 31 444 100 862 357 1100 678 l29 39 -79 74
c-44 41 -136 128 -205 193 -69 65 -141 132 -160 150 -31 29 -81 76 -350 329
-41 39 -80 71 -85 71 -6 0 -19 -13 -28 -30 -28 -46 -157 -171 -222 -214 -87
-58 -212 -115 -290 -132 -267 -58 -542 -24 -755 94 -307 171 -478 479 -483
872 -2 166 6 250 38 369 95 355 392 619 760 676 70 11 267 13 340 3 250 -33
464 -154 602 -341 23 -31 39 -45 48 -40 11 7 130 116 254 233 20 19 86 80 145
135 59 55 127 118 151 140 107 101 260 243 288 267 l30 28 -29 42 c-155 224
-501 475 -819 593 -157 59 -353 107 -489 120 -28 3 -62 8 -76 11 -28 7 -534
16 -541 10z"/>
<path d="M5105 9000 c-2 -3 31 -90 72 -195 41 -104 109 -275 149 -380 41 -104
79 -199 84 -210 8 -18 105 -264 410 -1045 51 -129 98 -248 105 -265 7 -16 28
-68 45 -115 18 -47 38 -98 46 -115 7 -16 19 -48 27 -70 15 -43 320 -820 342
-870 7 -16 61 -154 120 -305 111 -285 113 -292 138 -350 8 -19 36 -91 63 -160
26 -69 51 -129 55 -134 6 -7 1344 -13 1425 -7 6 1 23 31 39 69 15 37 33 81 40
97 7 17 27 68 45 115 17 47 36 94 41 105 5 11 47 117 93 235 46 118 109 278
139 355 30 77 76 194 102 260 25 66 50 129 55 140 12 27 180 456 180 460 0 1
8 20 17 41 9 22 18 44 19 49 2 6 27 71 57 145 29 74 107 270 171 435 65 165
121 309 126 320 5 11 32 79 60 150 28 72 55 139 59 150 5 11 28 70 51 130 50
132 137 352 150 380 5 11 21 52 35 90 14 39 30 79 35 90 8 18 160 404 160 408
0 1 -319 2 -710 2 -458 0 -712 -4 -718 -10 -5 -6 -19 -39 -31 -75 -12 -36 -26
-74 -31 -85 -4 -11 -27 -74 -50 -140 -23 -66 -53 -149 -67 -185 -14 -36 -26
-72 -28 -80 -2 -8 -10 -33 -19 -55 -13 -35 -162 -449 -262 -730 -32 -89 -44
-122 -74 -200 -4 -11 -33 -90 -63 -175 -319 -896 -335 -936 -347 -905 -22 60
-58 161 -68 190 -6 17 -33 95 -62 175 -28 80 -58 165 -66 190 -9 25 -21 59
-29 75 -7 17 -16 41 -20 55 -4 14 -38 111 -75 215 -38 105 -117 325 -175 490
-59 165 -126 354 -150 420 -24 66 -69 192 -100 280 -31 88 -61 174 -68 190 -6
17 -12 32 -12 35 0 3 -26 77 -58 165 l-58 160 -705 0 c-388 0 -707 -2 -709 -5z"/>
<path d="M5079 6316 c-2 -2 -25 -7 -50 -10 -141 -19 -333 -127 -450 -253 -79
-86 -154 -214 -188 -323 -70 -225 -25 -502 113 -693 236 -329 627 -449 988
-302 195 79 392 286 467 487 78 213 55 478 -58 670 -50 85 -50 85 -152 187
-113 113 -222 178 -369 218 -50 14 -290 29 -301 19z"/>
</g>
</svg>
