<?xml version="1.0" encoding="utf-8"?>
<!-- Generator: Adobe Illustrator 27.1.1, SVG Export Plug-In . SVG Version: 6.00 Build 0)  -->
<svg version="1.1" id="Layer_1" xmlns="http://www.w3.org/2000/svg" xmlns:xlink="http://www.w3.org/1999/xlink" x="0px" y="0px"
	 viewBox="0 0 154 36" style="enable-background:new 0 0 154 36;" xml:space="preserve">
<style type="text/css">
	.st0{fill:#B4B7C9;}
	.st1{fill-rule:evenodd;clip-rule:evenodd;fill:#B4B7C9;}
</style>
<g>
	<path class="st0" d="M92.3,14.5l2.1,5.5h-4.1L92.3,14.5z M91.6,12.6L87,24.7h1.7l1.2-3.3H95l1.2,3.3h1.7l-4.6-12.1H91.6L91.6,12.6z
		 M116.3,24.7h1.6V12.6h-1.6V24.7z M100.2,17.6c0.5-0.8,1.6-1.4,2.6-1.4c2.1,0,3.1,1.4,3.1,3.5v5.1h-1.6V20c0-1.7-0.9-2.4-2.1-2.4
		c-1.3,0-2.2,1.3-2.2,2.5v4.6h-1.6v-8.4h1.6L100.2,17.6L100.2,17.6z M107.3,22.2c0-1.8,1.7-2.9,3.7-2.9c1.2,0,2,0.3,2.2,0.5v-0.3
		c0-1.3-1-2-2.1-2c-0.9,0-1.7,0.4-2,1.2l-1.4-0.7c0.3-0.8,1.3-2,3.4-2c2,0,3.7,1.2,3.7,3.5v5h-1.4v-1.2h-0.1
		c-0.4,0.7-1.3,1.4-2.8,1.4C108.7,25,107.3,23.9,107.3,22.2 M113.2,21.2c0,0-0.7-0.5-2-0.5c-1.6,0-2.2,0.9-2.2,1.6
		c0,0.9,0.9,1.3,1.7,1.3C111.9,23.5,113.2,22.5,113.2,21.2"/>
	<path class="st1" d="M120.1,28.4L122,24l-3.3-7.6h1.6l2.5,5.8l2.5-5.8h1.6l-5.1,11.9H120.1L120.1,28.4z M143.2,19.2
		c-0.4-1-1.3-1.7-2.2-1.7c-1.3,0-2.5,1.2-2.5,2.9c0,1.7,1.2,2.9,2.5,2.9c0.9,0,1.8-0.7,2.2-1.6l1.3,0.8c-0.7,1.4-2,2.4-3.5,2.4
		c-2.2,0-4.1-2-4.1-4.5c0-2.6,1.8-4.5,4.1-4.5c1.6,0,2.9,0.9,3.5,2.4L143.2,19.2L143.2,19.2z"/>
	<path class="st0" d="M148.9,25c2.1,0,3.1-1.2,3.1-2.6c0-3.1-4.6-2-4.6-3.8c0-0.7,0.5-1,1.4-1s1.8,0.4,2.2,1l0.9-0.9
		c-0.5-0.7-2-1.6-3.3-1.6c-2,0-3,1.2-3,2.6c0,3,4.7,2,4.7,3.5c0,0.8-0.5,1.3-1.6,1.3s-1.6-0.7-2.1-1.3l-1.2,0.9
		C146.4,23.9,147.5,25,148.9,25L148.9,25z M133.9,24.7h1.6v-8.4h-1.6V24.7L133.9,24.7z"/>
	<path class="st1" d="M134.6,12.2c0.7,0,1,0.5,1,1c0,0.7-0.5,1-1,1s-1-0.5-1-1S134,12.2,134.6,12.2z M132.3,23.4l0.3,1.2H131
		c-1.4,0-2.1-1-2.1-2.6v-4.1h-1.6v-1.6h1.6v-2.5h1.6v2.5h1.8v1.6h-1.8v4.3C130.5,23.4,131.4,23.4,132.3,23.4L132.3,23.4z"/>
	<path class="st0" d="M35.7,17.5v2h4.6c-0.1,1-0.5,1.8-1,2.4c-0.7,0.7-1.7,1.4-3.5,1.4c-2.8,0-5-2.2-5-5.1c0-2.8,2.2-5.1,5-5.1
		c1.6,0,2.6,0.7,3.4,1.3l1.3-1.3c-1.2-1-2.6-2-4.7-2c-3.8,0-7.1,3.1-7.1,7s3.3,6.9,7.1,6.9c2.1,0,3.7-0.7,4.9-2
		c1.3-1.3,1.7-3,1.7-4.5c0-0.4,0-0.9-0.1-1.2h-6.4L35.7,17.5z M47.4,15.9c-2.5,0-4.5,1.8-4.5,4.5s2,4.5,4.5,4.5c2.5,0,4.5-2,4.5-4.5
		C51.8,17.8,49.8,15.9,47.4,15.9z M47.4,23.1c-1.3,0-2.5-1.2-2.5-2.8s1.2-2.8,2.5-2.8c1.3,0,2.5,1,2.5,2.8
		C49.8,22.1,48.7,23.1,47.4,23.1z M68.9,16.8c-0.5-0.5-1.3-1-2.5-1c-2.2,0-4.2,2-4.2,4.5s2,4.5,4.2,4.5c1,0,2-0.5,2.4-1h0.1v0.7
		c0,1.7-0.9,2.6-2.4,2.6c-1.2,0-2-0.9-2.2-1.6L62.6,26c0.5,1.2,1.8,2.6,3.9,2.6c2.4,0,4.3-1.3,4.3-4.7v-8.1H69v1L68.9,16.8z
		 M66.6,23.1c-1.3,0-2.4-1.2-2.4-2.8s1-2.8,2.4-2.8c1.3,0,2.4,1.2,2.4,2.8S67.9,23.1,66.6,23.1z M57.1,15.9c-2.5,0-4.5,1.8-4.5,4.5
		s2,4.5,4.5,4.5c2.5,0,4.5-2,4.5-4.5C61.7,17.8,59.6,15.9,57.1,15.9z M57.1,23.1c-1.3,0-2.5-1.2-2.5-2.8s1.2-2.8,2.5-2.8
		c1.3,0,2.5,1,2.5,2.8C59.6,22.1,58.4,23.1,57.1,23.1z M72.3,11.2h2v13.6h-2V11.2z M79.6,23.1c-1,0-1.7-0.5-2.2-1.3l6-2.5l-0.3-0.5
		c-0.4-1-1.6-2.9-3.8-2.9c-2.4,0-4.2,1.8-4.2,4.5c0,2.5,2,4.5,4.5,4.5c2.1,0,3.3-1.3,3.8-2l-1.6-1C81.3,22.6,80.7,23.1,79.6,23.1
		L79.6,23.1z M79.5,17.6c0.8,0,1.4,0.4,1.7,1l-4.1,1.7C77.1,18.4,78.4,17.6,79.5,17.6L79.5,17.6z"/>
</g>
<g transform="matrix(.264928 0 0 .264927 28.551061 -25.049684)">
	<path class="st0" d="M-44.2,128.3v67.3c0,7.5,5.2,11.7,10.7,11.7c5.1,0,10.7-3.6,10.7-11.7v-66.8c0-6.9-5.1-11.2-10.7-11.2
		S-44.2,122.4-44.2,128.3z"/>
	<g>
		<path class="st0" d="M-72.2,162.5v33.1c0,7.5,5.2,11.7,10.7,11.7c5.1,0,10.7-3.6,10.7-11.7V163c0-6.9-5.1-11.2-10.7-11.2
			S-72.2,156.5-72.2,162.5z"/>
		<circle class="st0" cx="-89.5" cy="196.6" r="10.7"/>
	</g>
</g>
</svg>
