<?xml version="1.0" encoding="utf-8"?>
<!-- Generator: Adobe Illustrator 27.1.1, SVG Export Plug-In . SVG Version: 6.00 Build 0)  -->
<svg version="1.1" id="Layer_1" xmlns="http://www.w3.org/2000/svg" xmlns:xlink="http://www.w3.org/1999/xlink" x="0px" y="0px"
	 viewBox="0 0 154 36" style="enable-background:new 0 0 154 36;" xml:space="preserve">
<style type="text/css">
	.st0{fill:#B4B7C9;}
	.st1{fill-rule:evenodd;clip-rule:evenodd;fill:#B4B7C9;}
</style>
<path class="st1" d="M113.1,18.5c0-5.1-2.5-9.2-7.2-9.2c-4.8,0-7.7,4-7.7,9.1c0,6,3.4,9.1,8.3,9.1c2.4,0,4.2-0.5,5.5-1.3v-4
	c-1.4,0.7-2.9,1.1-4.9,1.1c-1.9,0-3.7-0.7-3.9-3h9.8C113,20,113,19,113.1,18.5L113.1,18.5z M103.2,16.6c0-2.3,1.4-3.2,2.6-3.2
	c1.2,0,2.5,0.9,2.5,3.2H103.2z M90.4,9.3c-2,0-3.2,0.9-3.9,1.6l-0.3-1.2h-4.4V33l5-1.1l0-5.7c0.7,0.5,1.8,1.3,3.5,1.3
	c3.6,0,6.8-2.9,6.8-9.2C97.2,12.5,93.9,9.3,90.4,9.3L90.4,9.3z M89.2,23.1c-1.2,0-1.9-0.4-2.4-0.9l0-7.4c0.5-0.6,1.2-1,2.4-1
	c1.8,0,3.1,2,3.1,4.7C92.3,21.1,91.1,23.1,89.2,23.1z M75,8.1l5-1.1V3l-5,1.1V8.1z M75,9.7h5v17.5h-5V9.7z M69.6,11.1l-0.3-1.5h-4.3
	v17.5h5V15.3c1.2-1.5,3.2-1.3,3.8-1V9.7C73.1,9.4,70.8,9,69.6,11.1L69.6,11.1z M59.6,5.3l-4.9,1l0,16c0,3,2.2,5.1,5.2,5.1
	c1.6,0,2.8-0.3,3.5-0.7v-4.1c-0.6,0.3-3.8,1.2-3.8-1.8v-7.1h3.8V9.7h-3.8L59.6,5.3z M46,14.7c0-0.8,0.6-1.1,1.7-1.1
	c1.7,0,3.4,0.5,5,1.3v-4.7c-1.7-0.7-3.3-0.9-5-0.9c-4.1,0-6.8,2.1-6.8,5.7c0,5.5,7.6,4.6,7.6,7c0,0.9-0.8,1.2-1.9,1.2
	c-1.7,0-3.8-0.7-5.5-1.6v4.8c1.9,0.8,3.7,1.1,5.5,1.1c4.2,0,7-2.1,7-5.6C53.6,15.9,46,17,46,14.7L46,14.7z"/>
</svg>
