<?xml version="1.0" encoding="utf-8"?>
<!-- Generator: Adobe Illustrator 27.1.1, SVG Export Plug-In . SVG Version: 6.00 Build 0)  -->
<svg version="1.1" id="Layer_1" xmlns="http://www.w3.org/2000/svg" xmlns:xlink="http://www.w3.org/1999/xlink" x="0px" y="0px"
	 viewBox="0 0 154 36" style="enable-background:new 0 0 154 36;" xml:space="preserve">
<style type="text/css">
	.st0{fill:#B4B7C9;}
	.st1{fill-rule:evenodd;clip-rule:evenodd;fill:#B4B7C9;}
</style>
<g>
	<path class="st0" d="M64.8,17.3c-0.2,0.1-0.3,0.3-0.3,0.5c0,0.2,0,0.3,0.1,0.4c0,0.1,0.1,0.1,0.2,0.2c0,0,0.3,0.2,0.8,0.2
		c0.4,0,0.8-0.1,0.8-0.1v-1.3c0,0-0.4-0.1-0.8-0.1C65,17.1,64.8,17.3,64.8,17.3z"/>
	<path class="st0" d="M83.2,15.4c-0.4,0-0.6,0.1-0.8,0.4c-0.2,0.3-0.3,0.6-0.3,1.1c0,0.5,0.1,0.9,0.3,1.1c0.2,0.3,0.4,0.4,0.8,0.4
		c0.4,0,0.6-0.1,0.8-0.4c0.2-0.3,0.3-0.6,0.3-1.1c0-0.5-0.1-0.9-0.3-1.1C83.9,15.6,83.6,15.4,83.2,15.4z"/>
	<path class="st0" d="M71.9,15.4c-0.4,0-0.6,0.1-0.8,0.4c-0.1,0.2-0.2,0.4-0.2,0.7l2,0c0-0.3-0.1-0.5-0.2-0.7
		C72.5,15.6,72.3,15.4,71.9,15.4z"/>
	<path class="st0" d="M90.8,5.6c-1.5,0-2.9,0.3-4.2,0.9c-1.5-2.7-4.3-4.4-7.5-4.4c-2.4,0-4.6,1-6.2,2.6C71.2,2.5,68.5,1,65.4,1
		C60.2,1,56,5.2,56,10.4c0,1.3,0.3,2.6,0.8,3.7c-2.4,1.4-4.1,4.1-4.1,7.1c0,4.5,3.6,8.2,8.1,8.2c0.6,0,1.1-0.1,1.7-0.2
		c1.2,3.3,4.4,5.7,8.2,5.7c3.6,0,6.7-2.2,8-5.3c1,0.5,2.1,0.8,3.3,0.8c2.9,0,5.4-1.6,6.7-3.9c0.7,0.1,1.4,0.2,2.1,0.2
		c5.8,0,10.5-4.7,10.5-10.6C101.3,10.3,96.6,5.6,90.8,5.6z M63.1,17.9c0,0.9-0.6,1.4-1.6,1.4c-0.5,0-1-0.1-1.5-0.3
		c-0.1-0.1-0.2-0.1-0.3-0.2c0,0-0.1,0,0-0.1l0.2-0.5c0-0.1,0.1-0.1,0.1,0c0.1,0,0.1,0.1,0.2,0.1c0.6,0.4,1.1,0.4,1.3,0.4
		c0.4,0,0.7-0.2,0.7-0.5v0c0-0.3-0.4-0.5-0.9-0.6l-0.1,0c-0.7-0.2-1.4-0.5-1.4-1.3v0c0-0.8,0.6-1.3,1.5-1.3l0.1,0
		c0.5,0,1.1,0.2,1.4,0.4c0,0,0.1,0.1,0,0.1c0,0-0.2,0.5-0.2,0.5c0,0.1-0.1,0-0.1,0c-0.3-0.2-0.8-0.3-1.3-0.3c-0.4,0-0.6,0.2-0.6,0.5
		v0c0,0.3,0.4,0.5,0.9,0.6l0.1,0C62.4,16.8,63.1,17.1,63.1,17.9L63.1,17.9z M67.2,19c0,0-0.1,0-0.2,0c-0.1,0-0.4,0.1-0.7,0.1
		c-0.3,0-0.6,0.1-0.9,0.1c-0.3,0-0.5,0-0.7-0.1c-0.2-0.1-0.4-0.1-0.6-0.2c-0.2-0.1-0.3-0.3-0.4-0.4c-0.1-0.2-0.1-0.4-0.1-0.6
		c0-0.2,0.1-0.5,0.2-0.6c0.1-0.2,0.2-0.3,0.4-0.5c0.2-0.1,0.4-0.2,0.6-0.3c0.2-0.1,0.5-0.1,0.7-0.1c0.2,0,0.3,0,0.4,0
		c0,0,0.2,0,0.5,0.1v-0.1c0-0.4-0.1-0.6-0.2-0.7c-0.2-0.1-0.4-0.2-0.7-0.2c0,0-0.7,0-1.2,0.3c0,0,0,0,0,0s-0.1,0-0.1,0l-0.2-0.5
		c0-0.1,0-0.1,0-0.1c0.3-0.2,0.9-0.3,0.9-0.3c0.2,0,0.5-0.1,0.8-0.1c0.6,0,1,0.1,1.3,0.4c0.3,0.3,0.4,0.7,0.4,1.2L67.2,19
		C67.3,18.9,67.3,19,67.2,19z M69.1,19.1C69.1,19.1,69,19.1,69.1,19.1l-0.8,0.1c0,0-0.1,0-0.1-0.1v-6c0,0,0-0.1,0.1-0.1H69
		c0,0,0.1,0,0.1,0.1V19.1z M73.7,17.1C73.7,17.2,73.7,17.2,73.7,17.1l-2.9,0.1c0,0.4,0.1,0.7,0.3,0.9c0.2,0.2,0.5,0.3,1,0.3
		c0.7,0,1-0.1,1.2-0.2c0,0,0.1,0,0.1,0l0.2,0.5c0,0.1,0,0.1,0,0.1c-0.2,0.1-0.6,0.3-1.4,0.3c-0.4,0-0.7-0.1-1-0.2
		c-0.3-0.1-0.5-0.3-0.7-0.5c-0.2-0.2-0.3-0.4-0.4-0.7c-0.1-0.3-0.1-0.6-0.1-0.9c0-0.3,0-0.6,0.1-0.9c0.1-0.3,0.2-0.5,0.4-0.7
		c0.2-0.2,0.4-0.4,0.6-0.5c0.3-0.1,0.6-0.2,0.9-0.2c0.3,0,0.6,0.1,0.8,0.2c0.2,0.1,0.4,0.2,0.5,0.4c0.1,0.1,0.3,0.4,0.4,0.7
		C73.8,16.5,73.7,17.1,73.7,17.1z M76.1,19.2c-0.5,0-1-0.1-1.5-0.3c-0.1-0.1-0.2-0.1-0.3-0.2c0,0-0.1,0,0-0.1l0.2-0.5
		c0-0.1,0.1-0.1,0.1,0c0.1,0,0.1,0.1,0.2,0.1c0.6,0.4,1.1,0.4,1.3,0.4c0.4,0,0.7-0.2,0.7-0.5v0c0-0.3-0.4-0.5-0.9-0.6l-0.1,0
		c-0.7-0.2-1.4-0.5-1.4-1.3v0c0-0.8,0.6-1.3,1.5-1.3l0.1,0c0.5,0,1.1,0.2,1.4,0.4c0,0,0.1,0.1,0,0.1c0,0-0.2,0.5-0.2,0.5
		c0,0.1-0.1,0-0.1,0c-0.3-0.2-0.8-0.3-1.3-0.3c-0.4,0-0.6,0.2-0.6,0.5v0c0,0.3,0.4,0.5,0.9,0.6l0.1,0c0.7,0.2,1.4,0.5,1.4,1.3v0
		C77.7,18.7,77.1,19.2,76.1,19.2z M81,15.4C81,15.5,80.9,15.5,81,15.4l-1,0.1l-0.6,3.6c-0.1,0.4-0.1,0.7-0.2,0.9
		c-0.1,0.3-0.2,0.4-0.4,0.6c-0.2,0.2-0.3,0.3-0.5,0.4c-0.2,0.1-0.4,0.1-0.7,0.1c-0.1,0-0.3,0-0.4,0c-0.1,0-0.2,0-0.3-0.1
		c0,0-0.1-0.1,0-0.1c0-0.1,0.2-0.5,0.2-0.6c0-0.1,0.1,0,0.1,0c0,0,0.1,0,0.2,0c0.1,0,0.2,0,0.2,0c0.1,0,0.2,0,0.3,0
		c0.1,0,0.2-0.1,0.3-0.2c0.1-0.1,0.1-0.2,0.2-0.4c0.1-0.2,0.1-0.4,0.2-0.7l0.6-3.5h-0.6c-0.1,0-0.1,0-0.1-0.1l0.1-0.6
		c0-0.1,0.1-0.1,0.1-0.1h0.6l0-0.2c0.1-0.6,0.3-1,0.6-1.3c0.3-0.3,0.7-0.4,1.2-0.4c0.1,0,0.3,0,0.4,0c0.1,0,0.2,0,0.3,0.1
		c0,0,0.1,0,0.1,0.1l-0.2,0.6c0,0,0,0.1-0.1,0c0,0-0.1,0-0.1,0c-0.1,0-0.1,0-0.2,0c-0.1,0-0.2,0-0.3,0c-0.1,0-0.2,0.1-0.2,0.1
		c-0.1,0.1-0.2,0.2-0.2,0.3c-0.1,0.3-0.1,0.6-0.1,0.6H81c0.1,0,0.1,0,0.1,0.1L81,15.4z M85.1,17.9c-0.1,0.3-0.2,0.5-0.4,0.7
		c-0.2,0.2-0.4,0.4-0.6,0.5c-0.3,0.1-0.6,0.2-0.9,0.2c-0.3,0-0.6-0.1-0.9-0.2c-0.3-0.1-0.5-0.3-0.6-0.5c-0.2-0.2-0.3-0.4-0.4-0.7
		c-0.1-0.3-0.1-0.6-0.1-0.9c0-0.3,0-0.6,0.1-0.9c0.1-0.3,0.2-0.5,0.4-0.7c0.2-0.2,0.4-0.4,0.6-0.5c0.3-0.1,0.6-0.2,0.9-0.2
		c0.3,0,0.6,0.1,0.9,0.2c0.3,0.1,0.5,0.3,0.6,0.5c0.2,0.2,0.3,0.4,0.4,0.7c0.1,0.3,0.1,0.6,0.1,0.9C85.2,17.3,85.2,17.6,85.1,17.9z
		 M88.6,14.9c0,0.1-0.2,0.5-0.2,0.6c0,0,0,0.1-0.1,0.1c0,0-0.2,0-0.3,0c-0.1,0-0.2,0-0.4,0.1c-0.1,0-0.2,0.1-0.3,0.2
		c-0.1,0.1-0.2,0.2-0.2,0.4c-0.1,0.2-0.1,0.5-0.1,0.7v2.1c0,0,0,0.1-0.1,0.1h-0.7c0,0-0.1,0-0.1-0.1v-4.2c0,0,0-0.1,0.1-0.1h0.7
		c0,0,0.1,0,0.1,0.1l0,0.3c0.1-0.1,0.3-0.3,0.5-0.4c0.2-0.1,0.4-0.1,0.7-0.1c0.2,0,0.4,0.1,0.5,0.1C88.6,14.8,88.6,14.8,88.6,14.9z
		 M92.1,19c-0.3,0.1-0.8,0.2-1.2,0.2c-0.7,0-1.3-0.2-1.6-0.6c-0.4-0.4-0.6-1-0.6-1.7c0-0.3,0-0.6,0.1-0.9c0.1-0.3,0.2-0.5,0.4-0.7
		c0.2-0.2,0.4-0.4,0.7-0.5c0.3-0.1,0.6-0.2,0.9-0.2c0.2,0,0.4,0,0.6,0c0.2,0,0.4,0.1,0.6,0.1c0,0,0.1,0,0.1,0.1
		c-0.1,0.2-0.1,0.4-0.2,0.6c0,0.1-0.1,0.1-0.1,0.1c-0.3-0.1-0.5-0.1-0.9-0.1c-0.4,0-0.7,0.1-0.9,0.4c-0.2,0.3-0.3,0.6-0.3,1.1
		c0,0.5,0.1,0.9,0.4,1.1c0.2,0.2,0.5,0.4,1,0.4c0.2,0,0.3,0,0.5,0c0.1,0,0.3-0.1,0.4-0.1c0,0,0.1,0,0.1,0L92.1,19
		C92.2,19,92.1,19,92.1,19z M96.3,17.1C96.3,17.2,96.2,17.2,96.3,17.1l-2.9,0.1c0,0.4,0.1,0.7,0.3,0.9c0.2,0.2,0.5,0.3,1,0.3
		c0.7,0,1-0.1,1.2-0.2c0,0,0.1,0,0.1,0l0.2,0.5c0,0.1,0,0.1,0,0.1c-0.2,0.1-0.6,0.3-1.4,0.3c-0.4,0-0.7-0.1-1-0.2
		c-0.3-0.1-0.5-0.3-0.7-0.5c-0.2-0.2-0.3-0.4-0.4-0.7c-0.1-0.3-0.1-0.6-0.1-0.9c0-0.3,0-0.6,0.1-0.9c0.1-0.3,0.2-0.5,0.4-0.7
		c0.2-0.2,0.4-0.4,0.6-0.5c0.3-0.1,0.6-0.2,0.9-0.2c0.3,0,0.6,0.1,0.8,0.2c0.2,0.1,0.4,0.2,0.5,0.4c0.1,0.1,0.3,0.4,0.4,0.7
		C96.4,16.5,96.3,17.1,96.3,17.1z"/>
	<path class="st0" d="M94.4,15.4c-0.4,0-0.6,0.1-0.8,0.4c-0.1,0.2-0.2,0.4-0.2,0.7l2,0c0-0.3-0.1-0.5-0.2-0.7
		C95.1,15.6,94.8,15.4,94.4,15.4z"/>
</g>
</svg>
