<?xml version="1.0" encoding="utf-8"?>
<!-- Generator: Adobe Illustrator 27.1.1, SVG Export Plug-In . SVG Version: 6.00 Build 0)  -->
<svg version="1.1" id="Layer_1" xmlns="http://www.w3.org/2000/svg" xmlns:xlink="http://www.w3.org/1999/xlink" x="0px" y="0px"
	 viewBox="0 0 154 36" style="enable-background:new 0 0 154 36;" xml:space="preserve">
<style type="text/css">
	.st0{fill:#B4B7C9;}
	.st1{fill-rule:evenodd;clip-rule:evenodd;fill:#B4B7C9;}
</style>
<g>
	<g transform="translate(1.034343, 123.086869)">
		<ellipse class="st0" cx="31.6" cy="-93.3" rx="4.2" ry="4.2"/>
		<ellipse class="st0" cx="46.9" cy="-93.3" rx="3" ry="3"/>
		<ellipse class="st0" cx="59.5" cy="-93.3" rx="1.4" ry="1.4"/>
	</g>
	<g>
		<path class="st0" d="M47.1,20.9c-0.7,0-1.3-0.6-1.3-1.3V14c0-1.9-0.9-3.4-3-3.4s-3.3,1.6-3.3,3.4v5.5c0,0.7-0.5,1.3-1.3,1.3
			c-0.8,0-1.3-0.6-1.3-1.3V14c0-1.9-1-3.4-3-3.4c-2.1,0-3.2,1.6-3.2,3.4v5.5c0,0.7-0.5,1.3-1.3,1.3c-0.7,0-1.3-0.6-1.3-1.3V9.7
			c0-0.8,0.5-1.3,1.3-1.3c0.9,0,1.3,0.6,1.3,1.3v0.9c0.7-1.5,2.3-2.3,3.9-2.3c2,0,3.5,1,4.2,2.5c1.1-1.7,2.7-2.5,4.6-2.5
			c3.3,0,4.9,2.3,4.9,5.5v5.7C48.4,20.3,47.9,20.9,47.1,20.9L47.1,20.9z"/>
		<path class="st0" d="M52.1,3.5c0.8,0,1.5,0.7,1.5,1.5s-0.7,1.5-1.5,1.5S50.6,5.8,50.6,5S51.2,3.5,52.1,3.5L52.1,3.5z M52.1,20.9
			c-0.8,0-1.3-0.6-1.3-1.3V9.7c0-0.7,0.6-1.3,1.3-1.3c0.7,0,1.3,0.6,1.3,1.3v9.8C53.4,20.3,52.8,20.9,52.1,20.9L52.1,20.9z"/>
		<path class="st0" d="M60.7,12.9L64,8.8c0.2-0.2,0.5-0.4,0.9-0.4c0.7,0,1.2,0.5,1.2,1.1c0,0.2-0.1,0.5-0.3,0.7l-3.6,4.3l3.7,4.3
			c0.2,0.2,0.3,0.4,0.3,0.8c0,0.6-0.6,1.1-1.2,1.1c-0.4,0-0.7-0.1-0.9-0.4l-3.3-4.1l-3.3,4.1c-0.2,0.3-0.5,0.4-0.9,0.4
			c-0.6,0-1.2-0.5-1.2-1.1c0-0.3,0.1-0.6,0.3-0.8l3.7-4.3l-3.6-4.3c-0.2-0.2-0.3-0.5-0.3-0.7c0-0.7,0.5-1.1,1.2-1.1
			c0.4,0,0.6,0.1,0.9,0.4L60.7,12.9L60.7,12.9z"/>
		<path class="st0" d="M74.9,21c-1.9,0-3.4-1-4.3-2.4v6.1c0,0.7-0.5,1.3-1.3,1.3S68,25.4,68,24.7v-15c0-0.7,0.4-1.3,1.2-1.3
			s1.3,0.6,1.3,1.3v0.9c0.8-1.4,2.5-2.4,4.3-2.4c3.2,0,5.8,2.7,5.8,6.3C80.7,18.5,78.1,21,74.9,21L74.9,21z M74.4,10.5
			c-2.2,0-3.7,2-3.7,4.2s1.5,4.2,3.7,4.2c2.2,0,3.7-1.7,3.7-4.2C78.1,12.1,76.6,10.5,74.4,10.5L74.4,10.5z"/>
		<path class="st0" d="M94.4,19.6c0,0.7-0.5,1.3-1.3,1.3c-0.8,0-1.3-0.6-1.3-1.3v-0.6c-0.8,1.2-2.2,2-4,2c-3.9,0-6.1-2.8-6.1-6.3
			c0-3.5,2.5-6.3,6.4-6.3c4,0,6.3,2.6,6.3,6.3L94.4,19.6L94.4,19.6L94.4,19.6z M88,10.5c-2.2,0-3.8,1.9-3.8,4.1
			c0,2.4,1.3,4.1,3.8,4.1c2.3,0,3.8-2,3.8-4.1C91.8,12.1,90.2,10.5,88,10.5L88,10.5z"/>
		<path class="st0" d="M102.2,8.3c3.3,0,5.8,2.5,5.8,5.8v5.5c0,0.7-0.6,1.3-1.3,1.3c-0.7,0-1.3-0.6-1.3-1.3v-5.8
			c0-1.7-1.4-3.1-3.2-3.1c-1.8,0-3.2,1.4-3.2,3.1v5.8c0,0.7-0.6,1.3-1.3,1.3c-0.7,0-1.3-0.6-1.3-1.3v-5.5
			C96.4,10.8,98.9,8.3,102.2,8.3L102.2,8.3z"/>
		<path class="st0" d="M121.5,14.7c0,0.4-0.2,0.9-1,0.9h-8.3c0.1,1.9,1.4,3.3,3.7,3.3c1.4,0,2.3-0.5,3.2-1.4
			c0.2-0.2,0.5-0.4,0.9-0.4c0.6,0,1.1,0.4,1.1,1.1c0,0.3-0.1,0.5-0.3,0.7c-1.1,1.2-2.9,2-4.9,2c-4.1,0-6.3-2.9-6.3-6.3
			c0-3.6,2.6-6.3,6.2-6.3C119.3,8.3,121.5,11.1,121.5,14.7L121.5,14.7z M115.8,10.4c-1.9,0-3.2,1.4-3.5,3.1h6.8
			C118.9,11.8,117.7,10.4,115.8,10.4L115.8,10.4z"/>
		<path class="st0" d="M124.6,20.9c-0.8,0-1.3-0.6-1.3-1.3V3.3c0-0.7,0.5-1.3,1.3-1.3c0.8,0,1.3,0.6,1.3,1.3v16.3
			C125.9,20.3,125.3,20.9,124.6,20.9L124.6,20.9z"/>
	</g>
</g>
</svg>
