<?xml version="1.0" encoding="utf-8"?>
<!-- Generator: Adobe Illustrator 27.1.1, SVG Export Plug-In . SVG Version: 6.00 Build 0)  -->
<svg version="1.1" id="Layer_1" xmlns="http://www.w3.org/2000/svg" xmlns:xlink="http://www.w3.org/1999/xlink" x="0px" y="0px"
	 viewBox="0 0 154 36" style="enable-background:new 0 0 154 36;" xml:space="preserve">
<style type="text/css">
	.st0{fill:#B4B7C9;}
	.st1{fill-rule:evenodd;clip-rule:evenodd;fill:#B4B7C9;}
</style>
<g>
	<g>
		<path class="st0" d="M13.5,5.2h-10c0,0,0,0,0,0C2.7,5.2,2,5.8,2,6.6v22.8c0,0.8,0.7,1.5,1.5,1.5H19c0.8,0,1.5-0.7,1.5-1.5V12.3
			L13.5,5.2z M16.1,26.1H6.4v-8.3h9.6V26.1z"/>
		
			<rect x="11.8" y="21.4" transform="matrix(1 -2.294495e-03 2.294495e-03 1 -5.061467e-02 3.069965e-02)" class="st0" width="3" height="1.4"/>
		<polygon class="st0" points="10.6,19 7.6,19 7.6,20.5 10.6,20.5 		"/>
		<rect x="11.8" y="19" class="st0" width="3" height="1.5"/>
		
			<rect x="11.8" y="23.7" transform="matrix(1 -2.314622e-03 2.314622e-03 1 -5.623096e-02 3.097544e-02)" class="st0" width="3" height="1.3"/>
		<rect x="7.6" y="23.7" class="st0" width="3" height="1.3"/>
		<rect x="7.6" y="21.4" class="st0" width="3" height="1.4"/>
	</g>
	<path class="st0" d="M14.2,12.2l6.3,6v-5.8H15C14.7,12.3,14.5,12.2,14.2,12.2L14.2,12.2z"/>
	<path class="st0" d="M20.5,12.3h-5.6c-0.8,0-1.5-0.7-1.5-1.5V5.1L20.5,12.3z"/>
	<path class="st0" d="M53.5,18c0-1.8-1.4-3.1-3-3.1s-3,1.3-3,3.1c0,1.8,1.4,3.1,3,3.1S53.5,19.8,53.5,18z M55.8,18
		c0,2.9-2.4,5.1-5.3,5.1c-2.9,0-5.3-2.2-5.3-5.1c0-3,2.4-5.1,5.3-5.1C53.4,12.9,55.8,15.1,55.8,18z M64.9,18c0-1.8-1.4-3.1-3-3.1
		s-3,1.3-3,3.1c0,1.8,1.4,3.1,3,3.1S64.9,19.8,64.9,18z M67.2,18c0,2.9-2.4,5.1-5.3,5.1c-2.9,0-5.3-2.2-5.3-5.1
		c0-2.9,2.4-5.1,5.3-5.1S67.2,15.1,67.2,18L67.2,18z M76.2,18c0-1.8-1.2-3.1-2.8-3.1c-1.6,0-2.9,1.3-2.9,3.1c0,1.8,1.3,3.1,2.9,3.1
		C74.9,21.1,76.2,19.8,76.2,18L76.2,18z M78.2,13.2v9.1c0,3.8-2.3,5.3-5,5.3c-2,0-3.9-1.1-4.7-3l2-0.8c0.4,0.8,1.2,1.8,2.7,1.8
		c1.7,0,2.8-1,2.8-3V22h-0.1c-0.5,0.6-1.5,1.2-2.8,1.2c-2.6,0-5.1-2.2-5.1-5.1c0-2.9,2.4-5.1,5.1-5.1c1.3,0,2.3,0.5,2.8,1.1H76v-0.8
		L78.2,13.2L78.2,13.2z M81.8,7.9h-2.3v14.9h2.3L81.8,7.9z M85.1,17.9l4.7-1.9c-0.3-0.6-1-1.1-2-1.1C86.7,14.9,85,15.9,85.1,17.9z
		 M90.7,19.7l1.8,1.2c-1,1.4-2.7,2.3-4.4,2.3c-3,0-5.2-2.2-5.2-5.1c0-3,2.3-5.1,5-5.1c2.7,0,4.1,2.1,4.5,3.2l0.2,0.6l-7.1,2.8
		c0.5,1,1.4,1.5,2.6,1.5C89.2,21.1,90.1,20.5,90.7,19.7L90.7,19.7z M36.6,16.7v-2.2h7.6c0.1,0.4,0.1,0.8,0.1,1.3
		c0,1.6-0.5,3.6-1.9,5.1c-1.4,1.4-3.3,2.2-5.7,2.2c-4.5,0-8.3-3.5-8.3-7.9s3.8-7.9,8.3-7.9c2.5,0,4.3,0.9,5.6,2.2L40.6,11
		c-1-0.9-2.3-1.5-4-1.5c-3.3,0-5.9,2.6-5.9,5.7s2.6,5.7,5.9,5.7c2.1,0,3.4-0.8,4.1-1.6c0.6-0.6,1.1-1.5,1.2-2.7L36.6,16.7z
		 M106.2,19.7c0,1.2-0.4,2.1-1.3,2.8c-0.9,0.7-1.9,1.1-3.2,1.1c-1.1,0-2.1-0.3-3-1c-0.9-0.7-1.4-1.5-1.8-2.7l1.7-0.7
		c0.1,0.4,0.3,0.8,0.5,1.1c0.2,0.3,0.4,0.6,0.7,0.8c0.3,0.2,0.6,0.4,0.9,0.5c0.3,0.1,0.7,0.2,1,0.2c0.8,0,1.4-0.2,1.9-0.6
		c0.5-0.4,0.8-1,0.8-1.6c0-0.6-0.2-1-0.6-1.4c-0.4-0.4-1.1-0.8-2.2-1.1c-1.1-0.4-1.7-0.7-2-0.8c-1.4-0.7-2.1-1.8-2.1-3.2
		c0-1,0.4-1.8,1.2-2.5c0.8-0.7,1.8-1.1,3-1.1c1,0,1.9,0.3,2.7,0.8c0.8,0.5,1.3,1.2,1.5,1.9l-1.6,0.7c-0.2-0.5-0.5-0.9-0.9-1.2
		c-0.4-0.3-1-0.5-1.6-0.5c-0.7,0-1.2,0.2-1.7,0.6c-0.5,0.4-0.7,0.8-0.7,1.4c0,0.5,0.2,0.9,0.5,1.2c0.4,0.3,1.3,0.7,2.6,1.2
		c1.4,0.5,2.3,1,2.9,1.7C105.9,17.9,106.2,18.7,106.2,19.7z M107.9,9.8h1.7V14l-0.1,1.3h0.1c0.3-0.5,0.7-0.8,1.2-1.1
		c0.5-0.3,1.1-0.4,1.7-0.5c1.1,0,2,0.3,2.6,1c0.6,0.6,0.9,1.6,0.9,2.7v5.8h-1.7v-5.5c0-1.7-0.7-2.5-2.2-2.5c-0.7,0-1.3,0.3-1.8,0.9
		c-0.5,0.6-0.7,1.3-0.7,2v5h-1.7L107.9,9.8z M122.3,23.6c-1.4,0-2.5-0.5-3.3-1.4c-0.9-0.9-1.3-2.1-1.3-3.5c0-1.4,0.4-2.6,1.3-3.5
		c0.9-0.9,1.9-1.4,3.3-1.4c1.4,0,2.5,0.4,3.3,1.3c0.8,0.9,1.2,2.1,1.2,3.7l0,0.2h-7.2c0,0.9,0.3,1.6,0.9,2.2
		c0.6,0.6,1.3,0.8,2.1,0.8c1.1,0,2-0.6,2.6-1.7l1.5,0.8c-0.4,0.8-1,1.4-1.7,1.8C124,23.3,123.2,23.6,122.3,23.6L122.3,23.6z
		 M119.5,17.5h5.3c0-0.6-0.3-1.2-0.8-1.6c-0.5-0.4-1.1-0.6-1.9-0.6c-0.7,0-1.2,0.2-1.7,0.6C120,16.3,119.7,16.9,119.5,17.5
		L119.5,17.5z M132.4,23.6c-1.4,0-2.5-0.5-3.3-1.4s-1.3-2.1-1.3-3.5c0-1.4,0.4-2.6,1.3-3.5c0.9-0.9,1.9-1.4,3.3-1.4
		c1.4,0,2.5,0.4,3.3,1.3c0.8,0.9,1.2,2.1,1.2,3.7l0,0.2h-7.2c0,0.9,0.3,1.6,0.9,2.2c0.6,0.6,1.3,0.8,2.1,0.8c1.1,0,2-0.6,2.6-1.7
		l1.5,0.8c-0.4,0.8-1,1.4-1.7,1.8C134.2,23.3,133.4,23.6,132.4,23.6L132.4,23.6z M129.7,17.5h5.3c0-0.6-0.3-1.2-0.8-1.6
		c-0.5-0.4-1.1-0.6-1.9-0.6c-0.7,0-1.2,0.2-1.7,0.6C130.1,16.3,129.8,16.9,129.7,17.5L129.7,17.5z M141.8,23.4
		c-0.8,0-1.4-0.2-1.9-0.7c-0.5-0.5-0.7-1.1-0.8-1.9v-5.2h-1.6V14h1.6v-2.8h1.7V14h2.3v1.6h-2.3v4.6c0,0.6,0.1,1,0.4,1.3
		c0.2,0.2,0.5,0.3,0.8,0.3c0.1,0,0.3,0,0.4,0c0.1,0,0.3-0.1,0.4-0.1l0.5,1.5C142.9,23.3,142.4,23.4,141.8,23.4L141.8,23.4z
		 M152,20.7c0,0.8-0.4,1.5-1.1,2c-0.7,0.6-1.6,0.8-2.7,0.8c-0.9,0-1.7-0.2-2.4-0.7c-0.7-0.5-1.2-1.1-1.5-1.9l1.5-0.7
		c0.2,0.6,0.6,1,1,1.3c0.4,0.3,0.9,0.5,1.4,0.5c0.6,0,1-0.1,1.4-0.4c0.4-0.2,0.6-0.5,0.6-0.8c0-0.6-0.5-1-1.4-1.3l-1.6-0.4
		c-1.8-0.5-2.7-1.3-2.7-2.6c0-0.8,0.3-1.5,1-2c0.7-0.5,1.6-0.8,2.6-0.8c0.8,0,1.5,0.2,2.2,0.6c0.7,0.4,1.1,0.9,1.4,1.6l-1.5,0.6
		c-0.2-0.4-0.5-0.7-0.9-0.9c-0.4-0.2-0.9-0.3-1.3-0.3c-0.5,0-0.9,0.1-1.2,0.3c-0.4,0.2-0.5,0.5-0.5,0.8c0,0.5,0.5,0.9,1.5,1.1
		l1.4,0.4C151.1,18.4,152,19.3,152,20.7L152,20.7z"/>
</g>
</svg>
