<?xml version="1.0" encoding="utf-8"?>
<!-- Generator: Adobe Illustrator 27.1.1, SVG Export Plug-In . SVG Version: 6.00 Build 0)  -->
<svg version="1.1" id="Layer_1" xmlns="http://www.w3.org/2000/svg" xmlns:xlink="http://www.w3.org/1999/xlink" x="0px" y="0px"
	 viewBox="0 0 154 36" style="enable-background:new 0 0 154 36;" xml:space="preserve">
<style type="text/css">
	.st0{fill:#B4B7C9;}
	.st1{fill-rule:evenodd;clip-rule:evenodd;fill:#B4B7C9;}
</style>
<g>
	<path class="st0" d="M151.3,25.5c0-0.3-0.3-0.4-0.5-0.4h-0.5v1.4h0.3v-0.6h0.2l0.3,0.6h0.3l-0.4-0.6
		C151.1,25.8,151.3,25.7,151.3,25.5L151.3,25.5z M150.5,25.7v-0.4h0.2c0.1,0,0.3,0,0.3,0.2c0,0.2-0.2,0.2-0.3,0.2H150.5z
		 M150.7,24.6c-0.7,0-1.3,0.6-1.2,1.3c0,0.7,0.6,1.3,1.3,1.2c0.7,0,1.3-0.6,1.2-1.3C152,25.1,151.4,24.5,150.7,24.6
		C150.7,24.5,150.7,24.5,150.7,24.6L150.7,24.6z M150.7,26.8c-0.6,0-1.1-0.5-1.1-1.1s0.5-1.1,1.1-1.1c0.6,0,1.1,0.5,1.1,1.1v0
		C151.8,26.4,151.3,26.9,150.7,26.8L150.7,26.8z M69.3,24.8c-1.8,0-2.8-1.7-2.8-3.3s1-3.2,2.7-3.2c0.8,0,1.8,0.4,2.2,1l1.9-2
		c-1.1-1.1-2.6-1.7-4.1-1.6c-3.4,0-5.9,2.4-5.9,5.8c0,3.4,2.4,5.8,6,5.8c1.7,0,3.2-0.5,4.1-1.5l-1.9-2C71,24.4,70.2,24.8,69.3,24.8z
		 M58.4,27h3.1V16h-3L58.4,27z M52.8,22.1c0,1.3-0.9,2.7-2.4,2.7c-1.2,0-1.9-0.9-1.9-2.6v-6h-3v6.8c0,2.3,1.1,4.5,4.2,4.5
		c1.4,0,2.6-1.1,3.2-2H53v1.7h2.9V16h-3V22.1z M40,17.4L40,17.4c-0.5-0.5-1.7-1.7-3.5-1.7c-3.1,0-5.5,2.4-5.5,5.8
		c0,3.4,2.2,5.9,5.3,5.9c1.4,0,2.6-0.6,3.5-1.7H40v6.7h3V16h-2.9L40,17.4z M37.1,24.8c-1.9,0-3-1.7-3-3.3c0-1.6,1-3.2,3-3.2
		c1.8,0,2.9,1.7,2.9,3.2C40,23.1,38.9,24.8,37.1,24.8z M106.3,15.7c-3.4,0-6,2.4-6,5.8c0,3.5,2.6,5.9,6,5.9c3.4,0,6-2.4,6-5.9
		C112.3,18.1,109.8,15.7,106.3,15.7z M106.3,24.8c-2,0-2.9-1.7-2.9-3.3s0.9-3.2,2.9-3.2c2,0,2.9,1.7,2.9,3.2S108.4,24.8,106.3,24.8
		L106.3,24.8z M144.3,20.3c-1.6-0.4-2.1-0.6-2.1-1.2c0-0.9,1.1-1.1,1.6-1.1c0.9,0,2,0.6,2.4,1.1l1.8-1.7c-0.9-1-2.5-1.6-4.2-1.6
		c-2.2,0-4.5,1.1-4.5,3.6c0,2.1,1.7,2.8,3.3,3.2c1.7,0.4,2.3,0.7,2.3,1.4c0,1-1.1,1.2-1.6,1.2c-1.1-0.1-2-0.5-2.8-1.3l-1.8,1.9
		c1,1.1,2.7,1.8,4.5,1.8c3,0,4.8-1.4,4.8-3.8C148,21.4,145.9,20.6,144.3,20.3L144.3,20.3z M138.6,16h-3.9l-3.9,4.6h-0.1V10h-3V27h3
		v-5.4h0.1l4.1,5.4h4l-4.7-6L138.6,16z M93.5,15.7c-1.4,0-2.4,0.6-3.4,1.5h0V10h-3V27h2.9v-1.6H90c0.8,1.2,2,1.8,3.4,1.8
		c3.1,0,5.5-2.4,5.5-5.8C98.9,18.1,96.6,15.7,93.5,15.7L93.5,15.7z M92.9,24.8c-1.8,0-2.9-1.7-2.9-3.2c0-1.6,1.1-3.2,2.9-3.2
		c2,0,2.9,1.7,2.9,3.2C95.8,23.1,94.8,24.8,92.9,24.8z M85.9,16H82L78,20.6H78V10h-3V27h3v-5.4H78l4.1,5.4h4l-4.7-6L85.9,16z
		 M119.7,15.7c-3.5,0-6,2.4-6,5.7c0,3.5,2.6,5.9,6,5.9c3.4,0,6-2.4,6-5.9C125.7,18.1,123.1,15.7,119.7,15.7L119.7,15.7z M119.7,24.8
		c-2,0-2.9-1.7-2.9-3.3s0.9-3.2,2.9-3.2s2.9,1.7,2.9,3.2S121.6,24.8,119.7,24.8z"/>
	<path class="st0" d="M14.8,3.6C7.7,3.6,2,9.3,2,16.4s5.7,12.8,12.8,12.8s12.8-5.7,12.8-12.8S21.9,3.6,14.8,3.6z M14.1,24.8
		c-1,0-1.8-0.8-1.8-1.8v-9.7h-1.7c-1.7,0-3.1,1.4-3.1,3.1s1.4,3.1,3.1,3.1h0.7v1.8h-0.7c-2.8,0-5-2.2-5-5s2.2-5,5-5h3.6V24.8z
		 M19.1,21.3h-3.6V8c1,0,1.8,0.8,1.8,1.8v9.7h1.7c1.7,0,3.1-1.4,3.1-3.1s-1.4-3.1-3.1-3.1h-0.7v-1.8h0.7c2.8,0,5,2.2,5,5
		S21.8,21.3,19.1,21.3z"/>
	<path class="st0" d="M43.5,6.5c0.5,0,0.9-0.4,0.9-0.9S44,4.8,43.5,4.8s-0.9,0.4-0.9,0.9S43.1,6.5,43.5,6.5z M38.5,7.1
		c-0.7,0-1.4,0.4-1.7,1.1h-0.1V7.2h-1.3v5.6h1.4V9.7c0-0.7,0.4-1.5,1.3-1.5c0.9,0,1.1,0.8,1.1,1.5v3.1h1.4V9.3
		C40.6,8.1,40,7,38.5,7.1L38.5,7.1L38.5,7.1z M32.6,12.8H34V7.2h-1.4V12.8z M58.1,6.5c0.5,0,0.9-0.4,0.9-0.9s-0.4-0.9-0.9-0.9
		c-0.5,0-0.9,0.4-0.9,0.9S57.6,6.5,58.1,6.5z M55.8,7.2v1.3h1.6v4.4h1.4V8.5h1.6V7.2H55.8z M53.4,12.8h1.4V7.2h-1.4V12.8z M41.3,8.5
		h1.6v4.4h1.4V8.5h1.6V7.2h-4.6V8.5z M50.6,10.3c0,0.7-0.4,1.5-1.3,1.5c-0.9,0-1.1-0.9-1.1-1.5V7.2h-1.4v3.5c0,1.1,0.6,2.3,2.1,2.3
		c0.7,0,1.4-0.4,1.7-1.1h0v0.9H52V7.2h-1.4L50.6,10.3L50.6,10.3z"/>
</g>
</svg>
