<?xml version="1.0" encoding="utf-8"?>
<!-- Generator: Adobe Illustrator 27.2.0, SVG Export Plug-In . SVG Version: 6.00 Build 0)  -->
<svg version="1.1" id="Layer_1" xmlns:v="https://vecta.io/nano"
	 xmlns="http://www.w3.org/2000/svg" xmlns:xlink="http://www.w3.org/1999/xlink" x="0px" y="0px" viewBox="0 0 40 40"
	 style="enable-background:new 0 0 40 40;" xml:space="preserve">
<style type="text/css">
	.st0{fill:#FF1F30;}
</style>
<path class="st0" d="M28.5,9.6c-0.4,0-0.8,0.2-1.1,0.5l-9,9l-3.4-3.4c-0.3-0.3-0.7-0.5-1.1-0.5c-0.4,0-0.8,0.2-1.1,0.5l-6,5.9
	c-0.6,0.6-0.6,1.6,0,2.2c0.3,0.3,0.7,0.5,1.1,0.5c0.4,0,0.8-0.2,1.1-0.5L14,19l3.4,3.4c0.3,0.3,0.7,0.5,1.1,0.5
	c0.4,0,0.8-0.2,1.1-0.5l9-9l2.4,2.5c0.6,0.6,1.6,0.6,2.2,0s0.6-1.6,0-2.2l-3.5-3.6C29.3,9.8,28.9,9.6,28.5,9.6L28.5,9.6z"/>
<path class="st0" d="M38.4,18.9c0.9,0,1.6-0.7,1.6-1.6V4.8c0-0.9-0.7-1.6-1.6-1.6H21.6V1.6C21.6,0.7,20.9,0,20,0s-1.6,0.7-1.6,1.6
	v1.6H1.6C0.7,3.2,0,3.9,0,4.8v20.5c0,3.4,2.8,6.2,6.2,6.2h12.2v5.4h-4.7c-0.9,0-1.6,0.7-1.6,1.6s0.7,1.6,1.6,1.6h12.4
	c0.9,0,1.6-0.7,1.6-1.6s-0.7-1.6-1.6-1.6h-4.6v-5.4h12.2c3.4,0,6.2-2.8,6.2-6.2c0-0.9-0.7-1.6-1.6-1.6s-1.6,0.7-1.6,1.6
	c0,1.7-1.4,3.1-3.1,3.1H6.2c-1.7,0-3.1-1.4-3.1-3.1V6.3h33.8v11C36.9,18.2,37.6,18.9,38.4,18.9z"/>
</svg>
