<?xml version="1.0" encoding="utf-8"?>
<!-- Generator: Adobe Illustrator 27.2.0, SVG Export Plug-In . SVG Version: 6.00 Build 0)  -->
<svg version="1.1" id="Layer_1" xmlns:v="https://vecta.io/nano"
	 xmlns="http://www.w3.org/2000/svg" xmlns:xlink="http://www.w3.org/1999/xlink" x="0px" y="0px" viewBox="0 0 40 40"
	 style="enable-background:new 0 0 40 40;" xml:space="preserve">
<style type="text/css">
	.st0{clip-path:url(#SVGID_00000114033898057782214940000004325389291304413098_);}
	.st1{fill:#FF1F30;}
</style>
<g>
	<defs>
		<rect id="SVGID_1_" width="40" height="40"/>
	</defs>
	<clipPath id="SVGID_00000063626680548446570460000001284868124588957830_">
		<use xlink:href="#SVGID_1_"  style="overflow:visible;"/>
	</clipPath>
	<g style="clip-path:url(#SVGID_00000063626680548446570460000001284868124588957830_);">
		<path class="st1" d="M36.6,24c-0.3-0.8-1.2-1.2-2-0.9s-1.2,1.2-0.9,2l1.8,4.6l-5.5-2.4c-0.4-0.2-0.8-0.2-1.2,0
			c-1.9,0.8-3.9,1.2-5.9,1.2c-8.4,0-14-6.5-14-12.7c0-7,6.3-12.7,14-12.7s14,5.7,14,12.7c0,0.5-0.1,1.2-0.1,1.8
			c-0.1,0.9,0.5,1.6,1.3,1.8s1.6-0.5,1.8-1.3c0.1-0.7,0.2-1.5,0.2-2.3c0-4.2-1.8-8.2-5.1-11.2c-3.2-3-7.5-4.6-12-4.6
			s-8.8,1.6-12,4.6c-2.9,2.7-4.7,6.1-5,9.9C2.2,16.9,0,20.8,0,25c0,2.6,0.8,5.1,2.4,7.2l-2.3,5.6c-0.2,0.6-0.1,1.3,0.4,1.7
			c0.5,0.4,1.1,0.6,1.7,0.3L8.8,37c1.7,0.6,3.4,0.9,5.2,0.9c0,0,0.1,0,0.1,0c2.6,0,5.2-0.7,7.4-2c2-1.2,3.6-2.7,4.7-4.6
			c1.1-0.2,2.2-0.5,3.2-0.9l8.4,3.7c0.6,0.3,1.3,0.1,1.7-0.3c0.5-0.4,0.6-1.1,0.4-1.7L36.6,24z M14,34.8C14,34.8,13.9,34.8,14,34.8
			c-1.6,0-3.2-0.3-4.6-0.9c-0.4-0.2-0.8-0.2-1.2,0l-3.7,1.6l1.2-2.9c0.2-0.5,0.1-1.2-0.3-1.6c-1.5-1.7-2.2-3.8-2.2-6
			c0-2.5,1-4.9,2.9-6.7c0.6,3.1,2.2,6.1,4.6,8.4c3,2.9,7,4.6,11.4,4.8C20,33.6,17.1,34.8,14,34.8L14,34.8z"/>
		<g>
			<g>
				<path id="B" class="st1" d="M22.8,17.4c0.9,0,1.6-0.7,1.6-1.6s-0.7-1.6-1.6-1.6s-1.6,0.7-1.6,1.6C21.3,16.7,22,17.4,22.8,17.4
					L22.8,17.4z"/>
			</g>
			<path class="st1" d="M29.1,17.4c0.9,0,1.6-0.7,1.6-1.6s-0.7-1.6-1.6-1.6s-1.6,0.7-1.6,1.6C27.5,16.7,28.2,17.4,29.1,17.4
				L29.1,17.4z M16.6,17.4c0.9,0,1.6-0.7,1.6-1.6s-0.7-1.6-1.6-1.6S15,15,15,15.9C15,16.7,15.7,17.4,16.6,17.4
				C16.6,17.4,16.6,17.4,16.6,17.4L16.6,17.4z"/>
		</g>
	</g>
</g>
</svg>
