<?xml version="1.0" encoding="utf-8"?>
<!-- Generator: Adobe Illustrator 27.2.0, SVG Export Plug-In . SVG Version: 6.00 Build 0)  -->
<svg version="1.1" id="Layer_1" xmlns:v="https://vecta.io/nano"
	 xmlns="http://www.w3.org/2000/svg" xmlns:xlink="http://www.w3.org/1999/xlink" x="0px" y="0px" viewBox="0 0 40 40"
	 style="enable-background:new 0 0 40 40;" xml:space="preserve">
<style type="text/css">
	.st0{clip-path:url(#SVGID_00000043458663083945839580000003279599885189395630_);}
	.st1{fill:#FF1F30;}
</style>
<g>
	<defs>
		<rect id="SVGID_1_" width="40" height="40"/>
	</defs>
	<clipPath id="SVGID_00000014631615078609272110000017197008894438964365_">
		<use xlink:href="#SVGID_1_"  style="overflow:visible;"/>
	</clipPath>
	<g style="clip-path:url(#SVGID_00000014631615078609272110000017197008894438964365_);">
		<path class="st1" d="M38.4,34.1c0.9,0,1.6-0.7,1.6-1.6S39.3,31,38.4,31h-4.3v-4.3c0-0.9-0.7-1.6-1.6-1.6S31,25.9,31,26.7V31h-4.3
			c-0.9,0-1.6,0.7-1.6,1.6c0,0.9,0.7,1.6,1.6,1.6H31v4.3c0,0.9,0.7,1.6,1.6,1.6s1.6-0.7,1.6-1.6v-4.3L38.4,34.1L38.4,34.1z"/>
		<path class="st1" d="M23.2,26.2c-1-0.7-2-1.2-3.1-1.7c1.5-1.3,2.4-3.2,2.6-5.2c2.2-2.1,5.1-3.3,8.2-3.3c2.4,0,4.7,0.7,6.7,2.1
			c0.7,0.5,1.7,0.3,2.2-0.4c0,0,0,0,0,0c0.5-0.7,0.3-1.7-0.4-2.2c-1-0.7-2-1.2-3.1-1.7c1.6-1.5,2.6-3.6,2.6-5.9c0-4.4-3.6-8-8-8
			c-4.4,0-8,3.6-8,8c0,2.3,1,4.4,2.6,5.9l-0.6,0.3c-1,0.4-1.9,1-2.8,1.6c-1.2-2.9-4-5-7.4-5c-4.4,0-8,3.6-8,8c0,2.3,1,4.4,2.6,5.9
			c-4.2,1.6-7.7,5-9.1,9.3c-0.5,1.4-0.2,3,0.7,4.2C1.8,39.3,3.2,40,4.7,40h13.6c0.9,0,1.6-0.7,1.6-1.6s-0.7-1.6-1.6-1.6H4.7
			c-0.5,0-1-0.2-1.3-0.6c-0.3-0.4-0.4-0.9-0.2-1.4c1.5-4.8,6.3-8.2,11.5-8.2c2.4,0,4.7,0.7,6.7,2.1c0.7,0.5,1.7,0.3,2.2-0.4
			C24,27.7,23.9,26.7,23.2,26.2C23.2,26.2,23.2,26.2,23.2,26.2L23.2,26.2z M30.9,3.1c2.7,0,4.8,2.2,4.8,4.8c0,2.7-2.2,4.8-4.8,4.8
			c-2.7,0-4.8-2.2-4.8-4.8C26,5.3,28.2,3.1,30.9,3.1z M14.7,13.8c2.7,0,4.8,2.2,4.8,4.8c0,2.7-2.2,4.8-4.8,4.8
			c-2.7,0-4.8-2.2-4.8-4.8C9.9,16,12,13.8,14.7,13.8z"/>
	</g>
</g>
</svg>
