<?xml version="1.0" encoding="utf-8"?>
<!-- Generator: Adobe Illustrator 27.2.0, SVG Export Plug-In . SVG Version: 6.00 Build 0)  -->
<svg version="1.1" id="Layer_1" xmlns="http://www.w3.org/2000/svg" xmlns:xlink="http://www.w3.org/1999/xlink" x="0px" y="0px"
	 viewBox="0 0 40 40" style="enable-background:new 0 0 40 40;" xml:space="preserve">
<style type="text/css">
	.st0{fill:#FF1F30;}
</style>
<path class="st0" d="M5,13.2c0.5-3,1.9-5.7,4-7.9c0.6-0.6,0.6-1.6,0-2.2s-1.6-0.6-2.2,0C4.3,5.7,2.7,9,2,12.6
	c-0.2,0.8,0.4,1.7,1.3,1.8c0.1,0,0.2,0,0.3,0C4.2,14.5,4.8,14,5,13.2L5,13.2z"/>
<path class="st0" d="M35.6,26.2c-0.1,0-1.3-0.5-2.2-1.7c-0.5-0.7-1.5-0.8-2.2-0.3s-0.8,1.5-0.3,2.2c0.8,1,1.7,1.7,2.5,2.1
	c-0.1,0.7-0.4,1.4-0.8,2.1c-0.7,1-1.7,1.5-3,1.5H10.5c-2.4,0-3.5-2-3.8-3.6c0.6-0.3,1.1-0.7,1.6-1.1c1.8-1.6,2.7-3.7,2.7-6.1v-5.5
	c0-4.9,4-9,8.9-9.1l0,0l0,0H20h0.1c5,0.1,9,4.1,9,9.1V18c0,0.9,0.7,1.6,1.6,1.6s1.6-0.7,1.6-1.6v-2.2c0-6.2-4.7-11.4-10.8-12.1V1.6
	C21.5,0.7,20.8,0,20,0s-1.6,0.7-1.6,1.6v2.3c-2.7,0.4-5.1,1.6-7,3.5C9.1,9.7,7.9,12.7,7.9,16v5.5c0,3.5-3.1,4.8-3.3,4.8
	c-0.6,0.2-1,0.8-1,1.5c0,1.6,0.6,3.4,1.6,4.8c1.3,1.8,3.2,2.8,5.5,2.8h4.8c0,2.6,2.1,4.7,4.7,4.7s4.7-2.1,4.7-4.7h4.8
	c3,0,4.7-1.5,5.6-2.8c1.3-1.9,1.5-4,1.5-4.8C36.6,27,36.2,26.5,35.6,26.2L35.6,26.2z M20.1,36.9c-0.9,0-1.6-0.7-1.6-1.6h3.1
	C21.6,36.2,20.9,36.9,20.1,36.9L20.1,36.9z"/>
<path class="st0" d="M38.1,12.7c-0.7-3.6-2.4-7.1-4.8-9.6c-0.6-0.6-1.6-0.6-2.2,0s-0.6,1.6,0,2.2c2,2.1,3.5,4.9,4,8
	c0.1,0.8,0.8,1.3,1.5,1.3c0.1,0,0.2,0,0.3,0C37.7,14.4,38.3,13.6,38.1,12.7z"/>
</svg>
