<?xml version="1.0" encoding="utf-8"?>
<!-- Generator: Adobe Illustrator 27.2.0, SVG Export Plug-In . SVG Version: 6.00 Build 0)  -->
<svg version="1.1" id="Layer_1" xmlns="http://www.w3.org/2000/svg" xmlns:xlink="http://www.w3.org/1999/xlink" x="0px" y="0px"
	 viewBox="0 0 40 40" style="enable-background:new 0 0 40 40;" xml:space="preserve">
<style type="text/css">
	.st0{clip-path:url(#SVGID_00000079475288319969406660000010693043827973509301_);}
	.st1{fill:#FF1F30;}
</style>
<g>
	<g>
		<defs>
			<rect id="SVGID_1_" width="40" height="40"/>
		</defs>
		<clipPath id="SVGID_00000170975856069581785030000012583489665757237127_">
			<use xlink:href="#SVGID_1_"  style="overflow:visible;"/>
		</clipPath>
		<g style="clip-path:url(#SVGID_00000170975856069581785030000012583489665757237127_);">
			<path class="st1" d="M19.9,40c-0.2,0-0.5-0.1-0.7-0.2c-0.2-0.1-4.5-2.3-9.1-7.2c-2.7-2.9-4.9-6.1-6.5-9.7
				c-2-4.3-3.2-9.1-3.6-14.2c0-0.4,0.1-0.8,0.4-1.1S1,7,1.5,7c2.9-0.2,5.1-2.6,5.1-5.5C6.6,0.7,7.3,0,8.1,0h23.8
				c0.9,0,1.6,0.7,1.6,1.6c0,2.9,2.2,5.3,5.1,5.5c0.8,0,1.4,0.7,1.4,1.6l0,0c-0.5,5.6-2.1,10.9-4.6,15.7c-0.4,0.8-1.4,1-2.1,0.6
				s-1-1.4-0.6-2.1c2.1-4,3.5-8.4,4.1-13.1c-3.2-0.8-5.7-3.5-6.3-6.7h-21c-0.6,3.3-3,6-6.3,6.8c0.8,7.9,3.9,14.8,9.1,20.5
				c3.1,3.4,6.2,5.5,7.6,6.3c1.5-0.9,5-3.3,8.5-7.5c0.6-0.7,1.5-0.8,2.2-0.2s0.8,1.5,0.2,2.2c-4.9,5.9-10,8.6-10.2,8.7
				C20.4,39.9,20.2,40,19.9,40L19.9,40z"/>
			<path class="st1" d="M21.1,31.5c0.5-0.7,0.4-1.7-0.3-2.2c-1.4-1-2.6-2.2-3.8-3.4c-3.4-3.7-5.7-8-6.9-12.8c0.6-0.5,1.2-1,1.8-1.6
				c0.9-1,1.7-2,2.3-3.2c0.4-0.8,0.1-1.7-0.6-2.1s-1.7-0.1-2.1,0.6C11,7.7,10.4,8.6,9.7,9.3C9,10,8.3,10.6,7.5,11.1
				c-0.5,0.4-0.8,1-0.7,1.6c1.2,5.8,3.8,11,7.9,15.3c1.3,1.4,2.7,2.7,4.2,3.8c0.3,0.2,0.6,0.3,0.9,0.3
				C20.4,32.2,20.8,31.9,21.1,31.5L21.1,31.5z"/>
		</g>
	</g>
</g>
</svg>
