<?xml version="1.0" encoding="utf-8"?>
<!-- Generator: Adobe Illustrator 27.2.0, SVG Export Plug-In . SVG Version: 6.00 Build 0)  -->
<svg version="1.1" id="Layer_1" xmlns:v="https://vecta.io/nano"
	 xmlns="http://www.w3.org/2000/svg" xmlns:xlink="http://www.w3.org/1999/xlink" x="0px" y="0px" viewBox="0 0 40 40"
	 style="enable-background:new 0 0 40 40;" xml:space="preserve">
<style type="text/css">
	.st0{fill:#FF1F30;}
</style>
<g>
	<g>
		<path id="B" class="st0" d="M28.1,29.1h-4.6c-0.9,0-1.6,0.7-1.6,1.6s0.7,1.6,1.6,1.6h4.6c0.9,0,1.6-0.7,1.6-1.6
			S28.9,29.1,28.1,29.1L28.1,29.1z"/>
	</g>
	<g>
		<path id="B_00000030468603284924621340000002974019108319135625_" class="st0" d="M28.1,19.7h-4.6c-0.9,0-1.6,0.7-1.6,1.6
			s0.7,1.6,1.6,1.6h4.6c0.9,0,1.6-0.7,1.6-1.6S28.9,19.7,28.1,19.7L28.1,19.7z"/>
	</g>
	<path class="st0" d="M34.3,27.5c0.9,0,1.6-0.7,1.6-1.6V6.2c0-3.4-2.8-6.2-6.3-6.2H10.4C6.9,0,4.2,2.8,4.1,6.2v27.5
		c0,3.4,2.8,6.2,6.2,6.2h19.2c3.4,0,6.2-2.8,6.2-6.2c0-0.9-0.7-1.6-1.6-1.6s-1.6,0.7-1.6,1.6c0,1.7-1.4,3.1-3.1,3.1H10.4
		c-1.7,0-3.1-1.4-3.1-3.1V6.2c0-1.7,1.4-3.1,3.1-3.1h19.2c1.7,0,3.1,1.4,3.1,3.1v19.7C32.7,26.8,33.4,27.5,34.3,27.5L34.3,27.5z"/>
</g>
<path class="st0" d="M20,6.2c-0.7-0.6-1.6-0.5-2.2,0.2l-3.4,4.1l-1.3-1.4c-0.6-0.6-1.6-0.6-2.2,0s-0.6,1.6,0,2.2l1.7,1.7l0,0
	c0.5,0.5,1.2,0.7,1.9,0.8l0.2,0c0.8-0.1,1.5-0.4,1.9-1l3.6-4.4C20.7,7.8,20.6,6.8,20,6.2L20,6.2z M20,25.3c-0.7-0.5-1.6-0.5-2.2,0.2
	l-3.4,4.1l-1.3-1.4c-0.6-0.6-1.6-0.6-2.2,0s-0.6,1.6,0,2.2l1.7,1.7l0,0c0.5,0.5,1.2,0.7,1.9,0.8l0.2,0c0.8-0.1,1.5-0.4,1.9-1
	l3.6-4.4C20.7,26.8,20.6,25.8,20,25.3L20,25.3z"/>
<path class="st0" d="M28.1,10.1h-4.6c-0.9,0-1.6,0.7-1.6,1.6s0.7,1.6,1.6,1.6h4.6c0.9,0,1.6-0.7,1.6-1.6S28.9,10.1,28.1,10.1
	L28.1,10.1z"/>
<path class="st0" d="M20,15.8c-0.7-0.6-1.6-0.5-2.2,0.2l-3.4,4.1l-1.3-1.4c-0.6-0.6-1.6-0.6-2.2,0s-0.6,1.6,0,2.2l1.7,1.7l0,0
	c0.5,0.5,1.2,0.7,1.9,0.8l0.2,0c0.8-0.1,1.5-0.4,1.9-1l3.6-4.4C20.7,17.4,20.6,16.4,20,15.8z"/>
</svg>
