<?xml version="1.0" encoding="utf-8"?>
<!-- Generator: Adobe Illustrator 26.0.1, SVG Export Plug-In . SVG Version: 6.00 Build 0)  -->
<svg version="1.1" id="Layer_1" xmlns="http://www.w3.org/2000/svg" xmlns:xlink="http://www.w3.org/1999/xlink" x="0px" y="0px"
	 viewBox="0 0 89 32" style="enable-background:new 0 0 89 32;" xml:space="preserve">
<style type="text/css">
	.st0{display:none;fill:#181C32;}
	.st1{fill:#00A3FF;}
	.st2{fill:#FFFFFF;}
	.st3{fill:#181C32;}
</style>
<path class="st0" d="M46.1,25.2c-1.7,0-3.1-0.4-4.4-1.1c-1.2-0.7-2.1-1.7-2.8-3c-0.6-1.3-1-2.6-1-4.2c0-1.6,0.3-3,1-4.3
	c0.7-1.3,1.7-2.2,2.9-2.9c1.3-0.7,2.7-1.1,4.3-1.1c0.7,0,1.4,0.1,2,0.2c0.6,0.1,1.2,0.3,1.6,0.5c0.4,0.2,0.7,0.4,0.8,0.5L49.5,12
	c-0.9-0.8-2.1-1.2-3.5-1.2c-1,0-1.9,0.2-2.8,0.7s-1.5,1.2-1.9,2.1s-0.7,2-0.7,3.2c0,1.1,0.2,2.1,0.6,3c0.4,0.9,1,1.6,1.8,2.2
	c0.8,0.5,1.8,0.8,2.9,0.8c1.3,0,2.5-0.4,3.7-1.1l0.7,2.1c-0.3,0.3-0.9,0.6-1.8,0.9C47.8,25,46.9,25.2,46.1,25.2z M52.8,14.9h2.4v2
	c0.2-0.7,0.6-1.2,1.1-1.6s1.1-0.6,1.8-0.6c0.5,0,0.8,0,1,0.1l-0.3,2.4c-0.1-0.1-0.4-0.1-0.9-0.1c-0.7,0-1.3,0.2-1.9,0.7
	c-0.6,0.4-0.8,1.1-0.8,2.1V25h-2.4V14.9z M65.2,25.2c-0.9,0-1.8-0.2-2.5-0.6c-0.8-0.4-1.4-1.1-1.8-1.8c-0.5-0.8-0.7-1.7-0.7-2.8
	c0-1.1,0.2-2,0.6-2.8c0.4-0.8,1-1.4,1.7-1.8c0.7-0.4,1.6-0.7,2.6-0.7c0.6,0,1.1,0.1,1.7,0.3c0.5,0.2,0.9,0.5,1.3,0.8
	c0.4,0.3,0.6,0.6,0.7,0.9l0-1.7h2.3V25h-2.2l0-1.8c-0.2,0.5-0.7,1-1.4,1.4C66.8,25,66,25.2,65.2,25.2z M65.6,23.2
	c0.8,0,1.5-0.3,2.1-0.9c0.6-0.6,0.9-1.3,0.9-2.3v-0.2c0-0.6-0.1-1.2-0.4-1.7c-0.3-0.5-0.6-0.9-1.1-1.2c-0.5-0.3-1-0.4-1.5-0.4
	c-0.9,0-1.7,0.3-2.2,0.9c-0.5,0.6-0.8,1.4-0.8,2.4c0,1,0.2,1.8,0.7,2.4C63.9,22.9,64.7,23.2,65.6,23.2z M75.2,16.8h-1.6v-1.9h1.6
	v-2.2c0-1.3,0.3-2.3,0.9-3.1c0.6-0.7,1.6-1.1,2.8-1.1c0.5,0,1.1,0.1,1.7,0.4l-0.5,2.2c-0.1-0.1-0.3-0.2-0.5-0.3
	c-0.2-0.1-0.4-0.2-0.7-0.2c-1,0-1.5,0.6-1.5,1.9v2.3h2.4v1.9h-2.4V25h-2.3V16.8z M83.1,16.8h-1.8v-1.9h1.8v-4.1l2.4-0.5v4.6h2.3v1.9
	h-2.3V25h-2.4V16.8z"/>
<path class="st1" d="M11.5,2.6c2.8-1.6,6.2-1.6,9,0l4.9,2.8c2.8,1.6,4.5,4.6,4.5,7.8v5.6c0,3.2-1.7,6.2-4.5,7.8l-4.9,2.8
	c-2.8,1.6-6.2,1.6-9,0l-4.9-2.8C3.9,25,2.1,22,2.1,18.8v-5.6C2.1,10,3.9,7,6.6,5.4L11.5,2.6z"/>
<path class="st2" d="M19.6,12.7H19c0-2-1.6-3.6-3.6-3.6h-3c-2,0-3.6,1.6-3.6,3.6v3c0,2,1.6,3.6,3.6,3.6H13c0,2,1.6,3.6,3.6,3.6h3
	c2,0,3.6-1.6,3.6-3.6v-3C23.2,14.3,21.6,12.7,19.6,12.7z M12.4,18.1c-1.3,0-2.4-1.1-2.4-2.4v-3c0-1.3,1.1-2.4,2.4-2.4h3
	c1.3,0,2.4,1.1,2.4,2.4h-1.2c-2,0-3.6,1.6-3.6,3.6v1.8H12.4z M22,19.3c0,1.3-1.1,2.4-2.4,2.4h-3c-1.3,0-2.4-1.1-2.4-2.4h1.2
	c2,0,3.6-1.6,3.6-3.6v-1.8h0.6c1.3,0,2.4,1.1,2.4,2.4V19.3z"/>
<g>
	<path class="st3" d="M41.9,21.6h-2.6v-5.9H38v-2.3h1.4v-0.4c0-0.9,0.3-1.5,0.8-2.1c0.5-0.5,1.2-0.8,2.1-0.8c1,0,1.8,0.3,2.3,0.8
		l-1,1.5c-0.2-0.2-0.5-0.3-0.8-0.3c-0.3,0-0.5,0.1-0.6,0.2c-0.2,0.2-0.3,0.4-0.3,0.7v0.4h1.7v2.3h-1.7V21.6z"/>
	<path class="st3" d="M52.8,21.6h-2.6v-1c-0.7,0.8-1.6,1.2-2.8,1.2c-0.9,0-1.6-0.2-2-0.7c-0.4-0.5-0.7-1.1-0.7-1.9v-5.8h2.6v4.8
		c0,0.9,0.5,1.3,1.4,1.3c0.6,0,1.1-0.3,1.6-0.8v-5.3h2.6V21.6z"/>
	<path class="st3" d="M62.8,21.6h-2.6v-4.7c0-0.9-0.4-1.4-1.3-1.4c-0.6,0-1.2,0.3-1.6,0.8v5.3h-2.6v-8.2h2.6v1
		c0.7-0.8,1.6-1.2,2.8-1.2c0.9,0,1.6,0.2,2,0.7s0.7,1.1,0.7,1.9V21.6z"/>
	<path class="st3" d="M72.8,21.6h-2.6v-0.9c-0.7,0.8-1.5,1.1-2.4,1.1c-1,0-1.9-0.4-2.6-1.1c-0.7-0.8-1-1.8-1-3.2
		c0-1.3,0.3-2.3,1-3.1c0.7-0.8,1.5-1.2,2.6-1.2c1,0,1.8,0.4,2.4,1.2v-4.1h2.6V21.6z M68.6,19.5c0.3,0,0.6-0.1,0.9-0.2
		c0.3-0.1,0.5-0.3,0.7-0.5v-2.5c-0.2-0.2-0.4-0.4-0.7-0.5c-0.3-0.1-0.6-0.2-0.9-0.2c-0.5,0-1,0.2-1.3,0.5c-0.3,0.4-0.5,0.8-0.5,1.4
		s0.2,1.1,0.5,1.4C67.7,19.3,68.1,19.5,68.6,19.5z"/>
	<path class="st3" d="M77.3,21.6h-2.6v-8.2h2.6v1c0.3-0.3,0.7-0.6,1.1-0.9c0.5-0.2,0.9-0.4,1.4-0.4v2.5c-0.2,0-0.4-0.1-0.6-0.1
		c-0.4,0-0.7,0.1-1.1,0.2c-0.4,0.1-0.6,0.3-0.8,0.5V21.6z"/>
	<path class="st3" d="M84.2,21.8c-0.7,0-1.4-0.1-2.1-0.3c-0.7-0.2-1.3-0.5-1.7-0.9l1.1-1.8c0.3,0.3,0.8,0.5,1.3,0.8
		c0.6,0.2,1.1,0.3,1.5,0.3c0.7,0,1.1-0.2,1.1-0.6c0-0.2-0.2-0.3-0.5-0.4c-0.3-0.1-0.7-0.2-1.2-0.3c-0.5-0.1-0.9-0.2-1.4-0.3
		c-0.5-0.1-0.9-0.4-1.2-0.8c-0.3-0.4-0.5-0.9-0.5-1.5c0-0.8,0.3-1.4,0.9-1.9c0.6-0.5,1.5-0.8,2.6-0.8c1.3,0,2.4,0.4,3.4,1.1l-1,1.7
		c-0.3-0.2-0.6-0.5-1-0.6c-0.4-0.2-0.9-0.3-1.4-0.3c-0.3,0-0.6,0.1-0.7,0.2c-0.2,0.1-0.3,0.3-0.3,0.4s0.2,0.3,0.5,0.4
		c0.3,0.1,0.7,0.2,1.2,0.3c0.5,0.1,0.9,0.2,1.4,0.4c0.5,0.2,0.9,0.4,1.2,0.8c0.3,0.4,0.5,0.9,0.5,1.5c0,0.8-0.3,1.5-1,2
		C86.2,21.6,85.3,21.8,84.2,21.8z"/>
</g>
</svg>
