<?xml version="1.0" encoding="utf-8"?>
<!-- Generator: Adobe Illustrator 26.0.1, SVG Export Plug-In . SVG Version: 6.00 Build 0)  -->
<svg version="1.1" id="Layer_1" xmlns="http://www.w3.org/2000/svg" xmlns:xlink="http://www.w3.org/1999/xlink" x="0px" y="0px"
	 viewBox="0 0 89 32" style="enable-background:new 0 0 89 32;" xml:space="preserve">
<style type="text/css">
	.st0{fill:#FF1F2E;}
	.st1{fill:#FFFFFF;}
</style>
<g>
	<path class="st0" d="M11,2.6c2.8-1.6,6.2-1.6,9,0l4.9,2.8c2.8,1.6,4.5,4.6,4.5,7.8v5.6c0,3.2-1.7,6.2-4.5,7.8L20,29.4
		c-2.8,1.6-6.2,1.6-9,0l-4.9-2.8C3.4,25,1.6,22,1.6,18.8v-5.6C1.6,10,3.4,7,6.1,5.4L11,2.6z"/>
	<path class="st1" d="M19.1,12.7h-0.6c0-2-1.6-3.6-3.6-3.6h-3c-2,0-3.6,1.6-3.6,3.6v3c0,2,1.6,3.6,3.6,3.6h0.6c0,2,1.6,3.6,3.6,3.6
		h3c2,0,3.6-1.6,3.6-3.6v-3C22.7,14.3,21.1,12.7,19.1,12.7z M11.9,18.1c-1.3,0-2.4-1.1-2.4-2.4v-3c0-1.3,1.1-2.4,2.4-2.4h3
		c1.3,0,2.4,1.1,2.4,2.4h-1.2c-2,0-3.6,1.6-3.6,3.6v1.8H11.9z M21.5,19.3c0,1.3-1.1,2.4-2.4,2.4h-3c-1.3,0-2.4-1.1-2.4-2.4h1.2
		c2,0,3.6-1.6,3.6-3.6v-1.8h0.6c1.3,0,2.4,1.1,2.4,2.4V19.3z"/>
	<g>
		<path class="st1" d="M41.4,21.6h-2.6v-5.9h-1.4v-2.3h1.4V13c0-0.9,0.3-1.5,0.8-2.1c0.5-0.5,1.2-0.8,2.1-0.8c1,0,1.8,0.3,2.3,0.8
			l-1,1.5c-0.2-0.2-0.5-0.3-0.8-0.3s-0.5,0.1-0.6,0.2c-0.2,0.2-0.3,0.4-0.3,0.7v0.4H43v2.3h-1.7L41.4,21.6L41.4,21.6z"/>
		<path class="st1" d="M52.3,21.6h-2.6v-1c-0.7,0.8-1.6,1.2-2.8,1.2c-0.9,0-1.6-0.2-2-0.7s-0.7-1.1-0.7-1.9v-5.8h2.6v4.8
			c0,0.9,0.5,1.3,1.4,1.3c0.6,0,1.1-0.3,1.6-0.8v-5.3h2.6L52.3,21.6L52.3,21.6z"/>
		<path class="st1" d="M62.3,21.6h-2.6v-4.7c0-0.9-0.4-1.4-1.3-1.4c-0.6,0-1.2,0.3-1.6,0.8v5.3h-2.6v-8.2h2.6v1
			c0.7-0.8,1.6-1.2,2.8-1.2c0.9,0,1.6,0.2,2,0.7s0.7,1.1,0.7,1.9C62.3,15.8,62.3,21.6,62.3,21.6z"/>
		<path class="st1" d="M72.3,21.6h-2.6v-0.9c-0.7,0.8-1.5,1.1-2.4,1.1c-1,0-1.9-0.4-2.6-1.1c-0.7-0.8-1-1.8-1-3.2
			c0-1.3,0.3-2.3,1-3.1s1.5-1.2,2.6-1.2c1,0,1.8,0.4,2.4,1.2v-4.1h2.6V21.6z M68.1,19.5c0.3,0,0.6-0.1,0.9-0.2s0.5-0.3,0.7-0.5v-2.5
			c-0.2-0.2-0.4-0.4-0.7-0.5c-0.3-0.1-0.6-0.2-0.9-0.2c-0.5,0-1,0.2-1.3,0.5c-0.3,0.4-0.5,0.8-0.5,1.4s0.2,1.1,0.5,1.4
			C67.2,19.3,67.6,19.5,68.1,19.5z"/>
		<path class="st1" d="M76.8,21.6h-2.6v-8.2h2.6v1c0.3-0.3,0.7-0.6,1.1-0.9c0.5-0.2,0.9-0.4,1.4-0.4v2.5c-0.2,0-0.4-0.1-0.6-0.1
			c-0.4,0-0.7,0.1-1.1,0.2c-0.4,0.1-0.6,0.3-0.8,0.5V21.6z"/>
		<path class="st1" d="M83.6,21.8c-0.7,0-1.4-0.1-2.1-0.3c-0.7-0.2-1.3-0.5-1.7-0.9l1.1-1.8c0.3,0.3,0.8,0.5,1.3,0.8
			c0.6,0.2,1.1,0.3,1.5,0.3c0.7,0,1.1-0.2,1.1-0.6c0-0.2-0.2-0.3-0.5-0.4s-0.7-0.2-1.2-0.3c-0.5-0.1-0.9-0.2-1.4-0.3
			c-0.5-0.1-0.9-0.4-1.2-0.8C80.2,17.1,80,16.6,80,16c0-0.8,0.3-1.4,0.9-1.9s1.5-0.8,2.6-0.8c1.3,0,2.4,0.4,3.4,1.1l-1,1.7
			c-0.3-0.2-0.6-0.5-1-0.6c-0.4-0.2-0.9-0.3-1.4-0.3c-0.3,0-0.6,0.1-0.7,0.2c-0.2,0.1-0.3,0.3-0.3,0.4c0,0.2,0.2,0.3,0.5,0.4
			s0.7,0.2,1.2,0.3c0.5,0.1,0.9,0.2,1.4,0.4c0.5,0.2,0.9,0.4,1.2,0.8c0.3,0.4,0.5,0.9,0.5,1.5c0,0.8-0.3,1.5-1,2
			C85.7,21.6,84.8,21.8,83.6,21.8z"/>
	</g>
</g>
</svg>
