<?xml version="1.0" encoding="utf-8"?>
<!-- Generator: Adobe Illustrator 26.0.1, SVG Export Plug-In . SVG Version: 6.00 Build 0)  -->
<svg version="1.1" id="Layer_1" xmlns="http://www.w3.org/2000/svg" xmlns:xlink="http://www.w3.org/1999/xlink" x="0px" y="0px"
	 viewBox="0 0 32 32" style="enable-background:new 0 0 32 32;" xml:space="preserve">
<style type="text/css">
	.st0{fill:#FF1F30;}
	.st1{display:none;fill:none;stroke:#FFFFFF;stroke-width:2;}
	.st2{fill:#FFFFFF;}
</style>
<path class="st0" d="M11.5,2.6c2.8-1.6,6.2-1.6,9,0l4.9,2.8c2.8,1.6,4.5,4.6,4.5,7.8v5.6c0,3.2-1.7,6.2-4.5,7.8l-4.9,2.8
	c-2.8,1.6-6.2,1.6-9,0l-4.9-2.8C3.9,25,2.1,22,2.1,18.8v-5.6C2.1,10,3.9,7,6.6,5.4L11.5,2.6z"/>
<path class="st1" d="M17.4,21.3c0.9-0.1,1.7-0.5,2.4-1c0.2-0.1,0.2-0.4,0.1-0.6l0,0c-0.2-0.2-0.4-0.2-0.7-0.1
	c-0.6,0.4-1.2,0.7-2,0.8c-0.9,0.1-1.7,0-2.5-0.4s-1.4-1-1.9-1.7s-0.7-1.6-0.7-2.5s0.3-1.7,0.8-2.4s1.2-1.3,2-1.6s1.7-0.4,2.5-0.2
	c0.7,0.1,1.4,0.5,1.9,0.9c0.2,0.2,0.5,0.2,0.7,0l0,0c0.2-0.2,0.2-0.5,0-0.6c-0.7-0.6-1.5-1-2.4-1.1c-1-0.2-2.1-0.1-3,0.3
	c-1,0.4-1.8,1-2.4,1.9c-0.6,0.9-0.9,1.9-1,2.9s0.2,2.1,0.8,3c0.5,0.9,1.3,1.6,2.3,2C15.3,21.3,16.4,21.4,17.4,21.3z"/>
<path class="st2" d="M19.6,12.7H19c0-2-1.6-3.6-3.6-3.6h-3c-2,0-3.6,1.6-3.6,3.6v3c0,2,1.6,3.6,3.6,3.6H13c0,2,1.6,3.6,3.6,3.6h3
	c2,0,3.6-1.6,3.6-3.6v-3C23.2,14.3,21.6,12.7,19.6,12.7z M12.4,18.1c-1.3,0-2.4-1.1-2.4-2.4v-3c0-1.3,1.1-2.4,2.4-2.4h3
	c1.3,0,2.4,1.1,2.4,2.4h-1.2c-2,0-3.6,1.6-3.6,3.6v1.8H12.4z M22,19.3c0,1.3-1.1,2.4-2.4,2.4h-3c-1.3,0-2.4-1.1-2.4-2.4h1.2
	c2,0,3.6-1.6,3.6-3.6v-1.8h0.6c1.3,0,2.4,1.1,2.4,2.4V19.3z"/>
</svg>
