<?xml version="1.0" encoding="utf-8"?>
<!-- Generator: Adobe Illustrator 26.0.1, SVG Export Plug-In . SVG Version: 6.00 Build 0)  -->
<svg version="1.1" id="Layer_1" xmlns="http://www.w3.org/2000/svg" xmlns:xlink="http://www.w3.org/1999/xlink" x="0px" y="0px"
	 viewBox="0 0 48 48" style="enable-background:new 0 0 48 48;" xml:space="preserve">
<style type="text/css">
	.st0{fill:#FF1F30;}
	.st1{display:none;fill:none;stroke:#FFFFFF;stroke-width:3;}
	.st2{fill:#FFFFFF;}
</style>
<path class="st0" d="M18,3.5c3.7-2.1,8.3-2.1,12,0l8.8,5.1c3.7,2.1,6,6.1,6,10.4v10.1c0,4.3-2.3,8.2-6,10.4l-8.8,5
	c-3.7,2.1-8.3,2.1-12,0l-8.8-5.1c-3.7-2.1-6-6.1-6-10.4V18.9c0-4.3,2.3-8.2,6-10.4L18,3.5z"/>
<path class="st1" d="M26.1,31.9c1.3-0.2,2.6-0.7,3.6-1.5c0.3-0.2,0.3-0.7,0.1-0.9l0,0c-0.2-0.3-0.7-0.3-1-0.1
	c-0.9,0.6-1.9,1-2.9,1.2c-1.3,0.2-2.6,0-3.8-0.6c-1.2-0.6-2.2-1.4-2.8-2.5c-0.7-1.1-1-2.4-1-3.7c0-1.3,0.5-2.6,1.2-3.6
	c0.7-1.1,1.8-1.9,3-2.4s2.5-0.6,3.8-0.3c1,0.2,2,0.7,2.9,1.4c0.3,0.2,0.7,0.2,1,0l0,0c0.3-0.3,0.3-0.7,0-0.9c-1-0.9-2.2-1.4-3.5-1.7
	c-1.5-0.3-3.1-0.2-4.6,0.4s-2.7,1.6-3.6,2.8S17,22.2,17,23.8c0,1.6,0.4,3.1,1.2,4.4c0.8,1.3,2,2.4,3.4,3.1
	C23,31.9,24.6,32.1,26.1,31.9z"/>
<path class="st2" d="M30,18.5h-1c0-3.3-2.7-6-6-6h-5c-3.3,0-6,2.7-6,6v5c0,3.3,2.7,6,6,6h1c0,3.3,2.7,6,6,6h5c3.3,0,6-2.7,6-6v-5
	C36,21.2,33.3,18.5,30,18.5z M18,27.5c-2.2,0-4-1.8-4-4v-5c0-2.2,1.8-4,4-4h5c2.2,0,4,1.8,4,4h-2c-3.3,0-6,2.7-6,6v3H18z M34,29.5
	c0,2.2-1.8,4-4,4h-5c-2.2,0-4-1.8-4-4h2c3.3,0,6-2.7,6-6v-3h1c2.2,0,4,1.8,4,4V29.5z"/>
</svg>
